Diphylleia.glyphspackage
{
glyphname = six;
layers = (
{
layerId = m01;
shapes = (
{
closed = 1;
nodes = (
(478,696,o),
(494,681,o),
(491,662,c),
(241,622,o),
(118,419,o),
(126,209,cs),
(130,89,o),
(199,-8,o),
(289,-7.062,cs),
(391,-6,o),
(444,88,o),
(446,182,cs),
(448,274,o),
(385.097,345.54,o),
(325,356,cs),
(276.513,364.439,o),
(247,351,o),
(218,333,cs),
(203.556,324.035,o),
(189,338,o),
(186,350,c),
(213,375,o),
(267,399,o),
(329,397,cs),
(423.951,393.937,o),
(522,328,o),
(517,183,cs),
(512,49,o),
(406,-46,o),
(288,-46,cs),
(125,-46,o),
(53,104,o),
(52,231,cs),
(50,481,o),
(234,672,o),
(468,695,cs)
);
}
);
width = 560;
},
{
associatedMasterId = m01;
layerId = "B95609A4-E58B-4ADE-9779-E0FAA25E41BF";
width = 600;
},
{
associatedMasterId = m01;
layerId = "653FFB37-5C59-4C66-B2B8-3358A1461268";
shapes = (
{
closed = 1;
nodes = (
(209,283,o),
(155,215,q),
(154,213,o),
(159,207,o),
(162,207,qs),
(164,207,o),
(165,208,qs),
(193,233,o),
(239,255,o),
(265,255,qs),
(315,255,o),
(366,187,o),
(366,132,qs),
(366,74,o),
(307,6,o),
(258,6,qs),
(190,6,o),
(111,131,o),
(111,225,qs),
(111,305,o),
(178,468,o),
(311,607,o),
(405,650,q),
(408,652,o),
(404,662,o),
(400,661,qs),
(292,623,o),
(132,481,o),
(47,301,o),
(47,208,qs),
(47,103,o),
(145,-13,o),
(230,-13,qs),
(284,-13,o),
(376,33,o),
(430,112,o),
(430,159,qs),
(430,211,o),
(366,283,o),
(299,283,qs)
);
}
);
userData = {
assembly = "NPUSHB[ ]	/* 38 values pushed */
32 1 1 2 1 74 4 1 3 0 2 1 3 2 103 0 1 1 0 95 0 0 0 65 0 76 0 0 0 39 0 38 36 47 37 5 9 23 
CALL[ ]	/* CallFunction */";
};
width = 465;
},
{
associatedMasterId = m01;
layerId = "5494C454-2D9E-4789-B866-396A871BBCCD";
shapes = (
{
closed = 1;
nodes = (
(203,377,o),
(203,298,o),
(203,298,c),
(203,298,o),
(238,379,o),
(333,395,cs),
(480,420,o),
(608,339,o),
(600,160,cs),
(592,-14,o),
(455,-81,o),
(332,-81,cs),
(238,-81,o),
(153,-31,o),
(101,104,cs),
(66,196,o),
(67,365,o),
(113,486,cs),
(147,575,o),
(228,680,o),
(338,696,cs),
(426,709,o),
(532,680,o),
(563,616,cs),
(613,512,o),
(550,456,o),
(483,472,cs),
(392,494,o),
(424,575,o),
(442,602,cs),
(466,638,o),
(398,667,o),
(344,650,cs),
(288,632,o),
(250,580,o),
(225,473,cs)
);
},
{
closed = 1;
nodes = (
(252,338,o),
(208,234,o),
(208,153,cs),
(208,22,o),
(275,-37,o),
(332,-38,cs),
(413,-39,o),
(468,31,o),
(473,158,cs),
(479,304,o),
(395,351,o),
(330,345,cs)
);
}
);
vertWidth = 1000;
width = 680;
},
{
associatedMasterId = m01;
layerId = "FA6D07F3-67AB-4197-AE0F-C6DA16090780";
shapes = (
{
closed = 1;
nodes = (
(181,653,o),
(283,735,o),
(350,735,qs),
(370,735,o),
(410,727,o),
(429,716,qs),
(436,713,o),
(438,719,qs),
(456,761,ls),
(458,766,o),
(453,769,qs),
(429,781,o),
(379,790,o),
(354,790,qs),
(274,790,o),
(159,718,o),
(85,597,o),
(50,448,o),
(50,372,qs),
(51,268,o),
(112,131,o),
(215,64,o),
(278,65,qs),
(340,66,o),
(439,126,o),
(496,231,o),
(495,301,qs),
(495,361,o),
(448,459,o),
(359,517,o),
(295,517,qs),
(236,517,o),
(147,463,o),
(116,416,q),
(122,509,o)
);
},
{
closed = 1;
nodes = (
(231,459,o),
(288,459,qs),
(349,459,o),
(429,380,o),
(430,304,qs),
(431,253,o),
(393,170,o),
(324,121,o),
(276,121,qs),
(210,121,o),
(126,224,o),
(117,327,q),
(142,392,o)
);
}
);
vertWidth = 1000;
width = 540;
},
{
associatedMasterId = m01;
layerId = "F016DAA5-6277-48DB-85B7-A16E4FBC1837";
shapes = (
{
closed = 1;
nodes = (
(181,653,o),
(283,735,o),
(350,735,qs),
(370,735,o),
(410,727,o),
(429,716,qs),
(436,713,o),
(438,719,qs),
(456,761,ls),
(458,766,o),
(453,769,qs),
(429,781,o),
(379,790,o),
(354,790,qs),
(274,790,o),
(159,718,o),
(85,597,o),
(50,448,o),
(50,372,qs),
(51,268,o),
(112,131,o),
(215,64,o),
(278,65,qs),
(340,66,o),
(439,126,o),
(496,231,o),
(495,301,qs),
(495,361,o),
(448,459,o),
(359,517,o),
(295,517,qs),
(236,517,o),
(147,463,o),
(116,416,q),
(122,509,o)
);
},
{
closed = 1;
nodes = (
(231,459,o),
(288,459,qs),
(349,459,o),
(429,380,o),
(430,304,qs),
(431,253,o),
(393,170,o),
(324,121,o),
(276,121,qs),
(210,121,o),
(126,224,o),
(117,327,q),
(142,392,o)
);
}
);
vertWidth = 1000;
width = 540;
},
{
associatedMasterId = m01;
layerId = m004;
shapes = (
{
closed = 1;
nodes = (
(478,625,o),
(474,608,o),
(463,588,cs),
(448,561,o),
(429,550,o),
(410,561,cs),
(398,569,o),
(398,578,o),
(379,582,cs),
(221,614,o),
(117,425,o),
(117,262,cs),
(117,124,o),
(164,5,o),
(282,5,cs),
(377,5,o),
(424,91,o),
(425,192,cs),
(426,282,o),
(376,348,o),
(295,348,cs),
(257,348,o),
(229,339,o),
(196,315,cs),
(182,305,o),
(165,313,o),
(161,322,c),
(195,377,o),
(257,394,o),
(305,394,cs),
(399,394,o),
(501,332,o),
(497,188,cs),
(492,50,o),
(386,-36,o),
(283,-36,cs),
(84,-36,o),
(15,167,o),
(50,349,cs),
(90,558,o),
(282,686,o),
(455,632,cs)
);
}
);
width = 540;
},
{
associatedMasterId = m01;
layerId = "168195D5-3EAD-4C2A-8119-4ADE26456DE4";
width = 600;
},
{
associatedMasterId = m01;
layerId = "957DEE53-032E-4958-9CBB-D82DDE96A952";
shapes = (
{
closed = 1;
nodes = (
(209,283,o),
(155,215,q),
(154,213,o),
(159,207,o),
(162,207,qs),
(164,207,o),
(165,208,qs),
(193,233,o),
(239,255,o),
(265,255,qs),
(315,255,o),
(366,187,o),
(366,132,qs),
(366,74,o),
(307,6,o),
(258,6,qs),
(190,6,o),
(111,131,o),
(111,225,qs),
(111,305,o),
(178,468,o),
(311,607,o),
(405,650,q),
(408,652,o),
(404,662,o),
(400,661,qs),
(292,623,o),
(132,481,o),
(47,301,o),
(47,208,qs),
(47,103,o),
(145,-13,o),
(230,-13,qs),
(284,-13,o),
(376,33,o),
(430,112,o),
(430,159,qs),
(430,211,o),
(366,283,o),
(299,283,qs)
);
}
);
userData = {
assembly = "NPUSHB[ ]	/* 38 values pushed */
32 1 1 2 1 74 4 1 3 0 2 1 3 2 103 0 1 1 0 95 0 0 0 65 0 76 0 0 0 39 0 38 36 47 37 5 9 23 
CALL[ ]	/* CallFunction */";
};
width = 465;
},
{
associatedMasterId = m01;
layerId = "9E238AFC-81F6-4E42-8B81-5C01082562FF";
shapes = (
{
closed = 1;
nodes = (
(203,377,o),
(203,298,o),
(203,298,c),
(203,298,o),
(238,379,o),
(333,395,cs),
(480,420,o),
(608,339,o),
(600,160,cs),
(592,-14,o),
(455,-81,o),
(332,-81,cs),
(238,-81,o),
(153,-31,o),
(101,104,cs),
(66,196,o),
(67,365,o),
(113,486,cs),
(147,575,o),
(228,680,o),
(338,696,cs),
(426,709,o),
(532,680,o),
(563,616,cs),
(613,512,o),
(550,456,o),
(483,472,cs),
(392,494,o),
(424,575,o),
(442,602,cs),
(466,638,o),
(398,667,o),
(344,650,cs),
(288,632,o),
(250,580,o),
(225,473,cs)
);
},
{
closed = 1;
nodes = (
(252,338,o),
(208,234,o),
(208,153,cs),
(208,22,o),
(275,-37,o),
(332,-38,cs),
(413,-39,o),
(468,31,o),
(473,158,cs),
(479,304,o),
(395,351,o),
(330,345,cs)
);
}
);
vertWidth = 1000;
width = 680;
},
{
associatedMasterId = m01;
layerId = "F879BCE7-9C47-4073-B542-B20D8430F866";
shapes = (
{
closed = 1;
nodes = (
(181,653,o),
(283,735,o),
(350,735,qs),
(370,735,o),
(410,727,o),
(429,716,qs),
(436,713,o),
(438,719,qs),
(456,761,ls),
(458,766,o),
(453,769,qs),
(429,781,o),
(379,790,o),
(354,790,qs),
(274,790,o),
(159,718,o),
(85,597,o),
(50,448,o),
(50,372,qs),
(51,268,o),
(112,131,o),
(215,64,o),
(278,65,qs),
(340,66,o),
(439,126,o),
(496,231,o),
(495,301,qs),
(495,361,o),
(448,459,o),
(359,517,o),
(295,517,qs),
(236,517,o),
(147,463,o),
(116,416,q),
(122,509,o)
);
},
{
closed = 1;
nodes = (
(231,459,o),
(288,459,qs),
(349,459,o),
(429,380,o),
(430,304,qs),
(431,253,o),
(393,170,o),
(324,121,o),
(276,121,qs),
(210,121,o),
(126,224,o),
(117,327,q),
(142,392,o)
);
}
);
vertWidth = 1000;
width = 540;
},
{
associatedMasterId = m01;
layerId = "213CDF87-CD68-4752-A22A-4B4A86460747";
shapes = (
{
closed = 1;
nodes = (
(181,653,o),
(283,735,o),
(350,735,qs),
(370,735,o),
(410,727,o),
(429,716,qs),
(436,713,o),
(438,719,qs),
(456,761,ls),
(458,766,o),
(453,769,qs),
(429,781,o),
(379,790,o),
(354,790,qs),
(274,790,o),
(159,718,o),
(85,597,o),
(50,448,o),
(50,372,qs),
(51,268,o),
(112,131,o),
(215,64,o),
(278,65,qs),
(340,66,o),
(439,126,o),
(496,231,o),
(495,301,qs),
(495,361,o),
(448,459,o),
(359,517,o),
(295,517,qs),
(236,517,o),
(147,463,o),
(116,416,q),
(122,509,o)
);
},
{
closed = 1;
nodes = (
(231,459,o),
(288,459,qs),
(349,459,o),
(429,380,o),
(430,304,qs),
(431,253,o),
(393,170,o),
(324,121,o),
(276,121,qs),
(210,121,o),
(126,224,o),
(117,327,q),
(142,392,o)
);
}
);
vertWidth = 1000;
width = 540;
}
);
unicode = 54;
}
{
glyphname = nine;
layers = (
{
layerId = m01;
shapes = (
{
closed = 1;
nodes = (
(89,-59,o),
(75,-45,o),
(79,-26,c),
(339,13,o),
(444,218,o),
(436,447,cs),
(432,562,o),
(367,644,o),
(277,643,cs),
(181,642,o),
(121,550,o),
(121,452,cs),
(121,349,o),
(176,266,o),
(266,264,cs),
(304,263,o),
(335,273,o),
(363,294,cs),
(377,305,o),
(385,297,o),
(389,289,c),
(366,250,o),
(314,224,o),
(252,224,cs),
(157,224,o),
(47,295,o),
(49,451,cs),
(51,588,o),
(163,676,o),
(268,681,cs),
(435,689,o),
(509,541,o),
(510,414,cs),
(512,155,o),
(337,-35,o),
(108.814,-57.082,cs)
);
}
);
width = 560;
},
{
associatedMasterId = m01;
layerId = "B95609A4-E58B-4ADE-9779-E0FAA25E41BF";
width = 600;
},
{
associatedMasterId = m01;
layerId = "653FFB37-5C59-4C66-B2B8-3358A1461268";
shapes = (
{
closed = 1;
nodes = (
(261,109,o),
(311,167,q),
(312,169,o),
(306,175,o),
(303,175,qs),
(301,175,o),
(300,174,qs),
(275,153,o),
(235,137,o),
(209,137,qs),
(156,137,o),
(99,208,o),
(99,263,qs),
(99,318,o),
(153,380,o),
(201,380,qs),
(254,380,o),
(323,307,o),
(354,199,o),
(354,146,qs),
(354,70,o),
(287,-90,o),
(155,-226,o),
(61,-264,qs),
(57,-266,o),
(62,-276,o),
(65,-275,qs),
(174,-242,o),
(334,-103,o),
(418,75,o),
(418,166,qs),
(418,271,o),
(309,399,o),
(217,399,qs),
(166,399,o),
(83,359,o),
(35,289,o),
(35,244,qs),
(35,191,o),
(105,109,o),
(177,109,qs)
);
}
);
userData = {
assembly = "NPUSHB[ ]	/* 39 values pushed */
33 1 2 1 1 74 0 2 4 1 3 2 3 99 0 1 1 0 95 0 0 0 59 1 76 0 0 0 40 0 39 31 29 25 23 37 5 9 21 
CALL[ ]	/* CallFunction */";
};
width = 465;
},
{
associatedMasterId = m01;
layerId = "5494C454-2D9E-4789-B866-396A871BBCCD";
shapes = (
{
closed = 1;
nodes = (
(474,220,o),
(474,317,o),
(474,317,c),
(474,317,o),
(433,239,o),
(345,222,cs),
(215,197,o),
(76,260,o),
(78,455,cs),
(80,613,o),
(215,702,o),
(332,699,cs),
(486,695,o),
(553,579,o),
(579,499,cs),
(626,353,o),
(589,178,o),
(551,99,cs),
(495,-18,o),
(405,-69,o),
(340,-77,cs),
(221,-92,o),
(142,-57,o),
(110,7,cs),
(76,75,o),
(125,175,o),
(214,144,cs),
(282,120,o),
(279,33,o),
(231,12,cs),
(190,-6,o),
(252,-38,o),
(288,-39,cs),
(370,-41,o),
(426,16,o),
(453,131,cs)
);
},
{
closed = 1;
nodes = (
(415,277,o),
(474,367,o),
(469,462,cs),
(462,590,o),
(415,655,o),
(331,656,cs),
(250,657,o),
(203,566,o),
(205,458,cs),
(207,358,o),
(253,267,o),
(337,272,cs)
);
}
);
vertWidth = 1000;
width = 680;
},
{
associatedMasterId = m01;
layerId = "FA6D07F3-67AB-4197-AE0F-C6DA16090780";
shapes = (
{
closed = 1;
nodes = (
(356,203,o),
(254,122,o),
(187,122,qs),
(168,122,o),
(128,131,o),
(108,141,qs),
(101,144,o),
(99,138,qs),
(81,94,ls),
(79,89,o),
(84,86,qs),
(108,74,o),
(158,65,o),
(183,65,qs),
(264,65,o),
(380,138,o),
(454,260,o),
(490,408,o),
(490,483,qs),
(490,588,o),
(430,724,o),
(328,791,o),
(265,790,qs),
(203,789,o),
(103,730,o),
(45,624,o),
(45,554,qs),
(45,494,o),
(91,396,o),
(180,338,o),
(243,338,qs),
(302,338,o),
(392,392,o),
(424,439,q),
(418,346,o)
);
},
{
closed = 1;
nodes = (
(308,396,o),
(251,396,qs),
(190,396,o),
(110,475,o),
(110,551,qs),
(110,602,o),
(148,685,o),
(219,734,o),
(267,734,qs),
(333,734,o),
(416,631,o),
(423,528,q),
(398,463,o)
);
}
);
vertWidth = 1000;
width = 540;
},
{
associatedMasterId = m01;
layerId = "F016DAA5-6277-48DB-85B7-A16E4FBC1837";
shapes = (
{
closed = 1;
nodes = (
(356,203,o),
(254,122,o),
(187,122,qs),
(168,122,o),
(128,131,o),
(108,141,qs),
(101,144,o),
(99,138,qs),
(81,94,ls),
(79,89,o),
(84,86,qs),
(108,74,o),
(158,65,o),
(183,65,qs),
(264,65,o),
(380,138,o),
(454,260,o),
(490,408,o),
(490,483,qs),
(490,588,o),
(430,724,o),
(328,791,o),
(265,790,qs),
(203,789,o),
(103,730,o),
(45,624,o),
(45,554,qs),
(45,494,o),
(91,396,o),
(180,338,o),
(243,338,qs),
(302,338,o),
(392,392,o),
(424,439,q),
(418,346,o)
);
},
{
closed = 1;
nodes = (
(308,396,o),
(251,396,qs),
(190,396,o),
(110,475,o),
(110,551,qs),
(110,602,o),
(148,685,o),
(219,734,o),
(267,734,qs),
(333,734,o),
(416,631,o),
(423,528,q),
(398,463,o)
);
}
);
vertWidth = 1000;
width = 540;
},
{
associatedMasterId = m01;
layerId = m004;
shapes = (
{
closed = 1;
nodes = (
(85,-17,o),
(88,1,o),
(98,21,cs),
(112,49,o),
(131,61,o),
(150,50,cs),
(163,43,o),
(163,34,o),
(182,30,cs),
(257,18,o),
(319,68,o),
(359,117,cs),
(409,177,o),
(435,292,o),
(433,368,cs),
(428,512,o),
(385,621,o),
(268,620,cs),
(169,619,o),
(122,528,o),
(123,432,cs),
(124,352,o),
(167,281,o),
(247,278,cs),
(285,277,o),
(321,286,o),
(367,307,cs),
(375,311,o),
(391,309,o),
(395,301,c),
(363,258,o),
(293,232,o),
(247,232,cs),
(152,232,o),
(50,298,o),
(51,431,cs),
(52,566,o),
(149,654,o),
(257,659,cs),
(452,668,o),
(510,502,o),
(505,347,cs),
(496,90,o),
(290,-64,o),
(108,-22,cs)
);
}
);
width = 550;
},
{
associatedMasterId = m01;
layerId = "9FB65B7D-E876-4C32-B109-027CC8E5362E";
width = 600;
},
{
associatedMasterId = m01;
layerId = "E1F5B15C-0300-415E-9309-8D7CB1E74E00";
shapes = (
{
closed = 1;
nodes = (
(261,109,o),
(311,167,q),
(312,169,o),
(306,175,o),
(303,175,qs),
(301,175,o),
(300,174,qs),
(275,153,o),
(235,137,o),
(209,137,qs),
(156,137,o),
(99,208,o),
(99,263,qs),
(99,318,o),
(153,380,o),
(201,380,qs),
(254,380,o),
(323,307,o),
(354,199,o),
(354,146,qs),
(354,70,o),
(287,-90,o),
(155,-226,o),
(61,-264,qs),
(57,-266,o),
(62,-276,o),
(65,-275,qs),
(174,-242,o),
(334,-103,o),
(418,75,o),
(418,166,qs),
(418,271,o),
(309,399,o),
(217,399,qs),
(166,399,o),
(83,359,o),
(35,289,o),
(35,244,qs),
(35,191,o),
(105,109,o),
(177,109,qs)
);
}
);
userData = {
assembly = "NPUSHB[ ]	/* 39 values pushed */
33 1 2 1 1 74 0 2 4 1 3 2 3 99 0 1 1 0 95 0 0 0 59 1 76 0 0 0 40 0 39 31 29 25 23 37 5 9 21 
CALL[ ]	/* CallFunction */";
};
width = 465;
},
{
associatedMasterId = m01;
layerId = "DE6A1D53-F8D8-4C43-A050-7245D5956C83";
shapes = (
{
closed = 1;
nodes = (
(474,220,o),
(474,317,o),
(474,317,c),
(474,317,o),
(433,239,o),
(345,222,cs),
(215,197,o),
(76,260,o),
(78,455,cs),
(80,613,o),
(215,702,o),
(332,699,cs),
(486,695,o),
(553,579,o),
(579,499,cs),
(626,353,o),
(589,178,o),
(551,99,cs),
(495,-18,o),
(405,-69,o),
(340,-77,cs),
(221,-92,o),
(142,-57,o),
(110,7,cs),
(76,75,o),
(125,175,o),
(214,144,cs),
(282,120,o),
(279,33,o),
(231,12,cs),
(190,-6,o),
(252,-38,o),
(288,-39,cs),
(370,-41,o),
(426,16,o),
(453,131,cs)
);
},
{
closed = 1;
nodes = (
(415,277,o),
(474,367,o),
(469,462,cs),
(462,590,o),
(415,655,o),
(331,656,cs),
(250,657,o),
(203,566,o),
(205,458,cs),
(207,358,o),
(253,267,o),
(337,272,cs)
);
}
);
vertWidth = 1000;
width = 680;
},
{
associatedMasterId = m01;
layerId = "89FD43B6-18CB-4776-8769-3926151FEED2";
shapes = (
{
closed = 1;
nodes = (
(356,203,o),
(254,122,o),
(187,122,qs),
(168,122,o),
(128,131,o),
(108,141,qs),
(101,144,o),
(99,138,qs),
(81,94,ls),
(79,89,o),
(84,86,qs),
(108,74,o),
(158,65,o),
(183,65,qs),
(264,65,o),
(380,138,o),
(454,260,o),
(490,408,o),
(490,483,qs),
(490,588,o),
(430,724,o),
(328,791,o),
(265,790,qs),
(203,789,o),
(103,730,o),
(45,624,o),
(45,554,qs),
(45,494,o),
(91,396,o),
(180,338,o),
(243,338,qs),
(302,338,o),
(392,392,o),
(424,439,q),
(418,346,o)
);
},
{
closed = 1;
nodes = (
(308,396,o),
(251,396,qs),
(190,396,o),
(110,475,o),
(110,551,qs),
(110,602,o),
(148,685,o),
(219,734,o),
(267,734,qs),
(333,734,o),
(416,631,o),
(423,528,q),
(398,463,o)
);
}
);
vertWidth = 1000;
width = 540;
},
{
associatedMasterId = m01;
layerId = "74444AD4-66D4-411F-AA76-68CED17108F2";
shapes = (
{
closed = 1;
nodes = (
(356,203,o),
(254,122,o),
(187,122,qs),
(168,122,o),
(128,131,o),
(108,141,qs),
(101,144,o),
(99,138,qs),
(81,94,ls),
(79,89,o),
(84,86,qs),
(108,74,o),
(158,65,o),
(183,65,qs),
(264,65,o),
(380,138,o),
(454,260,o),
(490,408,o),
(490,483,qs),
(490,588,o),
(430,724,o),
(328,791,o),
(265,790,qs),
(203,789,o),
(103,730,o),
(45,624,o),
(45,554,qs),
(45,494,o),
(91,396,o),
(180,338,o),
(243,338,qs),
(302,338,o),
(392,392,o),
(424,439,q),
(418,346,o)
);
},
{
closed = 1;
nodes = (
(308,396,o),
(251,396,qs),
(190,396,o),
(110,475,o),
(110,551,qs),
(110,602,o),
(148,685,o),
(219,734,o),
(267,734,qs),
(333,734,o),
(416,631,o),
(423,528,q),
(398,463,o)
);
}
);
vertWidth = 1000;
width = 540;
}
);
unicode = 57;
}
{
glyphname = less;
layers = (
{
layerId = m01;
shapes = (
{
closed = 1;
nodes = (
(127.725,277,o),
(140.475,285.362,o),
(157.725,297,cs),
(489.725,521,l),
(478.725,538,o),
(448.519,557.785,o),
(421.6,539.635,cs),
(61.725,297,ls),
(52.756,290.953,o),
(52.76,266.052,o),
(61.725,260,cs),
(421.907,16.826,ls),
(448.281,-0.98,o),
(478.725,18,o),
(489.725,36,c),
(157.725,260,ls),
(140.475,271.638,o),
(127.725,279,o),
(119.725,278,c)
);
}
);
width = 550;
},
{
associatedMasterId = m01;
layerId = "B95609A4-E58B-4ADE-9779-E0FAA25E41BF";
width = 600;
},
{
associatedMasterId = m01;
layerId = "653FFB37-5C59-4C66-B2B8-3358A1461268";
width = 600;
},
{
associatedMasterId = m01;
layerId = "5494C454-2D9E-4789-B866-396A871BBCCD";
shapes = (
{
closed = 1;
nodes = (
(400,-112,l),
(340,-150,l),
(92,299,l),
(340,750,l),
(400,712,l),
(180,298,l)
);
}
);
vertWidth = 1000;
width = 500;
},
{
associatedMasterId = m01;
layerId = "FA6D07F3-67AB-4197-AE0F-C6DA16090780";
shapes = (
{
closed = 1;
nodes = (
(124,354,qs),
(520,110,l),
(520,174,l),
(166,387,l),
(520,596,l),
(520,660,l),
(124,422,ls),
(110,414,o),
(110,398,qs),
(110,378,ls),
(110,362,o)
);
}
);
vertWidth = 1000;
width = 650;
},
{
associatedMasterId = m01;
layerId = "F016DAA5-6277-48DB-85B7-A16E4FBC1837";
shapes = (
{
closed = 1;
nodes = (
(124,354,qs),
(520,110,l),
(520,174,l),
(166,387,l),
(520,596,l),
(520,660,l),
(124,422,ls),
(110,414,o),
(110,398,qs),
(110,378,ls),
(110,362,o)
);
}
);
vertWidth = 1000;
width = 650;
},
{
associatedMasterId = m01;
layerId = m004;
width = 600;
},
{
associatedMasterId = m01;
layerId = "02B6E136-E26C-4FB1-9745-3EE4D53BAB3B";
width = 600;
},
{
associatedMasterId = m01;
layerId = "F6CF65AC-3B94-4216-863B-1E64C1C937E4";
width = 600;
},
{
associatedMasterId = m01;
layerId = "5EDE3A21-55E4-48AF-94C3-33598E372A6F";
shapes = (
{
closed = 1;
nodes = (
(400,-112,l),
(340,-150,l),
(92,299,l),
(340,750,l),
(400,712,l),
(180,298,l)
);
}
);
vertWidth = 1000;
width = 500;
},
{
associatedMasterId = m01;
layerId = "B2857A43-EC90-419D-8E88-68866D6ACA0B";
shapes = (
{
closed = 1;
nodes = (
(124,354,qs),
(520,110,l),
(520,174,l),
(166,387,l),
(520,596,l),
(520,660,l),
(124,422,ls),
(110,414,o),
(110,398,qs),
(110,378,ls),
(110,362,o)
);
}
);
vertWidth = 1000;
width = 650;
},
{
associatedMasterId = m01;
layerId = "DF237D46-1E4F-46C9-B153-93986316DD90";
shapes = (
{
closed = 1;
nodes = (
(124,354,qs),
(520,110,l),
(520,174,l),
(166,387,l),
(520,596,l),
(520,660,l),
(124,422,ls),
(110,414,o),
(110,398,qs),
(110,378,ls),
(110,362,o)
);
}
);
vertWidth = 1000;
width = 650;
}
);
unicode = 60;
}
{
glyphname = E;
kernRight = E;
layers = (
{
layerId = m01;
shapes = (
{
closed = 1;
nodes = (
(488.95,-23.067,o),
(494.835,-15.994,o),
(495.95,5,cs),
(501.95,118,ls),
(502.95,137,o),
(480.708,138.345,o),
(477.95,126,cs),
(456.95,32,o),
(438.95,23,o),
(327.95,23,cs),
(160.95,23,l),
(174.931,299,l),
(299.95,299,ls),
(346.95,299,o),
(368.95,282,o),
(383.95,252,cs),
(388.95,242,o),
(407.825,239.006,o),
(408.95,260,cs),
(414.95,372,ls),
(416.075,392.994,o),
(395.95,393,o),
(389.95,382,cs),
(372.95,350,o),
(347.95,338,o),
(298.95,338,cs),
(176.907,338,l),
(187.95,556,ls),
(188.963,576,o),
(191.95,603.202,o),
(158.95,609,c),
(357.95,609,ls),
(468.95,609,o),
(479.95,594,o),
(496.95,503,cs),
(498.95,491,o),
(521.95,489,o),
(522.95,508,cs),
(529.054,624.995,ls),
(530.045,643.995,o),
(520.95,651.072,o),
(504.95,651,cs),
(62.95,649,ls),
(57.95,648.978,o),
(48.95,649,o),
(45.95,642,cs),
(43.308,635.834,o),
(45.95,629,o),
(52.95,627,cs),
(81.8,618.757,o),
(122.49,600.372,o),
(120.636,565.016,cs),
(93.95,56,ls),
(92.535,29.019,o),
(56.95,11,o),
(36.95,6,cs),
(31.726,4.694,o),
(24.95,3,o),
(17.95,1,cs),
(11.95,-1,o),
(10.593,-7.7,o),
(11.388,-12.173,cs),
(12.623,-19.125,o),
(17.95,-20.978,o),
(22.95,-21,cs),
(473.95,-23,ls)
);
}
);
width = 547.95;
},
{
associatedMasterId = m01;
layerId = "B95609A4-E58B-4ADE-9779-E0FAA25E41BF";
shapes = (
{
closed = 1;
nodes = (
(397,355,l),
(391,318,o),
(364,299,o),
(335,300,qs),
(175,300,l),
(175,545,l),
(340,544,ls),
(387,544,o),
(426,523,o),
(436,477,q),
(447,477,l),
(447,573,l),
(34,573,l),
(34,555,l),
(71,555,o),
(99,517,o),
(99,465,qs),
(99,106,ls),
(99,49,o),
(68,16,o),
(34,17,q),
(34,0,l),
(447,0,l),
(473,107,l),
(456,106,l),
(452,96,o),
(443,80,o),
(439,73,qs),
(420,41,o),
(369,27,o),
(317,28,qs),
(217,27,ls),
(193,27,o),
(175,45,o),
(175,67,qs),
(175,272,l),
(317,271,ls),
(359,271,o),
(387,255,o),
(395,224,q),
(395,222,o),
(396,218,o),
(397,217,q),
(414,217,l),
(414,356,l),
(414,356,l)
);
}
);
userData = {
assembly = "RTG[ ]	/* RoundToGrid */
SVTCA[1]	/* SetFreedomAndProjectionVectorToAxis */
NPUSHB[ ]	/* 3 values pushed */
33 34 2 
PUSHB[ ]	/* 1 value pushed */
0 
NPUSHW[ ]	/* 4 values pushed */
11 22 35 0 
CALL[ ]	/* CallFunction */
NPUSHB[ ]	/* 3 values pushed */
1 45 2 
NPUSHB[ ]	/* 2 values pushed */
44 1 
NPUSHW[ ]	/* 4 values pushed */
17 0 2 0 
CALL[ ]	/* CallFunction */
NPUSHB[ ]	/* 4 values pushed */
10 39 40 3 
NPUSHB[ ]	/* 2 values pushed */
28 1 
NPUSHW[ ]	/* 4 values pushed */
75 9 27 0 
CALL[ ]	/* CallFunction */
IUP[1]	/* InterpolateUntPts */
RTG[ ]	/* RoundToGrid */
SVTCA[0]	/* SetFreedomAndProjectionVectorToAxis */
NPUSHB[ ]	/* 2 values pushed */
33 1 
PUSHB[ ]	/* 1 value pushed */
0 
NPUSHW[ ]	/* 4 values pushed */
17 32 31 0 
CALL[ ]	/* CallFunction */
PUSHB[ ]	/* 1 value pushed */
0 
NPUSHB[ ]	/* 2 values pushed */
23 1 
NPUSHW[ ]	/* 4 values pushed */
17 24 22 0 
CALL[ ]	/* CallFunction */
NPUSHB[ ]	/* 2 values pushed */
33 1 
NPUSHB[ ]	/* 2 values pushed */
39 1 
NPUSHW[ ]	/* 4 values pushed */
27 32 38 0 
CALL[ ]	/* CallFunction */
NPUSHB[ ]	/* 2 values pushed */
41 1 
NPUSHB[ ]	/* 2 values pushed */
9 1 
NPUSHW[ ]	/* 4 values pushed */
27 40 8 0 
CALL[ ]	/* CallFunction */
NPUSHB[ ]	/* 2 values pushed */
14 1 
NPUSHB[ ]	/* 2 values pushed */
23 1 
NPUSHW[ ]	/* 4 values pushed */
27 13 22 0 
CALL[ ]	/* CallFunction */
PUSHW[ ]	/* 1 value pushed */
0 
PUSHB[ ]	/* 1 value pushed */
0 
MIAP[1]	/* MoveIndirectAbsPt */
NPUSHB[ ]	/* 3 values pushed */
44 45 2 
PUSHB[ ]	/* 1 value pushed */
1 
LOOPCALL[ ]	/* LoopAndCallFunction */
PUSHW[ ]	/* 1 value pushed */
32 
PUSHB[ ]	/* 1 value pushed */
1 
MIAP[1]	/* MoveIndirectAbsPt */
NPUSHB[ ]	/* 5 values pushed */
31 33 38 39 4 
PUSHB[ ]	/* 1 value pushed */
1 
LOOPCALL[ ]	/* LoopAndCallFunction */
PUSHW[ ]	/* 1 value pushed */
22 
PUSHB[ ]	/* 1 value pushed */
4 
MIAP[1]	/* MoveIndirectAbsPt */
NPUSHB[ ]	/* 5 values pushed */
13 14 23 24 4 
PUSHB[ ]	/* 1 value pushed */
1 
LOOPCALL[ ]	/* LoopAndCallFunction */
IUP[0]	/* InterpolateUntPts */";
};
width = 510;
},
{
associatedMasterId = m01;
layerId = "653FFB37-5C59-4C66-B2B8-3358A1461268";
shapes = (
{
closed = 1;
nodes = (
(464,89,o),
(400,21,o),
(352,21,qs),
(272,21,ls),
(238,21,o),
(206,31,o),
(194,57,o),
(194,85,qs),
(194,315,l),
(313,315,ls),
(363,315,o),
(406,277,o),
(406,233,qs),
(406,231,o),
(418,231,o),
(418,233,qs),
(417,281,ls),
(416,296,o),
(416,325,qs),
(417,406,ls),
(417,408,o),
(405,408,o),
(405,406,qs),
(405,368,o),
(364,336,o),
(316,336,qs),
(194,336,l),
(194,539,ls),
(194,566,o),
(207,593,o),
(240,604,o),
(275,604,qs),
(336,604,ls),
(384,604,o),
(442,545,o),
(445,492,q),
(446,489,o),
(456,490,o),
(456,493,qs),
(454,616,ls),
(454,625,o),
(445,625,qs),
(43,625,ls),
(41,625,o),
(41,613,o),
(43,613,qs),
(81,613,o),
(116,602,o),
(129,574,o),
(129,544,qs),
(129,81,ls),
(129,51,o),
(116,22,o),
(81,12,o),
(43,12,qs),
(41,12,o),
(41,0,o),
(43,0,qs),
(462,0,ls),
(471,0,o),
(478,7,o),
(478,15,qs),
(478,84,o),
(487,147,qs),
(487,149,o),
(482,151,o),
(479,151,qs),
(475,151,o),
(475,149,qs)
);
}
);
userData = {
assembly = "NPUSHB[ ]	/* 16 values pushed */
45 29 2 5 4 52 4 2 7 6 6 1 1 7 3 74 
MPPEM[ ]	/* MeasurePixelPerEm */
PUSHB[ ]	/* 1 value pushed */
24 
LT[ ]	/* LessThan */
IF[ ]	/* If */
NPUSHB[ ]	/* 43 values pushed */
0 2 3 4 4 2 112 0 1 7 0 7 1 112 0 5 0 6 7 5 6 101 0 4 4 3 94 0 3 3 56 75 0 7 7 0 93 0 0 0 57 0 76 
ELSE[ ]	/* Else */
NPUSHB[ ]	/* 41 values pushed */
0 2 3 4 4 2 112 0 1 7 0 7 1 112 0 3 0 4 5 3 4 103 0 5 0 6 7 5 6 101 0 7 7 0 93 0 0 0 57 0 76 
EIF[ ]	/* EndIf */
NPUSHB[ ]	/* 11 values pushed */
52 46 36 55 50 23 34 40 8 9 28 
CALL[ ]	/* CallFunction */";
};
width = 537;
},
{
associatedMasterId = m01;
layerId = "5494C454-2D9E-4789-B866-396A871BBCCD";
shapes = (
{
closed = 1;
nodes = (
(282,56,ls),
(282,-1,o),
(281,-24,o),
(348,-26,cs),
(436,-28,o),
(612,-59,o),
(653,185,c),
(693,185,l),
(684,-70,l),
(65,-70,l),
(65,-26,l),
(144,-27,o),
(155,-16,o),
(155,57,cs),
(155,576,ls),
(155,650,o),
(138,645,o),
(62,645,c),
(62,688,l),
(678,688,l),
(684,445,l),
(642,445,l),
(583,647,o),
(505,645,o),
(348,645,cs),
(292,645,o),
(282,617,o),
(282,571,cs),
(282,346,l),
(334,346,ls),
(432,346,o),
(477,386,o),
(479,493,c),
(522,493,l),
(522,150,l),
(479,150,l),
(476,260,o),
(436,303,o),
(326,303,cs),
(282,303,l)
);
}
);
vertWidth = 1000;
width = 790;
},
{
associatedMasterId = m01;
layerId = "FA6D07F3-67AB-4197-AE0F-C6DA16090780";
shapes = (
{
closed = 1;
nodes = (
(111,80,qs),
(342,80,ls),
(456,80,o),
(516,100,qs),
(522,102,o),
(520,107,q),
(510,152,ls),
(509,157,o),
(503,156,qs),
(477,149,o),
(397,137,o),
(342,137,qs),
(170,137,l),
(170,427,l),
(424,427,ls),
(430,427,o),
(430,433,qs),
(430,477,ls),
(430,483,o),
(424,483,qs),
(170,483,l),
(170,719,l),
(469,719,ls),
(475,719,o),
(475,725,qs),
(475,769,ls),
(475,775,o),
(469,775,qs),
(111,775,ls),
(105,775,o),
(105,769,qs),
(105,86,ls),
(105,80,o)
);
}
);
vertWidth = 1000;
width = 560;
},
{
associatedMasterId = m01;
layerId = "F016DAA5-6277-48DB-85B7-A16E4FBC1837";
shapes = (
{
closed = 1;
nodes = (
(111,80,qs),
(342,80,ls),
(456,80,o),
(516,100,qs),
(522,102,o),
(520,107,q),
(510,152,ls),
(509,157,o),
(503,156,qs),
(477,149,o),
(397,137,o),
(342,137,qs),
(170,137,l),
(170,427,l),
(424,427,ls),
(430,427,o),
(430,433,qs),
(430,477,ls),
(430,483,o),
(424,483,qs),
(170,483,l),
(170,719,l),
(469,719,ls),
(475,719,o),
(475,725,qs),
(475,769,ls),
(475,775,o),
(469,775,qs),
(111,775,ls),
(105,775,o),
(105,769,qs),
(105,86,ls),
(105,80,o)
);
}
);
vertWidth = 1000;
width = 560;
},
{
associatedMasterId = m01;
guides = (
{
angle = 90;
pos = (507,510);
},
{
angle = 90;
pos = (34,642);
}
);
layerId = m004;
shapes = (
{
closed = 1;
nodes = (
(182,609,o),
(179,576,o),
(178,556,cs),
(160,23,l),
(327,23,ls),
(438,23,o),
(449,31,o),
(476,128,cs),
(477,132,o),
(485,137,o),
(493,134,cs),
(501,130,o),
(500,121,o),
(500,118,cs),
(496,5,ls),
(495,-16,o),
(489,-23,o),
(474,-23,cs),
(25,-21,ls),
(20,-21,o),
(13,-21,o),
(11,-14,cs),
(8,-8,o),
(12,-1,o),
(18,1,cs),
(25,3,o),
(32,5,o),
(37,7,cs),
(50,12,o),
(92,29,o),
(93,56,cs),
(111,571,ls),
(112,600,o),
(74,614,o),
(61,620,cs),
(56,622,o),
(49,625,o),
(42,627,cs),
(36,629,o),
(32,636,o),
(35,642,cs),
(39,649,o),
(46,649,o),
(51,649,cs),
(497,651,ls),
(513,651,o),
(519,644,o),
(518,623,cs),
(514,510,ls),
(514,507,o),
(513,498,o),
(505,494,cs),
(497,491,o),
(489,496,o),
(488,500,cs),
(469,597,o),
(458,609,o),
(347,609,cs),
(148,609,l)
);
},
{
closed = 1;
nodes = (
(152,338,l),
(287,338,ls),
(340,338,o),
(367,350,o),
(383,382,cs),
(388,393,o),
(409,393,o),
(408,372,cs),
(404,265,ls),
(403,244,o),
(384,247,o),
(379,257,cs),
(364,287,o),
(337,299,o),
(286,299,cs),
(152,299,l)
);
}
);
width = 548;
},
{
associatedMasterId = m01;
layerId = "8BECD52A-57CF-442E-AA61-CA726DA35925";
shapes = (
{
closed = 1;
nodes = (
(397,355,l),
(391,318,o),
(364,299,o),
(335,300,qs),
(175,300,l),
(175,545,l),
(340,544,ls),
(387,544,o),
(426,523,o),
(436,477,q),
(447,477,l),
(447,573,l),
(34,573,l),
(34,555,l),
(71,555,o),
(99,517,o),
(99,465,qs),
(99,106,ls),
(99,49,o),
(68,16,o),
(34,17,q),
(34,0,l),
(447,0,l),
(473,107,l),
(456,106,l),
(452,96,o),
(443,80,o),
(439,73,qs),
(420,41,o),
(369,27,o),
(317,28,qs),
(217,27,ls),
(193,27,o),
(175,45,o),
(175,67,qs),
(175,272,l),
(317,271,ls),
(359,271,o),
(387,255,o),
(395,224,q),
(395,222,o),
(396,218,o),
(397,217,q),
(414,217,l),
(414,356,l),
(414,356,l)
);
}
);
userData = {
assembly = "RTG[ ]	/* RoundToGrid */
SVTCA[1]	/* SetFreedomAndProjectionVectorToAxis */
NPUSHB[ ]	/* 3 values pushed */
33 34 2 
PUSHB[ ]	/* 1 value pushed */
0 
NPUSHW[ ]	/* 4 values pushed */
11 22 35 0 
CALL[ ]	/* CallFunction */
NPUSHB[ ]	/* 3 values pushed */
1 45 2 
NPUSHB[ ]	/* 2 values pushed */
44 1 
NPUSHW[ ]	/* 4 values pushed */
17 0 2 0 
CALL[ ]	/* CallFunction */
NPUSHB[ ]	/* 4 values pushed */
10 39 40 3 
NPUSHB[ ]	/* 2 values pushed */
28 1 
NPUSHW[ ]	/* 4 values pushed */
75 9 27 0 
CALL[ ]	/* CallFunction */
IUP[1]	/* InterpolateUntPts */
RTG[ ]	/* RoundToGrid */
SVTCA[0]	/* SetFreedomAndProjectionVectorToAxis */
NPUSHB[ ]	/* 2 values pushed */
33 1 
PUSHB[ ]	/* 1 value pushed */
0 
NPUSHW[ ]	/* 4 values pushed */
17 32 31 0 
CALL[ ]	/* CallFunction */
PUSHB[ ]	/* 1 value pushed */
0 
NPUSHB[ ]	/* 2 values pushed */
23 1 
NPUSHW[ ]	/* 4 values pushed */
17 24 22 0 
CALL[ ]	/* CallFunction */
NPUSHB[ ]	/* 2 values pushed */
33 1 
NPUSHB[ ]	/* 2 values pushed */
39 1 
NPUSHW[ ]	/* 4 values pushed */
27 32 38 0 
CALL[ ]	/* CallFunction */
NPUSHB[ ]	/* 2 values pushed */
41 1 
NPUSHB[ ]	/* 2 values pushed */
9 1 
NPUSHW[ ]	/* 4 values pushed */
27 40 8 0 
CALL[ ]	/* CallFunction */
NPUSHB[ ]	/* 2 values pushed */
14 1 
NPUSHB[ ]	/* 2 values pushed */
23 1 
NPUSHW[ ]	/* 4 values pushed */
27 13 22 0 
CALL[ ]	/* CallFunction */
PUSHW[ ]	/* 1 value pushed */
0 
PUSHB[ ]	/* 1 value pushed */
0 
MIAP[1]	/* MoveIndirectAbsPt */
NPUSHB[ ]	/* 3 values pushed */
44 45 2 
PUSHB[ ]	/* 1 value pushed */
1 
LOOPCALL[ ]	/* LoopAndCallFunction */
PUSHW[ ]	/* 1 value pushed */
32 
PUSHB[ ]	/* 1 value pushed */
1 
MIAP[1]	/* MoveIndirectAbsPt */
NPUSHB[ ]	/* 5 values pushed */
31 33 38 39 4 
PUSHB[ ]	/* 1 value pushed */
1 
LOOPCALL[ ]	/* LoopAndCallFunction */
PUSHW[ ]	/* 1 value pushed */
22 
PUSHB[ ]	/* 1 value pushed */
4 
MIAP[1]	/* MoveIndirectAbsPt */
NPUSHB[ ]	/* 5 values pushed */
13 14 23 24 4 
PUSHB[ ]	/* 1 value pushed */
1 
LOOPCALL[ ]	/* LoopAndCallFunction */
IUP[0]	/* InterpolateUntPts */";
};
width = 510;
},
{
associatedMasterId = m01;
layerId = "2156704D-A1EF-48BB-9432-E039F0017266";
shapes = (
{
closed = 1;
nodes = (
(464,89,o),
(400,21,o),
(352,21,qs),
(272,21,ls),
(238,21,o),
(206,31,o),
(194,57,o),
(194,85,qs),
(194,315,l),
(313,315,ls),
(363,315,o),
(406,277,o),
(406,233,qs),
(406,231,o),
(418,231,o),
(418,233,qs),
(417,281,ls),
(416,296,o),
(416,325,qs),
(417,406,ls),
(417,408,o),
(405,408,o),
(405,406,qs),
(405,368,o),
(364,336,o),
(316,336,qs),
(194,336,l),
(194,539,ls),
(194,566,o),
(207,593,o),
(240,604,o),
(275,604,qs),
(336,604,ls),
(384,604,o),
(442,545,o),
(445,492,q),
(446,489,o),
(456,490,o),
(456,493,qs),
(454,616,ls),
(454,625,o),
(445,625,qs),
(43,625,ls),
(41,625,o),
(41,613,o),
(43,613,qs),
(81,613,o),
(116,602,o),
(129,574,o),
(129,544,qs),
(129,81,ls),
(129,51,o),
(116,22,o),
(81,12,o),
(43,12,qs),
(41,12,o),
(41,0,o),
(43,0,qs),
(462,0,ls),
(471,0,o),
(478,7,o),
(478,15,qs),
(478,84,o),
(487,147,qs),
(487,149,o),
(482,151,o),
(479,151,qs),
(475,151,o),
(475,149,qs)
);
}
);
userData = {
assembly = "NPUSHB[ ]	/* 16 values pushed */
45 29 2 5 4 52 4 2 7 6 6 1 1 7 3 74 
MPPEM[ ]	/* MeasurePixelPerEm */
PUSHB[ ]	/* 1 value pushed */
24 
LT[ ]	/* LessThan */
IF[ ]	/* If */
NPUSHB[ ]	/* 43 values pushed */
0 2 3 4 4 2 112 0 1 7 0 7 1 112 0 5 0 6 7 5 6 101 0 4 4 3 94 0 3 3 56 75 0 7 7 0 93 0 0 0 57 0 76 
ELSE[ ]	/* Else */
NPUSHB[ ]	/* 41 values pushed */
0 2 3 4 4 2 112 0 1 7 0 7 1 112 0 3 0 4 5 3 4 103 0 5 0 6 7 5 6 101 0 7 7 0 93 0 0 0 57 0 76 
EIF[ ]	/* EndIf */
NPUSHB[ ]	/* 11 values pushed */
52 46 36 55 50 23 34 40 8 9 28 
CALL[ ]	/* CallFunction */";
};
width = 537;
},
{
associatedMasterId = m01;
layerId = "2968C910-E5C1-4FA7-81BD-2C29F02517D6";
shapes = (
{
closed = 1;
nodes = (
(282,56,ls),
(282,-1,o),
(281,-24,o),
(348,-26,cs),
(436,-28,o),
(612,-59,o),
(653,185,c),
(693,185,l),
(684,-70,l),
(65,-70,l),
(65,-26,l),
(144,-27,o),
(155,-16,o),
(155,57,cs),
(155,576,ls),
(155,650,o),
(138,645,o),
(62,645,c),
(62,688,l),
(678,688,l),
(684,445,l),
(642,445,l),
(583,647,o),
(505,645,o),
(348,645,cs),
(292,645,o),
(282,617,o),
(282,571,cs),
(282,346,l),
(334,346,ls),
(432,346,o),
(477,386,o),
(479,493,c),
(522,493,l),
(522,150,l),
(479,150,l),
(476,260,o),
(436,303,o),
(326,303,cs),
(282,303,l)
);
}
);
vertWidth = 1000;
width = 790;
},
{
associatedMasterId = m01;
layerId = "1C5FC3BE-CE9C-4283-AFAC-5D52727D6675";
shapes = (
{
closed = 1;
nodes = (
(111,80,qs),
(342,80,ls),
(456,80,o),
(516,100,qs),
(522,102,o),
(520,107,q),
(510,152,ls),
(509,157,o),
(503,156,qs),
(477,149,o),
(397,137,o),
(342,137,qs),
(170,137,l),
(170,427,l),
(424,427,ls),
(430,427,o),
(430,433,qs),
(430,477,ls),
(430,483,o),
(424,483,qs),
(170,483,l),
(170,719,l),
(469,719,ls),
(475,719,o),
(475,725,qs),
(475,769,ls),
(475,775,o),
(469,775,qs),
(111,775,ls),
(105,775,o),
(105,769,qs),
(105,86,ls),
(105,80,o)
);
}
);
vertWidth = 1000;
width = 560;
},
{
associatedMasterId = m01;
layerId = "51B4552B-5979-4BBA-A707-7827FB4D1689";
shapes = (
{
closed = 1;
nodes = (
(111,80,qs),
(342,80,ls),
(456,80,o),
(516,100,qs),
(522,102,o),
(520,107,q),
(510,152,ls),
(509,157,o),
(503,156,qs),
(477,149,o),
(397,137,o),
(342,137,qs),
(170,137,l),
(170,427,l),
(424,427,ls),
(430,427,o),
(430,433,qs),
(430,477,ls),
(430,483,o),
(424,483,qs),
(170,483,l),
(170,719,l),
(469,719,ls),
(475,719,o),
(475,725,qs),
(475,769,ls),
(475,775,o),
(469,775,qs),
(111,775,ls),
(105,775,o),
(105,769,qs),
(105,86,ls),
(105,80,o)
);
}
);
vertWidth = 1000;
width = 560;
}
);
metricLeft = D;
unicode = 69;
}
{
glyphname = I;
kernRight = I;
layers = (
{
layerId = m01;
shapes = (
{
closed = 1;
nodes = (
(155.411,554.032,ls),
(157.555,593.976,o),
(125,615,o),
(84,622,cs),
(73,624,o),
(70,635,o),
(75,643,cs),
(78.09,647.945,o),
(85,650,o),
(90,650,cs),
(300,650,ls),
(306,650,o),
(312,649,o),
(315,643,cs),
(318.821,635.358,o),
(313,624,o),
(302,622,cs),
(263,615,o),
(226.672,593.97,o),
(224.388,553.034,cs),
(197.556,71.969,ls),
(195.328,32.03,o),
(229.181,11.964,o),
(269,4,cs),
(279,2,o),
(283.754,-7.492,o),
(279,-17,cs),
(276,-23,o),
(269,-24,o),
(264,-24,cs),
(54,-24,ls),
(47,-24,o),
(41.608,-22.215,o),
(38.6,-16.2,cs),
(35,-9,o),
(40,2,o),
(51,4,cs),
(91,11,o),
(127.391,32.026,o),
(129.535,71.971,cs)
);
}
);
width = 332;
},
{
associatedMasterId = m01;
layerId = "B95609A4-E58B-4ADE-9779-E0FAA25E41BF";
shapes = (
{
closed = 1;
nodes = (
(168,516,o),
(197,555,o),
(233,556,q),
(233,573,l),
(27,573,l),
(27,555,l),
(64,555,o),
(92,518,o),
(92,465,qs),
(92,107,ls),
(92,52,o),
(62,16,o),
(27,17,q),
(27,0,l),
(233,0,l),
(233,16,l),
(197,16,o),
(168,55,o),
(168,108,qs),
(168,465,l),
(168,464,ls)
);
}
);
userData = {
assembly = "RTG[ ]	/* RoundToGrid */
SVTCA[1]	/* SetFreedomAndProjectionVectorToAxis */
NPUSHB[ ]	/* 3 values pushed */
1 20 2 
NPUSHB[ ]	/* 2 values pushed */
11 1 
NPUSHW[ ]	/* 4 values pushed */
75 0 10 0 
CALL[ ]	/* CallFunction */
IUP[1]	/* InterpolateUntPts */
RTG[ ]	/* RoundToGrid */
SVTCA[0]	/* SetFreedomAndProjectionVectorToAxis */
NPUSHB[ ]	/* 2 values pushed */
16 1 
NPUSHB[ ]	/* 2 values pushed */
17 1 
NPUSHW[ ]	/* 4 values pushed */
17 15 14 0 
CALL[ ]	/* CallFunction */
NPUSHB[ ]	/* 2 values pushed */
7 1 
NPUSHB[ ]	/* 2 values pushed */
6 1 
NPUSHW[ ]	/* 4 values pushed */
17 4 5 0 
CALL[ ]	/* CallFunction */
PUSHW[ ]	/* 1 value pushed */
15 
PUSHB[ ]	/* 1 value pushed */
1 
MIAP[1]	/* MoveIndirectAbsPt */
NPUSHB[ ]	/* 4 values pushed */
14 16 17 3 
PUSHB[ ]	/* 1 value pushed */
1 
LOOPCALL[ ]	/* LoopAndCallFunction */
PUSHW[ ]	/* 1 value pushed */
5 
PUSHB[ ]	/* 1 value pushed */
4 
MIAP[1]	/* MoveIndirectAbsPt */
NPUSHB[ ]	/* 4 values pushed */
4 6 7 3 
PUSHB[ ]	/* 1 value pushed */
1 
LOOPCALL[ ]	/* LoopAndCallFunction */
IUP[0]	/* InterpolateUntPts */";
};
width = 260;
},
{
associatedMasterId = m01;
layerId = "653FFB37-5C59-4C66-B2B8-3358A1461268";
shapes = (
{
closed = 1;
nodes = (
(199,542,ls),
(199,572,o),
(212,601,o),
(247,613,o),
(284,613,qs),
(287,613,o),
(287,625,o),
(284,625,qs),
(237,624,ls),
(195,622,o),
(165,622,qs),
(138,622,o),
(96,624,qs),
(47,625,ls),
(44,625,o),
(44,613,o),
(47,613,qs),
(85,613,o),
(120,602,o),
(133,574,o),
(133,544,qs),
(133,81,ls),
(133,51,o),
(120,22,o),
(85,12,o),
(47,12,qs),
(44,12,o),
(44,0,o),
(47,0,qs),
(78,0,o),
(96,1,qs),
(165,2,l),
(236,1,ls),
(254,0,o),
(284,0,qs),
(287,0,o),
(287,12,o),
(284,12,qs),
(246,12,o),
(211,22,o),
(199,51,o),
(199,81,qs)
);
}
);
userData = {
assembly = "MPPEM[ ]	/* MeasurePixelPerEm */
PUSHB[ ]	/* 1 value pushed */
24 
LT[ ]	/* LessThan */
IF[ ]	/* If */
NPUSHB[ ]	/* 23 values pushed */
5 1 3 3 4 93 0 4 4 56 75 2 1 0 0 1 93 0 1 1 57 1 76 
ELSE[ ]	/* Else */
NPUSHB[ ]	/* 21 values pushed */
0 4 5 1 3 0 4 3 103 2 1 0 0 1 93 0 1 1 57 1 76 
EIF[ ]	/* EndIf */
NPUSHB[ ]	/* 9 values pushed */
34 114 23 34 114 18 6 9 26 
CALL[ ]	/* CallFunction */";
};
width = 332;
},
{
associatedMasterId = m01;
layerId = "5494C454-2D9E-4789-B866-396A871BBCCD";
shapes = (
{
closed = 1;
nodes = (
(293,45,ls),
(293,-10,o),
(290,-30,o),
(384,-26,c),
(384,-70,l),
(73,-70,l),
(73,-26,l),
(166,-30,o),
(166,-14,o),
(166,44,cs),
(166,578,ls),
(166,650,o),
(153,645,o),
(74,645,c),
(74,688,l),
(385,688,l),
(385,645,l),
(295,644,o),
(293,649,o),
(293,579,cs)
);
}
);
vertWidth = 1000;
width = 457;
},
{
associatedMasterId = m01;
layerId = "FA6D07F3-67AB-4197-AE0F-C6DA16090780";
shapes = (
{
closed = 1;
nodes = (
(170,80,o),
(170,86,qs),
(170,769,ls),
(170,775,o),
(164,775,qs),
(111,775,ls),
(105,775,o),
(105,769,qs),
(105,86,ls),
(105,80,o),
(111,80,qs),
(164,80,ls)
);
}
);
vertWidth = 1000;
width = 275;
},
{
associatedMasterId = m01;
layerId = "F016DAA5-6277-48DB-85B7-A16E4FBC1837";
shapes = (
{
closed = 1;
nodes = (
(170,80,o),
(170,86,qs),
(170,769,ls),
(170,775,o),
(164,775,qs),
(111,775,ls),
(105,775,o),
(105,769,qs),
(105,86,ls),
(105,80,o),
(111,80,qs),
(164,80,ls)
);
}
);
vertWidth = 1000;
width = 275;
},
{
associatedMasterId = m01;
layerId = m004;
shapes = (
{
closed = 1;
nodes = (
(146,565,l),
(146,594,o),
(113,615,o),
(73,622,cs),
(62,624,o),
(57,635,o),
(63,643,cs),
(66,648,o),
(73,650,o),
(78,650,cs),
(288,650,ls),
(293,650,o),
(300,648,o),
(303,643,cs),
(307,635,o),
(302,624,o),
(291,622,cs),
(251,615,o),
(215,594,o),
(214,564,cs),
(196,62,ls),
(195,32,o),
(229,11,o),
(269,4,cs),
(280,2,o),
(285,-9,o),
(279,-17,cs),
(276,-22,o),
(269,-24,o),
(264,-24,cs),
(54,-24,ls),
(49,-24,o),
(42,-22,o),
(39,-17,cs),
(35,-9,o),
(40,2,o),
(51,4,cs),
(91,11,o),
(127,32,o),
(128,62,c)
);
}
);
width = 332;
},
{
associatedMasterId = m01;
layerId = "5BF15B14-94F5-4757-B93C-E8B09E80D37A";
shapes = (
{
closed = 1;
nodes = (
(168,516,o),
(197,555,o),
(233,556,q),
(233,573,l),
(27,573,l),
(27,555,l),
(64,555,o),
(92,518,o),
(92,465,qs),
(92,107,ls),
(92,52,o),
(62,16,o),
(27,17,q),
(27,0,l),
(233,0,l),
(233,16,l),
(197,16,o),
(168,55,o),
(168,108,qs),
(168,465,l),
(168,464,ls)
);
}
);
userData = {
assembly = "RTG[ ]	/* RoundToGrid */
SVTCA[1]	/* SetFreedomAndProjectionVectorToAxis */
NPUSHB[ ]	/* 3 values pushed */
1 20 2 
NPUSHB[ ]	/* 2 values pushed */
11 1 
NPUSHW[ ]	/* 4 values pushed */
75 0 10 0 
CALL[ ]	/* CallFunction */
IUP[1]	/* InterpolateUntPts */
RTG[ ]	/* RoundToGrid */
SVTCA[0]	/* SetFreedomAndProjectionVectorToAxis */
NPUSHB[ ]	/* 2 values pushed */
16 1 
NPUSHB[ ]	/* 2 values pushed */
17 1 
NPUSHW[ ]	/* 4 values pushed */
17 15 14 0 
CALL[ ]	/* CallFunction */
NPUSHB[ ]	/* 2 values pushed */
7 1 
NPUSHB[ ]	/* 2 values pushed */
6 1 
NPUSHW[ ]	/* 4 values pushed */
17 4 5 0 
CALL[ ]	/* CallFunction */
PUSHW[ ]	/* 1 value pushed */
15 
PUSHB[ ]	/* 1 value pushed */
1 
MIAP[1]	/* MoveIndirectAbsPt */
NPUSHB[ ]	/* 4 values pushed */
14 16 17 3 
PUSHB[ ]	/* 1 value pushed */
1 
LOOPCALL[ ]	/* LoopAndCallFunction */
PUSHW[ ]	/* 1 value pushed */
5 
PUSHB[ ]	/* 1 value pushed */
4 
MIAP[1]	/* MoveIndirectAbsPt */
NPUSHB[ ]	/* 4 values pushed */
4 6 7 3 
PUSHB[ ]	/* 1 value pushed */
1 
LOOPCALL[ ]	/* LoopAndCallFunction */
IUP[0]	/* InterpolateUntPts */";
};
width = 260;
},
{
associatedMasterId = m01;
layerId = "A06E10CF-3320-4C7D-8189-0124F076EC42";
shapes = (
{
closed = 1;
nodes = (
(199,542,ls),
(199,572,o),
(212,601,o),
(247,613,o),
(284,613,qs),
(287,613,o),
(287,625,o),
(284,625,qs),
(237,624,ls),
(195,622,o),
(165,622,qs),
(138,622,o),
(96,624,qs),
(47,625,ls),
(44,625,o),
(44,613,o),
(47,613,qs),
(85,613,o),
(120,602,o),
(133,574,o),
(133,544,qs),
(133,81,ls),
(133,51,o),
(120,22,o),
(85,12,o),
(47,12,qs),
(44,12,o),
(44,0,o),
(47,0,qs),
(78,0,o),
(96,1,qs),
(165,2,l),
(236,1,ls),
(254,0,o),
(284,0,qs),
(287,0,o),
(287,12,o),
(284,12,qs),
(246,12,o),
(211,22,o),
(199,51,o),
(199,81,qs)
);
}
);
userData = {
assembly = "MPPEM[ ]	/* MeasurePixelPerEm */
PUSHB[ ]	/* 1 value pushed */
24 
LT[ ]	/* LessThan */
IF[ ]	/* If */
NPUSHB[ ]	/* 23 values pushed */
5 1 3 3 4 93 0 4 4 56 75 2 1 0 0 1 93 0 1 1 57 1 76 
ELSE[ ]	/* Else */
NPUSHB[ ]	/* 21 values pushed */
0 4 5 1 3 0 4 3 103 2 1 0 0 1 93 0 1 1 57 1 76 
EIF[ ]	/* EndIf */
NPUSHB[ ]	/* 9 values pushed */
34 114 23 34 114 18 6 9 26 
CALL[ ]	/* CallFunction */";
};
width = 332;
},
{
associatedMasterId = m01;
layerId = "36DA4172-7AEA-49CB-B8B6-612AA079F369";
shapes = (
{
closed = 1;
nodes = (
(293,45,ls),
(293,-10,o),
(290,-30,o),
(384,-26,c),
(384,-70,l),
(73,-70,l),
(73,-26,l),
(166,-30,o),
(166,-14,o),
(166,44,cs),
(166,578,ls),
(166,650,o),
(153,645,o),
(74,645,c),
(74,688,l),
(385,688,l),
(385,645,l),
(295,644,o),
(293,649,o),
(293,579,cs)
);
}
);
vertWidth = 1000;
width = 457;
},
{
associatedMasterId = m01;
layerId = "BE558604-FF64-48B6-842F-EAFACD7BB5E9";
shapes = (
{
closed = 1;
nodes = (
(170,80,o),
(170,86,qs),
(170,769,ls),
(170,775,o),
(164,775,qs),
(111,775,ls),
(105,775,o),
(105,769,qs),
(105,86,ls),
(105,80,o),
(111,80,qs),
(164,80,ls)
);
}
);
vertWidth = 1000;
width = 275;
},
{
associatedMasterId = m01;
layerId = "04FF39D8-1BEE-4F34-AD2A-A09FBC07BC53";
shapes = (
{
closed = 1;
nodes = (
(170,80,o),
(170,86,qs),
(170,769,ls),
(170,775,o),
(164,775,qs),
(111,775,ls),
(105,775,o),
(105,769,qs),
(105,86,ls),
(105,80,o),
(111,80,qs),
(164,80,ls)
);
}
);
vertWidth = 1000;
width = 275;
}
);
unicode = 73;
}
{
glyphname = Q;
layers = (
{
layerId = m01;
shapes = (
{
closed = 1;
nodes = (
(600,167,o),
(503,19,o),
(345,19,cs),
(182,19,o),
(108,164,o),
(108,302,cs),
(108,461,o),
(205,608,o),
(363,608,cs),
(512,608,o),
(600,480,o),
(600,323,cs)
);
},
{
closed = 1;
nodes = (
(34,104.009,o),
(158.628,-24.544,o),
(326.22,-29.831,c),
(526.544,-157.659,o),
(734.711,-228.827,o),
(960,-222,cs),
(1078,-219,o),
(1210,-191,o),
(1270,-124,cs),
(1278,-115,o),
(1279,-100,o),
(1268,-96,c),
(1224,-141,o),
(1140,-174,o),
(1001,-178,cs),
(719.356,-186.563,o),
(505.614,-72,o),
(438.164,-13.487,c),
(569.586,30.649,o),
(666.761,158.56,o),
(674,313,cs),
(686,516,o),
(550,656,o),
(373,656,cs),
(182,656,o),
(34,493,o),
(34,292,cs)
);
}
);
width = 702;
}
);
metricLeft = O;
unicode = 81;
}
{
glyphname = asciicircum;
layers = (
{
layerId = m01;
shapes = (
{
closed = 1;
nodes = (
(202,616,c),
(203,606,o),
(203.93,598.561,o),
(213.92,579.887,cs),
(323,376,l),
(341,387,o),
(358.893,414.942,o),
(347,437,cs),
(230,654,ls),
(220.871,670.931,o),
(182.639,671.207,o),
(173,654,cs),
(52,438,ls),
(39.753,416.137,o),
(58,387,o),
(75,376,c),
(189.132,579.806,ls),
(199.634,598.561,o),
(201,606,o)
);
}
);
width = 400;
},
{
associatedMasterId = m01;
layerId = "B95609A4-E58B-4ADE-9779-E0FAA25E41BF";
width = 600;
},
{
associatedMasterId = m01;
layerId = "653FFB37-5C59-4C66-B2B8-3358A1461268";
width = 600;
},
{
associatedMasterId = m01;
layerId = "5494C454-2D9E-4789-B866-396A871BBCCD";
shapes = (
{
closed = 1;
nodes = (
(491,513,l),
(440,471,l),
(254,675,l),
(67,471,l),
(16,513,l),
(253,774,l)
);
}
);
vertWidth = 1000;
width = 500;
},
{
associatedMasterId = m01;
layerId = "FA6D07F3-67AB-4197-AE0F-C6DA16090780";
shapes = (
{
closed = 1;
nodes = (
(249,775,l),
(388,540,l),
(455,540,l),
(281,830,ls),
(275,840,o),
(263,840,qs),
(237,840,ls),
(225,840,o),
(219,830,qs),
(45,540,l),
(110,540,l)
);
}
);
vertWidth = 1000;
width = 500;
},
{
associatedMasterId = m01;
layerId = "F016DAA5-6277-48DB-85B7-A16E4FBC1837";
shapes = (
{
closed = 1;
nodes = (
(249,775,l),
(388,540,l),
(455,540,l),
(281,830,ls),
(275,840,o),
(263,840,qs),
(237,840,ls),
(225,840,o),
(219,830,qs),
(45,540,l),
(110,540,l)
);
}
);
vertWidth = 1000;
width = 500;
},
{
associatedMasterId = m01;
layerId = m004;
width = 600;
},
{
associatedMasterId = m01;
layerId = "9325424B-2C56-4339-9921-C1F667A6779A";
width = 600;
},
{
associatedMasterId = m01;
layerId = "5268D7C3-3DBA-480E-92E2-8E82101DBCC8";
width = 600;
},
{
associatedMasterId = m01;
layerId = "57195733-61E5-4034-9195-93B756FB142F";
shapes = (
{
closed = 1;
nodes = (
(491,513,l),
(440,471,l),
(254,675,l),
(67,471,l),
(16,513,l),
(253,774,l)
);
}
);
vertWidth = 1000;
width = 500;
},
{
associatedMasterId = m01;
layerId = "3F241CCA-B40A-4323-8967-7280A17BA6BE";
shapes = (
{
closed = 1;
nodes = (
(249,775,l),
(388,540,l),
(455,540,l),
(281,830,ls),
(275,840,o),
(263,840,qs),
(237,840,ls),
(225,840,o),
(219,830,qs),
(45,540,l),
(110,540,l)
);
}
);
vertWidth = 1000;
width = 500;
},
{
associatedMasterId = m01;
layerId = "91217EFF-6ABB-44AC-B260-3B9028CEA62C";
shapes = (
{
closed = 1;
nodes = (
(249,775,l),
(388,540,l),
(455,540,l),
(281,830,ls),
(275,840,o),
(263,840,qs),
(237,840,ls),
(225,840,o),
(219,830,qs),
(45,540,l),
(110,540,l)
);
}
);
vertWidth = 1000;
width = 500;
}
);
unicode = 94;
}
{
glyphname = i;
kernRight = i;
layers = (
{
layerId = m01;
shapes = (
{
closed = 1;
nodes = (
(93.112,-5.007,o),
(114,-36,o),
(154,-36,cs),
(203,-36,o),
(244,6,o),
(252,48,cs),
(254,61,o),
(240,64,o),
(234,55,cs),
(218,33,o),
(194,21,o),
(181,21,cs),
(160,21,o),
(156.092,37.994,o),
(157,54,cs),
(179,442,ls),
(179.964,459.002,o),
(164,466,o),
(146,460,cs),
(131,455,o),
(64,408,o),
(32,386,c),
(50,366,o),
(72,364,o),
(98,378,cs),
(111,385,o),
(114,384,o),
(116,383,c),
(95,27,ls)
);
},
{
closed = 1;
nodes = (
(92,612,o),
(97,585,o),
(97,574,cs),
(99,551,o),
(131,550,o),
(143,554,cs),
(168,560,o),
(193,591,o),
(182,617,cs),
(161,666,o),
(70,669,o),
(79,642,cs)
);
}
);
width = 281;
},
{
associatedMasterId = m01;
layerId = "B95609A4-E58B-4ADE-9779-E0FAA25E41BF";
shapes = (
{
closed = 1;
nodes = (
(132,364,l),
(14,353,l),
(14,335,l),
(53,335,o),
(81,319,o),
(81,283,qs),
(81,65,ls),
(81,34,o),
(55,16,o),
(14,17,q),
(14,0,l),
(208,0,l),
(208,16,l),
(171,16,o),
(149,39,o),
(149,66,qs),
(149,364,l),
(149,364,l)
);
},
{
closed = 1;
nodes = (
(98,546,o),
(72,521,o),
(72,503,qs),
(72,485,o),
(98,459,o),
(116,459,qs),
(134,459,o),
(159,485,o),
(159,503,qs),
(159,521,o),
(134,546,o),
(116,547,q),
(116,546,l)
);
}
);
userData = {
assembly = "RTG[ ]	/* RoundToGrid */
SVTCA[1]	/* SetFreedomAndProjectionVectorToAxis */
PUSHB[ ]	/* 1 value pushed */
0 
PUSHB[ ]	/* 1 value pushed */
0 
NPUSHW[ ]	/* 4 values pushed */
87 21 27 0 
CALL[ ]	/* CallFunction */
NPUSHB[ ]	/* 3 values pushed */
1 17 2 
NPUSHB[ ]	/* 2 values pushed */
11 1 
NPUSHW[ ]	/* 4 values pushed */
68 0 10 0 
CALL[ ]	/* CallFunction */
IUP[1]	/* InterpolateUntPts */
RTG[ ]	/* RoundToGrid */
SVTCA[0]	/* SetFreedomAndProjectionVectorToAxis */
NPUSHB[ ]	/* 3 values pushed */
16 17 2 
PUSHB[ ]	/* 1 value pushed */
0 
NPUSHW[ ]	/* 4 values pushed */
27 0 14 0 
CALL[ ]	/* CallFunction */
NPUSHB[ ]	/* 2 values pushed */
30 1 
PUSHB[ ]	/* 1 value pushed */
0 
NPUSHW[ ]	/* 4 values pushed */
88 18 24 0 
CALL[ ]	/* CallFunction */
PUSHB[ ]	/* 1 value pushed */
0 
PUSHB[ ]	/* 1 value pushed */
0 
NPUSHW[ ]	/* 4 values pushed */
17 15 14 0 
CALL[ ]	/* CallFunction */
NPUSHB[ ]	/* 2 values pushed */
7 1 
NPUSHB[ ]	/* 2 values pushed */
6 1 
NPUSHW[ ]	/* 4 values pushed */
17 4 5 0 
CALL[ ]	/* CallFunction */
PUSHW[ ]	/* 1 value pushed */
15 
PUSHB[ ]	/* 1 value pushed */
0 
MIAP[1]	/* MoveIndirectAbsPt */
NPUSHB[ ]	/* 5 values pushed */
0 14 16 17 4 
PUSHB[ ]	/* 1 value pushed */
1 
LOOPCALL[ ]	/* LoopAndCallFunction */
PUSHW[ ]	/* 1 value pushed */
18 
PUSHB[ ]	/* 1 value pushed */
1 
MIAP[1]	/* MoveIndirectAbsPt */
NPUSHB[ ]	/* 2 values pushed */
30 1 
PUSHB[ ]	/* 1 value pushed */
1 
LOOPCALL[ ]	/* LoopAndCallFunction */
PUSHW[ ]	/* 1 value pushed */
5 
PUSHB[ ]	/* 1 value pushed */
4 
MIAP[1]	/* MoveIndirectAbsPt */
NPUSHB[ ]	/* 4 values pushed */
4 6 7 3 
PUSHB[ ]	/* 1 value pushed */
1 
LOOPCALL[ ]	/* LoopAndCallFunction */
IUP[0]	/* InterpolateUntPts */";
};
width = 229;
},
{
associatedMasterId = m01;
layerId = "653FFB37-5C59-4C66-B2B8-3358A1461268";
shapes = (
{
closed = 1;
nodes = (
(157,512,o),
(179,534,o),
(179,554,qs),
(179,574,o),
(157,596,o),
(137,596,qs),
(116,596,o),
(93,574,o),
(93,554,qs),
(93,534,o),
(116,512,o),
(137,512,qs)
);
},
{
closed = 1;
nodes = (
(77,0,o),
(91,1,qs),
(145,2,l),
(199,1,ls),
(213,0,o),
(236,0,qs),
(239,0,o),
(239,12,o),
(236,12,qs),
(209,12,o),
(183,23,o),
(173,51,o),
(173,81,qs),
(173,269,ls),
(173,314,o),
(175,380,o),
(175,387,qs),
(175,390,o),
(169,395,o),
(167,395,qs),
(163,394,l),
(33,334,l),
(30,332,o),
(34,322,o),
(38,322,qs),
(39,322,l),
(66,336,o),
(84,336,qs),
(102,336,o),
(117,304,o),
(117,268,qs),
(117,81,ls),
(117,52,o),
(107,23,o),
(80,12,o),
(53,12,qs),
(51,12,o),
(51,0,o),
(53,0,qs)
);
}
);
userData = {
assembly = "NPUSHB[ ]	/* 59 values pushed */
24 1 2 3 1 74 0 3 1 2 1 3 2 126 0 0 8 1 1 3 0 1 103 4 1 2 2 5 95 7 6 2 5 5 57 5 76 0 0 50 49 48 46 45 43 41 40 23 21 15 13 0 11 0 10 36 9 9 21 
CALL[ ]	/* CallFunction */";
};
width = 273;
},
{
associatedMasterId = m01;
layerId = "5494C454-2D9E-4789-B866-396A871BBCCD";
shapes = (
{
closed = 1;
nodes = (
(79,446,l),
(290,454,l),
(290,48,ls),
(290,-2,o),
(281,-33,o),
(364,-27,c),
(364,-70,l),
(87,-70,l),
(87,-27,l),
(168,-34,o),
(163,3,o),
(163,51,cs),
(163,328,ls),
(163,397,o),
(154,403,o),
(79,403,c)
);
},
{
closed = 1;
nodes = (
(264,698,o),
(306,655,o),
(305,607,cs),
(304,554,o),
(269,517,o),
(214,517,cs),
(164,517,o),
(123,553,o),
(123,607,cs),
(123,655,o),
(164,698,o),
(214,698,cs)
);
}
);
vertWidth = 1000;
width = 438;
},
{
associatedMasterId = m01;
layerId = "FA6D07F3-67AB-4197-AE0F-C6DA16090780";
shapes = (
{
closed = 1;
nodes = (
(146,540,o),
(141,540,qs),
(89,540,ls),
(84,540,o),
(84,535,qs),
(84,85,ls),
(84,80,o),
(89,80,qs),
(141,80,ls),
(146,80,o),
(146,85,qs),
(146,535,ls)
);
},
{
closed = 1;
nodes = (
(170,685,o),
(170,706,qs),
(170,729,o),
(139,760,o),
(116,760,qs),
(92,760,o),
(60,729,o),
(60,706,qs),
(60,685,o),
(92,655,o),
(116,655,qs),
(139,655,o)
);
}
);
vertWidth = 1000;
width = 230;
},
{
associatedMasterId = m01;
layerId = "F016DAA5-6277-48DB-85B7-A16E4FBC1837";
shapes = (
{
closed = 1;
nodes = (
(146,540,o),
(141,540,qs),
(89,540,ls),
(84,540,o),
(84,535,qs),
(84,85,ls),
(84,80,o),
(89,80,qs),
(141,80,ls),
(146,80,o),
(146,85,qs),
(146,535,ls)
);
},
{
closed = 1;
nodes = (
(170,685,o),
(170,706,qs),
(170,729,o),
(139,760,o),
(116,760,qs),
(92,760,o),
(60,729,o),
(60,706,qs),
(60,685,o),
(92,655,o),
(116,655,qs),
(139,655,o)
);
}
);
vertWidth = 1000;
width = 230;
},
{
associatedMasterId = m01;
background = {
shapes = (
{
closed = 1;
nodes = (
(183,592,o),
(184,605,o),
(181,618,cs),
(176,644,o),
(145,673,o),
(115,662,cs),
(89,652,o),
(70,624,o),
(64,590,cs),
(59,564,o),
(64,540,o),
(79,550,cs),
(120,582,o),
(148,592,o),
(160,592,cs)
);
},
{
closed = 1;
nodes = (
(95,384,o),
(92,385,o),
(79,378,cs),
(53,364,o),
(31,366,o),
(13,386,c),
(45,408,o),
(112,455,o),
(127,460,cs),
(145,466,o),
(164,459,o),
(163,442,cs),
(149,56,l),
(86,56,l),
(97,383,l)
);
},
{
closed = 1;
nodes = (
(160,345,l),
(150,59,ls),
(149,43,o),
(146,3,o),
(167,13,cs),
(184,21,o),
(211,56,o),
(227,102,c),
(239,84,l),
(234,47,o),
(201,-31,o),
(144,-31,cs),
(104,-31,o),
(84,0,o),
(85,32,cs),
(96,347,l)
);
}
);
};
layerId = m004;
shapes = (
{
closed = 1;
nodes = (
(103,0,o),
(123,-31,o),
(163,-31,cs),
(212,-31,o),
(253,11,o),
(261,53,cs),
(263,66,o),
(250,69,o),
(244,60,cs),
(228,38,o),
(203,26,o),
(190,26,cs),
(169,26,o),
(165,43,o),
(166,59,cs),
(182,442,ls),
(183,459,o),
(167,466,o),
(149,460,cs),
(134,455,o),
(67,408,o),
(35,386,c),
(53,366,o),
(75,364,o),
(101,378,cs),
(114,385,o),
(117,384,o),
(119,383,c),
(104,32,ls)
);
},
{
closed = 1;
nodes = (
(140,582,o),
(168,592,o),
(180,592,cs),
(203,592,o),
(204,605,o),
(201,618,cs),
(196,644,o),
(165,673,o),
(135,662,cs),
(109,652,o),
(90,624,o),
(84,590,cs),
(79,564,o),
(84,540,o),
(99,550,cs)
);
}
);
width = 277;
},
{
associatedMasterId = m01;
layerId = "163E0334-1071-4447-9549-A7F44F39340C";
shapes = (
{
closed = 1;
nodes = (
(132,364,l),
(14,353,l),
(14,335,l),
(53,335,o),
(81,319,o),
(81,283,qs),
(81,65,ls),
(81,34,o),
(55,16,o),
(14,17,q),
(14,0,l),
(208,0,l),
(208,16,l),
(171,16,o),
(149,39,o),
(149,66,qs),
(149,364,l),
(149,364,l)
);
},
{
closed = 1;
nodes = (
(98,546,o),
(72,521,o),
(72,503,qs),
(72,485,o),
(98,459,o),
(116,459,qs),
(134,459,o),
(159,485,o),
(159,503,qs),
(159,521,o),
(134,546,o),
(116,547,q),
(116,546,l)
);
}
);
userData = {
assembly = "RTG[ ]	/* RoundToGrid */
SVTCA[1]	/* SetFreedomAndProjectionVectorToAxis */
PUSHB[ ]	/* 1 value pushed */
0 
PUSHB[ ]	/* 1 value pushed */
0 
NPUSHW[ ]	/* 4 values pushed */
87 21 27 0 
CALL[ ]	/* CallFunction */
NPUSHB[ ]	/* 3 values pushed */
1 17 2 
NPUSHB[ ]	/* 2 values pushed */
11 1 
NPUSHW[ ]	/* 4 values pushed */
68 0 10 0 
CALL[ ]	/* CallFunction */
IUP[1]	/* InterpolateUntPts */
RTG[ ]	/* RoundToGrid */
SVTCA[0]	/* SetFreedomAndProjectionVectorToAxis */
NPUSHB[ ]	/* 3 values pushed */
16 17 2 
PUSHB[ ]	/* 1 value pushed */
0 
NPUSHW[ ]	/* 4 values pushed */
27 0 14 0 
CALL[ ]	/* CallFunction */
NPUSHB[ ]	/* 2 values pushed */
30 1 
PUSHB[ ]	/* 1 value pushed */
0 
NPUSHW[ ]	/* 4 values pushed */
88 18 24 0 
CALL[ ]	/* CallFunction */
PUSHB[ ]	/* 1 value pushed */
0 
PUSHB[ ]	/* 1 value pushed */
0 
NPUSHW[ ]	/* 4 values pushed */
17 15 14 0 
CALL[ ]	/* CallFunction */
NPUSHB[ ]	/* 2 values pushed */
7 1 
NPUSHB[ ]	/* 2 values pushed */
6 1 
NPUSHW[ ]	/* 4 values pushed */
17 4 5 0 
CALL[ ]	/* CallFunction */
PUSHW[ ]	/* 1 value pushed */
15 
PUSHB[ ]	/* 1 value pushed */
0 
MIAP[1]	/* MoveIndirectAbsPt */
NPUSHB[ ]	/* 5 values pushed */
0 14 16 17 4 
PUSHB[ ]	/* 1 value pushed */
1 
LOOPCALL[ ]	/* LoopAndCallFunction */
PUSHW[ ]	/* 1 value pushed */
18 
PUSHB[ ]	/* 1 value pushed */
1 
MIAP[1]	/* MoveIndirectAbsPt */
NPUSHB[ ]	/* 2 values pushed */
30 1 
PUSHB[ ]	/* 1 value pushed */
1 
LOOPCALL[ ]	/* LoopAndCallFunction */
PUSHW[ ]	/* 1 value pushed */
5 
PUSHB[ ]	/* 1 value pushed */
4 
MIAP[1]	/* MoveIndirectAbsPt */
NPUSHB[ ]	/* 4 values pushed */
4 6 7 3 
PUSHB[ ]	/* 1 value pushed */
1 
LOOPCALL[ ]	/* LoopAndCallFunction */
IUP[0]	/* InterpolateUntPts */";
};
width = 229;
},
{
associatedMasterId = m01;
layerId = "C1D5A0BC-C76D-4D8B-8BD5-41F765757007";
shapes = (
{
closed = 1;
nodes = (
(157,512,o),
(179,534,o),
(179,554,qs),
(179,574,o),
(157,596,o),
(137,596,qs),
(116,596,o),
(93,574,o),
(93,554,qs),
(93,534,o),
(116,512,o),
(137,512,qs)
);
},
{
closed = 1;
nodes = (
(77,0,o),
(91,1,qs),
(145,2,l),
(199,1,ls),
(213,0,o),
(236,0,qs),
(239,0,o),
(239,12,o),
(236,12,qs),
(209,12,o),
(183,23,o),
(173,51,o),
(173,81,qs),
(173,269,ls),
(173,314,o),
(175,380,o),
(175,387,qs),
(175,390,o),
(169,395,o),
(167,395,qs),
(163,394,l),
(33,334,l),
(30,332,o),
(34,322,o),
(38,322,qs),
(39,322,l),
(66,336,o),
(84,336,qs),
(102,336,o),
(117,304,o),
(117,268,qs),
(117,81,ls),
(117,52,o),
(107,23,o),
(80,12,o),
(53,12,qs),
(51,12,o),
(51,0,o),
(53,0,qs)
);
}
);
userData = {
assembly = "NPUSHB[ ]	/* 59 values pushed */
24 1 2 3 1 74 0 3 1 2 1 3 2 126 0 0 8 1 1 3 0 1 103 4 1 2 2 5 95 7 6 2 5 5 57 5 76 0 0 50 49 48 46 45 43 41 40 23 21 15 13 0 11 0 10 36 9 9 21 
CALL[ ]	/* CallFunction */";
};
width = 273;
},
{
associatedMasterId = m01;
layerId = "9978845E-B782-4E03-A1F6-C13E10E85B84";
shapes = (
{
closed = 1;
nodes = (
(79,446,l),
(290,454,l),
(290,48,ls),
(290,-2,o),
(281,-33,o),
(364,-27,c),
(364,-70,l),
(87,-70,l),
(87,-27,l),
(168,-34,o),
(163,3,o),
(163,51,cs),
(163,328,ls),
(163,397,o),
(154,403,o),
(79,403,c)
);
},
{
closed = 1;
nodes = (
(264,698,o),
(306,655,o),
(305,607,cs),
(304,554,o),
(269,517,o),
(214,517,cs),
(164,517,o),
(123,553,o),
(123,607,cs),
(123,655,o),
(164,698,o),
(214,698,cs)
);
}
);
vertWidth = 1000;
width = 438;
},
{
associatedMasterId = m01;
layerId = "4C1FAF59-98A0-46CC-9A79-740593DACED6";
shapes = (
{
closed = 1;
nodes = (
(146,540,o),
(141,540,qs),
(89,540,ls),
(84,540,o),
(84,535,qs),
(84,85,ls),
(84,80,o),
(89,80,qs),
(141,80,ls),
(146,80,o),
(146,85,qs),
(146,535,ls)
);
},
{
closed = 1;
nodes = (
(170,685,o),
(170,706,qs),
(170,729,o),
(139,760,o),
(116,760,qs),
(92,760,o),
(60,729,o),
(60,706,qs),
(60,685,o),
(92,655,o),
(116,655,qs),
(139,655,o)
);
}
);
vertWidth = 1000;
width = 230;
},
{
associatedMasterId = m01;
layerId = "49AC6C7A-EA48-464D-AACB-106884D835F3";
shapes = (
{
closed = 1;
nodes = (
(146,540,o),
(141,540,qs),
(89,540,ls),
(84,540,o),
(84,535,qs),
(84,85,ls),
(84,80,o),
(89,80,qs),
(141,80,ls),
(146,80,o),
(146,85,qs),
(146,535,ls)
);
},
{
closed = 1;
nodes = (
(170,685,o),
(170,706,qs),
(170,729,o),
(139,760,o),
(116,760,qs),
(92,760,o),
(60,729,o),
(60,706,qs),
(60,685,o),
(92,655,o),
(116,655,qs),
(139,655,o)
);
}
);
vertWidth = 1000;
width = 230;
}
);
unicode = 105;
}
{
glyphname = k;
kernRight = k;
layers = (
{
layerId = m01;
shapes = (
{
closed = 1;
nodes = (
(467,-28,o),
(503,26,o),
(512,57,cs),
(516,71,o),
(500,79,o),
(492,68,cs),
(479,50,o),
(459,38,o),
(445,36,cs),
(425,32,o),
(401,45,o),
(384,58,cs),
(332,98,o),
(255,191,o),
(236.799,237.458,c),
(289.799,252.458,o),
(459.877,353.897,o),
(468,427,cs),
(470,445,o),
(444.846,460.723,o),
(419,463,cs),
(398.854,464.775,o),
(382.894,459.024,o),
(380,446,cs),
(376,428,o),
(386,419,o),
(383,406,c),
(370,380,o),
(346,353,o),
(311,325,cs),
(267,289,o),
(218,260,o),
(184,240,c),
(210,167,o),
(284,55,o),
(334,13,cs),
(363,-12,o),
(390,-28,o),
(420,-28,cs)
);
},
{
closed = 1;
nodes = (
(44,594,o),
(67,592,o),
(93,606,cs),
(104,613,o),
(108,612,o),
(111,611,c),
(91,-21,l),
(135,-24,o),
(149.125,-21.005,o),
(151,31,cs),
(174,669,ls),
(174.614,686.018,o),
(160,694,o),
(142,688,cs),
(127,683,o),
(58,636,o),
(25,614,c)
);
}
);
width = 525;
},
{
associatedMasterId = m01;
layerId = "B95609A4-E58B-4ADE-9779-E0FAA25E41BF";
width = 600;
},
{
associatedMasterId = m01;
layerId = "653FFB37-5C59-4C66-B2B8-3358A1461268";
shapes = (
{
closed = 1;
nodes = (
(418,12,o),
(368,81,qs),
(241,256,l),
(299,302,ls),
(344,338,o),
(434,374,o),
(471,374,qs),
(474,374,o),
(474,386,o),
(471,386,qs),
(448,386,o),
(435,385,qs),
(368,384,l),
(295,385,ls),
(281,386,o),
(254,386,qs),
(251,386,o),
(251,374,o),
(254,374,qs),
(311,374,o),
(311,349,qs),
(311,330,o),
(279,305,qs),
(145,197,l),
(145,717,ls),
(145,720,o),
(139,725,o),
(136,725,qs),
(131,724,l),
(6,663,l),
(2,662,o),
(6,652,o),
(9,652,qs),
(11,652,l),
(42,666,o),
(57,666,qs),
(75,666,o),
(89,634,o),
(89,598,qs),
(89,81,ls),
(89,52,o),
(79,23,o),
(53,12,o),
(26,12,qs),
(23,12,o),
(23,0,o),
(26,0,qs),
(49,0,o),
(63,1,qs),
(117,2,l),
(171,1,ls),
(185,0,o),
(208,0,qs),
(211,0,o),
(211,12,o),
(208,12,qs),
(181,12,o),
(155,23,o),
(145,52,o),
(145,81,qs),
(145,181,l),
(195,220,l),
(318,53,ls),
(327,40,o),
(327,31,qs),
(327,12,o),
(277,12,qs),
(275,12,o),
(275,0,o),
(277,0,qs),
(304,0,o),
(320,1,qs),
(392,2,l),
(446,1,ls),
(460,0,o),
(483,0,qs),
(486,0,o),
(486,12,o),
(483,12,qs)
);
}
);
userData = {
assembly = "NPUSHB[ ]	/* 13 values pushed */
44 1 10 8 75 54 17 16 4 2 9 2 74 
MPPEM[ ]	/* MeasurePixelPerEm */
PUSHB[ ]	/* 1 value pushed */
24 
LT[ ]	/* LessThan */
IF[ ]	/* If */
NPUSHB[ ]	/* 36 values pushed */
0 8 10 8 131 13 1 9 9 10 95 12 11 2 10 10 59 75 14 7 3 3 2 2 0 95 6 5 4 1 4 0 0 57 0 76 
ELSE[ ]	/* Else */
NPUSHB[ ]	/* 34 values pushed */
0 8 10 8 131 12 11 2 10 13 1 9 2 10 9 103 14 7 3 3 2 2 0 95 6 5 4 1 4 0 0 57 0 76 
EIF[ ]	/* EndIf */
NPUSHB[ ]	/* 24 values pushed */
78 77 72 70 68 67 66 64 63 61 59 58 38 34 17 33 34 25 34 65 33 15 9 29 
CALL[ ]	/* CallFunction */";
};
width = 491;
},
{
associatedMasterId = m01;
layerId = "5494C454-2D9E-4789-B866-396A871BBCCD";
shapes = (
{
closed = 1;
nodes = (
(461,323,ls),
(519,377,o),
(493,398,o),
(419,392,c),
(419,435,l),
(693,435,l),
(693,391,l),
(633,391,o),
(595,392,o),
(550,349,cs),
(475,278,l),
(623,67,ls),
(637,48,o),
(693,-31,o),
(735,-28,c),
(735,-70,l),
(462,-70,l),
(462,-27,l),
(487,-27,o),
(534,-32,o),
(489,33,cs),
(380,190,l),
(277,94,l),
(277,35,ls),
(277,-18,o),
(275,-27,o),
(343,-27,c),
(343,-70,l),
(72,-70,l),
(72,-27,l),
(143,-30,o),
(150,-18,o),
(150,33,cs),
(150,596,ls),
(150,657,o),
(130,654,o),
(65,655,c),
(65,698,l),
(277,708,l),
(277,152,l)
);
}
);
vertWidth = 1000;
width = 792;
},
{
associatedMasterId = m01;
layerId = "FA6D07F3-67AB-4197-AE0F-C6DA16090780";
shapes = (
{
closed = 1;
nodes = (
(370,540,o),
(367,537,qs),
(189,361,l),
(147,318,l),
(147,795,ls),
(147,800,o),
(142,800,qs),
(90,800,ls),
(85,800,o),
(85,795,qs),
(85,85,ls),
(85,80,o),
(90,80,qs),
(142,80,ls),
(147,80,o),
(147,85,qs),
(147,242,l),
(215,308,l),
(296,202,ls),
(332,156,o),
(386,101,o),
(439,76,o),
(474,75,qs),
(480,75,o),
(480,81,qs),
(480,125,ls),
(480,131,o),
(474,131,qs),
(454,132,o),
(421,149,o),
(381,192,o),
(349,232,qs),
(257,349,l),
(448,534,ls),
(450,536,o),
(448,540,o),
(445,540,qs),
(374,540,ls)
);
}
);
vertWidth = 1000;
width = 485;
},
{
associatedMasterId = m01;
layerId = "F016DAA5-6277-48DB-85B7-A16E4FBC1837";
shapes = (
{
closed = 1;
nodes = (
(370,540,o),
(367,537,qs),
(189,361,l),
(147,318,l),
(147,795,ls),
(147,800,o),
(142,800,qs),
(90,800,ls),
(85,800,o),
(85,795,qs),
(85,85,ls),
(85,80,o),
(90,80,qs),
(142,80,ls),
(147,80,o),
(147,85,qs),
(147,242,l),
(215,308,l),
(296,202,ls),
(332,156,o),
(386,101,o),
(439,76,o),
(474,75,qs),
(480,75,o),
(480,81,qs),
(480,125,ls),
(480,131,o),
(474,131,qs),
(454,132,o),
(421,149,o),
(381,192,o),
(349,232,qs),
(257,349,l),
(448,534,ls),
(450,536,o),
(448,540,o),
(445,540,qs),
(374,540,ls)
);
}
);
vertWidth = 1000;
width = 485;
},
{
associatedMasterId = m01;
layerId = m004;
shapes = (
{
closed = 1;
nodes = (
(134,-21,o),
(120,-24,o),
(76,-21,c),
(96,611,l),
(93,612,o),
(89,613,o),
(78,606,cs),
(52,592,o),
(29,594,o),
(10,614,c),
(43,636,o),
(112,683,o),
(127,688,cs),
(145,694,o),
(160,686,o),
(159,669,cs),
(136,31,ls)
);
},
{
closed = 1;
nodes = (
(220,274,o),
(332,337,o),
(367,405,c),
(370,418,o),
(358,437,o),
(362,451,cs),
(366,464,o),
(380,467,o),
(394,466,cs),
(423,464,o),
(455,446,o),
(453,427,cs),
(444,356,o),
(263,249,o),
(220,239,c),
(208,280,l),
(238,204,o),
(317,98,o),
(369,58,cs),
(386,45,o),
(410,32,o),
(430,36,cs),
(444,38,o),
(464,50,o),
(480,72,c),
(498,61,l),
(489,25,o),
(451,-28,o),
(405,-28,cs),
(375,-28,o),
(348,-12,o),
(319,13,cs),
(269,55,o),
(195,167,o),
(169,240,c)
);
}
);
width = 510;
},
{
associatedMasterId = m01;
layerId = "90548964-E044-43A8-95AD-417905DAD4D5";
width = 600;
},
{
associatedMasterId = m01;
layerId = "82101C59-6E76-4A22-98C1-B2DF1F462450";
shapes = (
{
closed = 1;
nodes = (
(418,12,o),
(368,81,qs),
(241,256,l),
(299,302,ls),
(344,338,o),
(434,374,o),
(471,374,qs),
(474,374,o),
(474,386,o),
(471,386,qs),
(448,386,o),
(435,385,qs),
(368,384,l),
(295,385,ls),
(281,386,o),
(254,386,qs),
(251,386,o),
(251,374,o),
(254,374,qs),
(311,374,o),
(311,349,qs),
(311,330,o),
(279,305,qs),
(145,197,l),
(145,717,ls),
(145,720,o),
(139,725,o),
(136,725,qs),
(131,724,l),
(6,663,l),
(2,662,o),
(6,652,o),
(9,652,qs),
(11,652,l),
(42,666,o),
(57,666,qs),
(75,666,o),
(89,634,o),
(89,598,qs),
(89,81,ls),
(89,52,o),
(79,23,o),
(53,12,o),
(26,12,qs),
(23,12,o),
(23,0,o),
(26,0,qs),
(49,0,o),
(63,1,qs),
(117,2,l),
(171,1,ls),
(185,0,o),
(208,0,qs),
(211,0,o),
(211,12,o),
(208,12,qs),
(181,12,o),
(155,23,o),
(145,52,o),
(145,81,qs),
(145,181,l),
(195,220,l),
(318,53,ls),
(327,40,o),
(327,31,qs),
(327,12,o),
(277,12,qs),
(275,12,o),
(275,0,o),
(277,0,qs),
(304,0,o),
(320,1,qs),
(392,2,l),
(446,1,ls),
(460,0,o),
(483,0,qs),
(486,0,o),
(486,12,o),
(483,12,qs)
);
}
);
userData = {
assembly = "NPUSHB[ ]	/* 13 values pushed */
44 1 10 8 75 54 17 16 4 2 9 2 74 
MPPEM[ ]	/* MeasurePixelPerEm */
PUSHB[ ]	/* 1 value pushed */
24 
LT[ ]	/* LessThan */
IF[ ]	/* If */
NPUSHB[ ]	/* 36 values pushed */
0 8 10 8 131 13 1 9 9 10 95 12 11 2 10 10 59 75 14 7 3 3 2 2 0 95 6 5 4 1 4 0 0 57 0 76 
ELSE[ ]	/* Else */
NPUSHB[ ]	/* 34 values pushed */
0 8 10 8 131 12 11 2 10 13 1 9 2 10 9 103 14 7 3 3 2 2 0 95 6 5 4 1 4 0 0 57 0 76 
EIF[ ]	/* EndIf */
NPUSHB[ ]	/* 24 values pushed */
78 77 72 70 68 67 66 64 63 61 59 58 38 34 17 33 34 25 34 65 33 15 9 29 
CALL[ ]	/* CallFunction */";
};
width = 491;
},
{
associatedMasterId = m01;
layerId = "67B00114-C31D-465B-944F-75476B3C83E6";
shapes = (
{
closed = 1;
nodes = (
(461,323,ls),
(519,377,o),
(493,398,o),
(419,392,c),
(419,435,l),
(693,435,l),
(693,391,l),
(633,391,o),
(595,392,o),
(550,349,cs),
(475,278,l),
(623,67,ls),
(637,48,o),
(693,-31,o),
(735,-28,c),
(735,-70,l),
(462,-70,l),
(462,-27,l),
(487,-27,o),
(534,-32,o),
(489,33,cs),
(380,190,l),
(277,94,l),
(277,35,ls),
(277,-18,o),
(275,-27,o),
(343,-27,c),
(343,-70,l),
(72,-70,l),
(72,-27,l),
(143,-30,o),
(150,-18,o),
(150,33,cs),
(150,596,ls),
(150,657,o),
(130,654,o),
(65,655,c),
(65,698,l),
(277,708,l),
(277,152,l)
);
}
);
vertWidth = 1000;
width = 792;
},
{
associatedMasterId = m01;
layerId = "6A696DF1-6F92-45BC-B841-C2D9E1EB16ED";
shapes = (
{
closed = 1;
nodes = (
(370,540,o),
(367,537,qs),
(189,361,l),
(147,318,l),
(147,795,ls),
(147,800,o),
(142,800,qs),
(90,800,ls),
(85,800,o),
(85,795,qs),
(85,85,ls),
(85,80,o),
(90,80,qs),
(142,80,ls),
(147,80,o),
(147,85,qs),
(147,242,l),
(215,308,l),
(296,202,ls),
(332,156,o),
(386,101,o),
(439,76,o),
(474,75,qs),
(480,75,o),
(480,81,qs),
(480,125,ls),
(480,131,o),
(474,131,qs),
(454,132,o),
(421,149,o),
(381,192,o),
(349,232,qs),
(257,349,l),
(448,534,ls),
(450,536,o),
(448,540,o),
(445,540,qs),
(374,540,ls)
);
}
);
vertWidth = 1000;
width = 485;
},
{
associatedMasterId = m01;
layerId = "0AE4619F-0607-42D3-878C-7CE202FE5A60";
shapes = (
{
closed = 1;
nodes = (
(370,540,o),
(367,537,qs),
(189,361,l),
(147,318,l),
(147,795,ls),
(147,800,o),
(142,800,qs),
(90,800,ls),
(85,800,o),
(85,795,qs),
(85,85,ls),
(85,80,o),
(90,80,qs),
(142,80,ls),
(147,80,o),
(147,85,qs),
(147,242,l),
(215,308,l),
(296,202,ls),
(332,156,o),
(386,101,o),
(439,76,o),
(474,75,qs),
(480,75,o),
(480,81,qs),
(480,125,ls),
(480,131,o),
(474,131,qs),
(454,132,o),
(421,149,o),
(381,192,o),
(349,232,qs),
(257,349,l),
(448,534,ls),
(450,536,o),
(448,540,o),
(445,540,qs),
(374,540,ls)
);
}
);
vertWidth = 1000;
width = 485;
}
);
metricLeft = l;
unicode = 107;
}
{
glyphname = p;
layers = (
{
layerId = m01;
shapes = (
{
closed = 1;
nodes = (
(398,-4,o),
(475,94,o),
(488,209,cs),
(503,339,o),
(447,453,o),
(333,466,cs),
(278.714,472.245,o),
(217.965,447.564,o),
(164.835,402.379,c),
(167,470,l),
(141,483,o),
(107,466,o),
(107,433,cs),
(103.243,335.744,l),
(73.843,295.592,o),
(50.39,248.329,o),
(37,197,cs),
(30,170,o),
(44,162,o),
(52,162,c),
(63.947,201.146,o),
(80.74,237.642,o),
(100.704,270.028,c),
(81,-240,l),
(133,-245,o),
(145,-225,o),
(146,-186,cs),
(163.106,348.371,l),
(212.073,395.525,o),
(267.548,420.67,o),
(316,412,cs),
(391,399,o),
(432,307,o),
(416,195,cs),
(404,113,o),
(362,53,o),
(313,23,cs),
(266,-6,o),
(215,-5,o),
(180,18,c),
(176,12,o),
(171,-2,o),
(186,-12,cs),
(218,-35,o),
(273,-37,o),
(310,-27,cs)
);
}
);
width = 529.88;
},
{
associatedMasterId = m01;
layerId = "B95609A4-E58B-4ADE-9779-E0FAA25E41BF";
shapes = (
{
closed = 1;
nodes = (
(71,-241,o),
(45,-261,o),
(9,-261,q),
(9,-278,l),
(198,-278,l),
(198,-261,l),
(161,-261,o),
(139,-234,o),
(139,-202,qs),
(139,30,l),
(156,17,o),
(184,0,o),
(198,-3,qs),
(210,-7,o),
(233,-11,o),
(246,-11,qs),
(322,-11,o),
(422,96,o),
(422,178,qs),
(422,258,o),
(331,363,o),
(262,363,qs),
(245,363,o),
(215,357,o),
(201,350,qs),
(186,342,o),
(156,320,o),
(139,304,q),
(139,364,l),
(122,364,l),
(9,353,l),
(9,335,l),
(49,335,o),
(71,316,o),
(71,281,qs),
(71,-212,l),
(71,-212,l)
);
},
{
closed = 1;
nodes = (
(149,288,o),
(168,306,o),
(177,312,qs),
(190,321,o),
(219,330,o),
(235,330,qs),
(285,330,o),
(348,237,o),
(348,166,qs),
(348,100,o),
(284,11,o),
(237,11,qs),
(231,11,o),
(218,13,o),
(211,14,qs),
(191,19,o),
(154,40,o),
(139,56,q),
(139,278,l),
(139,277,l)
);
}
);
userData = {
assembly = "RTG[ ]	/* RoundToGrid */
SVTCA[1]	/* SetFreedomAndProjectionVectorToAxis */
PUSHB[ ]	/* 1 value pushed */
0 
PUSHB[ ]	/* 1 value pushed */
0 
NPUSHW[ ]	/* 4 values pushed */
75 17 47 0 
CALL[ ]	/* CallFunction */
NPUSHB[ ]	/* 7 values pushed */
8 26 27 37 38 56 6 
NPUSHB[ ]	/* 3 values pushed */
1 36 2 
NPUSHW[ ]	/* 4 values pushed */
68 7 0 0 
CALL[ ]	/* CallFunction */
IUP[1]	/* InterpolateUntPts */
RTG[ ]	/* RoundToGrid */
SVTCA[0]	/* SetFreedomAndProjectionVectorToAxis */
PUSHB[ ]	/* 1 value pushed */
0 
PUSHB[ ]	/* 1 value pushed */
0 
NPUSHW[ ]	/* 4 values pushed */
17 5 4 0 
CALL[ ]	/* CallFunction */
NPUSHB[ ]	/* 3 values pushed */
7 14 2 
PUSHB[ ]	/* 1 value pushed */
0 
NPUSHW[ ]	/* 4 values pushed */
34 6 50 0 
CALL[ ]	/* CallFunction */
PUSHB[ ]	/* 1 value pushed */
0 
PUSHB[ ]	/* 1 value pushed */
0 
NPUSHW[ ]	/* 4 values pushed */
21 44 20 0 
CALL[ ]	/* CallFunction */
NPUSHB[ ]	/* 2 values pushed */
33 1 
NPUSHB[ ]	/* 2 values pushed */
32 1 
NPUSHW[ ]	/* 4 values pushed */
17 30 31 0 
CALL[ ]	/* CallFunction */
PUSHW[ ]	/* 1 value pushed */
5 
PUSHB[ ]	/* 1 value pushed */
0 
MIAP[1]	/* MoveIndirectAbsPt */
NPUSHB[ ]	/* 7 values pushed */
4 6 7 8 14 50 6 
PUSHB[ ]	/* 1 value pushed */
1 
LOOPCALL[ ]	/* LoopAndCallFunction */
PUSHW[ ]	/* 1 value pushed */
20 
PUSHB[ ]	/* 1 value pushed */
4 
MIAP[1]	/* MoveIndirectAbsPt */
NPUSHB[ ]	/* 3 values pushed */
26 44 2 
PUSHB[ ]	/* 1 value pushed */
1 
LOOPCALL[ ]	/* LoopAndCallFunction */
IUP[0]	/* InterpolateUntPts */";
};
width = 458;
},
{
associatedMasterId = m01;
layerId = "653FFB37-5C59-4C66-B2B8-3358A1461268";
shapes = (
{
closed = 1;
nodes = (
(236,399,o),
(151,313,q),
(150,352,o),
(132,394,o),
(118,394,qs),
(113,394,o),
(111,393,qs),
(0,340,l),
(-3,338,o),
(0,328,o),
(4,328,q),
(6,329,ls),
(37,343,o),
(59,343,qs),
(79,343,o),
(95,312,o),
(95,276,qs),
(95,-194,ls),
(95,-224,o),
(85,-252,o),
(59,-263,o),
(32,-263,qs),
(29,-263,o),
(29,-275,o),
(32,-275,qs),
(55,-275,o),
(69,-274,qs),
(124,-273,l),
(197,-274,ls),
(217,-275,o),
(251,-275,qs),
(253,-275,o),
(253,-263,o),
(251,-263,qs),
(208,-263,o),
(166,-252,o),
(151,-224,o),
(151,-194,qs),
(151,13,l),
(177,-1,o),
(226,-13,o),
(257,-13,qs),
(305,-13,o),
(404,37,o),
(472,140,o),
(472,215,qs),
(472,271,o),
(430,355,o),
(360,399,o),
(319,399,qs)
);
},
{
closed = 1;
nodes = (
(242,8,o),
(179,40,o),
(151,71,q),
(151,296,l),
(182,327,o),
(242,361,o),
(277,361,qs),
(334,361,o),
(408,268,o),
(408,184,qs),
(408,101,o),
(340,8,o),
(287,8,qs)
);
}
);
userData = {
assembly = "NPUSHB[ ]	/* 10 values pushed */
59 58 47 37 10 5 9 5 1 74 
MPPEM[ ]	/* MeasurePixelPerEm */
PUSHB[ ]	/* 1 value pushed */
38 
LT[ ]	/* LessThan */
IF[ ]	/* If */
NPUSHB[ ]	/* 48 values pushed */
0 5 8 9 8 5 9 126 0 6 6 59 75 0 8 8 7 95 10 1 7 7 59 75 11 1 9 9 0 95 0 0 0 65 75 4 1 1 1 2 95 3 1 2 2 61 2 76 
ELSE[ ]	/* Else */
NPUSHB[ ]	/* 51 values pushed */
0 6 7 8 7 6 8 126 0 5 8 9 8 5 9 126 0 8 8 7 95 10 1 7 7 59 75 11 1 9 9 0 95 0 0 0 65 75 4 1 1 1 2 95 3 1 2 2 61 2 76 
EIF[ ]	/* EndIf */
NPUSHB[ ]	/* 24 values pushed */
50 50 0 0 50 62 50 61 56 54 0 49 0 48 54 38 34 17 82 22 38 12 9 27 
CALL[ ]	/* CallFunction */";
};
width = 511;
},
{
associatedMasterId = m01;
layerId = "5494C454-2D9E-4789-B866-396A871BBCCD";
shapes = (
{
closed = 1;
nodes = (
(277,-146,ls),
(277,-218,o),
(280,-222,o),
(366,-223,c),
(366,-266,l),
(71,-266,l),
(71,-223,l),
(146,-223,o),
(150,-215,o),
(150,-145,cs),
(150,311,ls),
(150,371,o),
(147,384,o),
(69,379,c),
(69,422,l),
(277,433,l),
(277,342,l),
(277,342,o),
(312,406,o),
(378,428,cs),
(575,494,o),
(697,348,o),
(694,183,cs),
(691,-9,o),
(541,-115,o),
(373,-72,cs),
(307,-55,o),
(277,-7,o),
(277,-7,c)
);
},
{
closed = 1;
nodes = (
(319,362,o),
(277,265,o),
(277,183,cs),
(277,79,o),
(309,-14,o),
(382,-31,cs),
(538,-67,o),
(568,71,o),
(567,184,cs),
(566,305,o),
(510,430,o),
(375,382,cs)
);
}
);
vertWidth = 1000;
width = 774;
},
{
associatedMasterId = m01;
layerId = "FA6D07F3-67AB-4197-AE0F-C6DA16090780";
shapes = (
{
closed = 1;
nodes = (
(127,540,qs),
(90,540,ls),
(85,540,o),
(85,535,qs),
(85,-110,ls),
(85,-115,o),
(90,-115,qs),
(142,-115,ls),
(147,-115,o),
(147,-110,qs),
(147,123,l),
(170,100,o),
(241,65,o),
(288,65,qs),
(380,65,o),
(486,202,o),
(485,317,qs),
(484,431,o),
(374,555,o),
(282,555,qs),
(238,555,o),
(165,518,o),
(139,498,q),
(132,535,l),
(130,540,o)
);
},
{
closed = 1;
nodes = (
(173,462,o),
(239,497,o),
(277,497,qs),
(350,497,o),
(422,401,o),
(422,313,qs),
(422,222,o),
(343,123,o),
(279,123,qs),
(227,123,o),
(159,181,o),
(147,218,q),
(147,436,l)
);
}
);
vertWidth = 1000;
width = 525;
},
{
associatedMasterId = m01;
layerId = "F016DAA5-6277-48DB-85B7-A16E4FBC1837";
shapes = (
{
closed = 1;
nodes = (
(127,540,qs),
(90,540,ls),
(85,540,o),
(85,535,qs),
(85,-110,ls),
(85,-115,o),
(90,-115,qs),
(142,-115,ls),
(147,-115,o),
(147,-110,qs),
(147,123,l),
(170,100,o),
(241,65,o),
(288,65,qs),
(380,65,o),
(486,202,o),
(485,317,qs),
(484,431,o),
(374,555,o),
(282,555,qs),
(238,555,o),
(165,518,o),
(139,498,q),
(132,535,l),
(130,540,o)
);
},
{
closed = 1;
nodes = (
(173,462,o),
(239,497,o),
(277,497,qs),
(350,497,o),
(422,401,o),
(422,313,qs),
(422,222,o),
(343,123,o),
(279,123,qs),
(227,123,o),
(159,181,o),
(147,218,q),
(147,436,l)
);
}
);
vertWidth = 1000;
width = 525;
},
{
associatedMasterId = m01;
background = {
shapes = (
{
closed = 1;
nodes = (
(128,-245,o),
(138,-225,o),
(140,-186,cs),
(167,451,ls),
(168,468,o),
(145,476,o),
(128,470,cs),
(112,465,o),
(45,418,o),
(13,396,c),
(31,376,o),
(53,374,o),
(79,388,cs),
(92,395,o),
(101,392,o),
(103,391,c),
(76,-240,l)
);
},
{
closed = 1;
nodes = (
(168,0,l),
(198,-32,o),
(263,-38,o),
(305,-27,cs),
(393,-4,o),
(470,94,o),
(483,209,cs),
(498,339,o),
(448,466,o),
(328,466,cs),
(246,466,o),
(164,398,o),
(122,237,c),
(137,202,l),
(184,356,o),
(248,412,o),
(311,412,cs),
(392,412,o),
(427,307,o),
(411,195,cs),
(399,113,o),
(357,53,o),
(308,23,cs),
(257,-9,o),
(206,-9,o),
(163,22,c)
);
}
);
};
layerId = m004;
shapes = (
{
closed = 1;
nodes = (
(128,-245,o),
(140,-225,o),
(141,-186,cs),
(162,470,l),
(136,483,o),
(102,466,o),
(102,433,c),
(76,-240,l)
);
},
{
closed = 1;
nodes = (
(166,-2,o),
(181,-12,cs),
(213,-35,o),
(268,-37,o),
(305,-27,cs),
(393,-4,o),
(470,94,o),
(483,209,cs),
(498,339,o),
(442,453,o),
(328,466,cs),
(215,479,o),
(74,358,o),
(32,197,cs),
(25,170,o),
(39,162,o),
(47,162,c),
(94,316,o),
(216,429,o),
(311,412,cs),
(386,399,o),
(427,307,o),
(411,195,cs),
(399,113,o),
(357,53,o),
(308,23,cs),
(261,-6,o),
(210,-5,o),
(175,18,c),
(171,12,o)
);
}
);
width = 513;
},
{
associatedMasterId = m01;
layerId = "DF84DCE6-C198-46F5-8584-1F0692447ACA";
shapes = (
{
closed = 1;
nodes = (
(71,-241,o),
(45,-261,o),
(9,-261,q),
(9,-278,l),
(198,-278,l),
(198,-261,l),
(161,-261,o),
(139,-234,o),
(139,-202,qs),
(139,30,l),
(156,17,o),
(184,0,o),
(198,-3,qs),
(210,-7,o),
(233,-11,o),
(246,-11,qs),
(322,-11,o),
(422,96,o),
(422,178,qs),
(422,258,o),
(331,363,o),
(262,363,qs),
(245,363,o),
(215,357,o),
(201,350,qs),
(186,342,o),
(156,320,o),
(139,304,q),
(139,364,l),
(122,364,l),
(9,353,l),
(9,335,l),
(49,335,o),
(71,316,o),
(71,281,qs),
(71,-212,l),
(71,-212,l)
);
},
{
closed = 1;
nodes = (
(149,288,o),
(168,306,o),
(177,312,qs),
(190,321,o),
(219,330,o),
(235,330,qs),
(285,330,o),
(348,237,o),
(348,166,qs),
(348,100,o),
(284,11,o),
(237,11,qs),
(231,11,o),
(218,13,o),
(211,14,qs),
(191,19,o),
(154,40,o),
(139,56,q),
(139,278,l),
(139,277,l)
);
}
);
userData = {
assembly = "RTG[ ]	/* RoundToGrid */
SVTCA[1]	/* SetFreedomAndProjectionVectorToAxis */
PUSHB[ ]	/* 1 value pushed */
0 
PUSHB[ ]	/* 1 value pushed */
0 
NPUSHW[ ]	/* 4 values pushed */
75 17 47 0 
CALL[ ]	/* CallFunction */
NPUSHB[ ]	/* 7 values pushed */
8 26 27 37 38 56 6 
NPUSHB[ ]	/* 3 values pushed */
1 36 2 
NPUSHW[ ]	/* 4 values pushed */
68 7 0 0 
CALL[ ]	/* CallFunction */
IUP[1]	/* InterpolateUntPts */
RTG[ ]	/* RoundToGrid */
SVTCA[0]	/* SetFreedomAndProjectionVectorToAxis */
PUSHB[ ]	/* 1 value pushed */
0 
PUSHB[ ]	/* 1 value pushed */
0 
NPUSHW[ ]	/* 4 values pushed */
17 5 4 0 
CALL[ ]	/* CallFunction */
NPUSHB[ ]	/* 3 values pushed */
7 14 2 
PUSHB[ ]	/* 1 value pushed */
0 
NPUSHW[ ]	/* 4 values pushed */
34 6 50 0 
CALL[ ]	/* CallFunction */
PUSHB[ ]	/* 1 value pushed */
0 
PUSHB[ ]	/* 1 value pushed */
0 
NPUSHW[ ]	/* 4 values pushed */
21 44 20 0 
CALL[ ]	/* CallFunction */
NPUSHB[ ]	/* 2 values pushed */
33 1 
NPUSHB[ ]	/* 2 values pushed */
32 1 
NPUSHW[ ]	/* 4 values pushed */
17 30 31 0 
CALL[ ]	/* CallFunction */
PUSHW[ ]	/* 1 value pushed */
5 
PUSHB[ ]	/* 1 value pushed */
0 
MIAP[1]	/* MoveIndirectAbsPt */
NPUSHB[ ]	/* 7 values pushed */
4 6 7 8 14 50 6 
PUSHB[ ]	/* 1 value pushed */
1 
LOOPCALL[ ]	/* LoopAndCallFunction */
PUSHW[ ]	/* 1 value pushed */
20 
PUSHB[ ]	/* 1 value pushed */
4 
MIAP[1]	/* MoveIndirectAbsPt */
NPUSHB[ ]	/* 3 values pushed */
26 44 2 
PUSHB[ ]	/* 1 value pushed */
1 
LOOPCALL[ ]	/* LoopAndCallFunction */
IUP[0]	/* InterpolateUntPts */";
};
width = 458;
},
{
associatedMasterId = m01;
layerId = "83532FF0-9519-426E-B767-FABA90D81867";
shapes = (
{
closed = 1;
nodes = (
(236,399,o),
(151,313,q),
(150,352,o),
(132,394,o),
(118,394,qs),
(113,394,o),
(111,393,qs),
(0,340,l),
(-3,338,o),
(0,328,o),
(4,328,q),
(6,329,ls),
(37,343,o),
(59,343,qs),
(79,343,o),
(95,312,o),
(95,276,qs),
(95,-194,ls),
(95,-224,o),
(85,-252,o),
(59,-263,o),
(32,-263,qs),
(29,-263,o),
(29,-275,o),
(32,-275,qs),
(55,-275,o),
(69,-274,qs),
(124,-273,l),
(197,-274,ls),
(217,-275,o),
(251,-275,qs),
(253,-275,o),
(253,-263,o),
(251,-263,qs),
(208,-263,o),
(166,-252,o),
(151,-224,o),
(151,-194,qs),
(151,13,l),
(177,-1,o),
(226,-13,o),
(257,-13,qs),
(305,-13,o),
(404,37,o),
(472,140,o),
(472,215,qs),
(472,271,o),
(430,355,o),
(360,399,o),
(319,399,qs)
);
},
{
closed = 1;
nodes = (
(242,8,o),
(179,40,o),
(151,71,q),
(151,296,l),
(182,327,o),
(242,361,o),
(277,361,qs),
(334,361,o),
(408,268,o),
(408,184,qs),
(408,101,o),
(340,8,o),
(287,8,qs)
);
}
);
userData = {
assembly = "NPUSHB[ ]	/* 10 values pushed */
59 58 47 37 10 5 9 5 1 74 
MPPEM[ ]	/* MeasurePixelPerEm */
PUSHB[ ]	/* 1 value pushed */
38 
LT[ ]	/* LessThan */
IF[ ]	/* If */
NPUSHB[ ]	/* 48 values pushed */
0 5 8 9 8 5 9 126 0 6 6 59 75 0 8 8 7 95 10 1 7 7 59 75 11 1 9 9 0 95 0 0 0 65 75 4 1 1 1 2 95 3 1 2 2 61 2 76 
ELSE[ ]	/* Else */
NPUSHB[ ]	/* 51 values pushed */
0 6 7 8 7 6 8 126 0 5 8 9 8 5 9 126 0 8 8 7 95 10 1 7 7 59 75 11 1 9 9 0 95 0 0 0 65 75 4 1 1 1 2 95 3 1 2 2 61 2 76 
EIF[ ]	/* EndIf */
NPUSHB[ ]	/* 24 values pushed */
50 50 0 0 50 62 50 61 56 54 0 49 0 48 54 38 34 17 82 22 38 12 9 27 
CALL[ ]	/* CallFunction */";
};
width = 511;
},
{
associatedMasterId = m01;
layerId = "D1580315-BB81-480A-8662-8CE33E54C8B4";
shapes = (
{
closed = 1;
nodes = (
(277,-146,ls),
(277,-218,o),
(280,-222,o),
(366,-223,c),
(366,-266,l),
(71,-266,l),
(71,-223,l),
(146,-223,o),
(150,-215,o),
(150,-145,cs),
(150,311,ls),
(150,371,o),
(147,384,o),
(69,379,c),
(69,422,l),
(277,433,l),
(277,342,l),
(277,342,o),
(312,406,o),
(378,428,cs),
(575,494,o),
(697,348,o),
(694,183,cs),
(691,-9,o),
(541,-115,o),
(373,-72,cs),
(307,-55,o),
(277,-7,o),
(277,-7,c)
);
},
{
closed = 1;
nodes = (
(319,362,o),
(277,265,o),
(277,183,cs),
(277,79,o),
(309,-14,o),
(382,-31,cs),
(538,-67,o),
(568,71,o),
(567,184,cs),
(566,305,o),
(510,430,o),
(375,382,cs)
);
}
);
vertWidth = 1000;
width = 774;
},
{
associatedMasterId = m01;
layerId = "EE584F98-6891-4291-B4C7-EADF3A308901";
shapes = (
{
closed = 1;
nodes = (
(127,540,qs),
(90,540,ls),
(85,540,o),
(85,535,qs),
(85,-110,ls),
(85,-115,o),
(90,-115,qs),
(142,-115,ls),
(147,-115,o),
(147,-110,qs),
(147,123,l),
(170,100,o),
(241,65,o),
(288,65,qs),
(380,65,o),
(486,202,o),
(485,317,qs),
(484,431,o),
(374,555,o),
(282,555,qs),
(238,555,o),
(165,518,o),
(139,498,q),
(132,535,l),
(130,540,o)
);
},
{
closed = 1;
nodes = (
(173,462,o),
(239,497,o),
(277,497,qs),
(350,497,o),
(422,401,o),
(422,313,qs),
(422,222,o),
(343,123,o),
(279,123,qs),
(227,123,o),
(159,181,o),
(147,218,q),
(147,436,l)
);
}
);
vertWidth = 1000;
width = 525;
},
{
associatedMasterId = m01;
layerId = "7563683A-7AEC-46E6-9FBF-B7CC44F3CFD3";
shapes = (
{
closed = 1;
nodes = (
(127,540,qs),
(90,540,ls),
(85,540,o),
(85,535,qs),
(85,-110,ls),
(85,-115,o),
(90,-115,qs),
(142,-115,ls),
(147,-115,o),
(147,-110,qs),
(147,123,l),
(170,100,o),
(241,65,o),
(288,65,qs),
(380,65,o),
(486,202,o),
(485,317,qs),
(484,431,o),
(374,555,o),
(282,555,qs),
(238,555,o),
(165,518,o),
(139,498,q),
(132,535,l),
(130,540,o)
);
},
{
closed = 1;
nodes = (
(173,462,o),
(239,497,o),
(277,497,qs),
(350,497,o),
(422,401,o),
(422,313,qs),
(422,222,o),
(343,123,o),
(279,123,qs),
(227,123,o),
(159,181,o),
(147,218,q),
(147,436,l)
);
}
);
vertWidth = 1000;
width = 525;
}
);
metricRight = b;
unicode = 112;
}
{
glyphname = r;
layers = (
{
layerId = m01;
shapes = (
{
closed = 1;
nodes = (
(51,417,o),
(118,464,o),
(133,469,cs),
(151,475,o),
(169,467,o),
(168,450,cs),
(156,210,l),
(183,361,o),
(279,453,o),
(335,469,cs),
(351,474,o),
(359,469,o),
(370,457,cs),
(391,433,o),
(395,394,o),
(368,390,cs),
(358,389,o),
(349,393,o),
(343,396,c),
(276,401,o),
(158,264,o),
(147,21,cs),
(145,-14,o),
(129,-28,o),
(84,-23,c),
(104,392,l),
(101,393,o),
(97,394,o),
(86,387,cs),
(59,373,o),
(37,375,o),
(18,395,c)
);
}
);
width = 387;
},
{
associatedMasterId = m01;
layerId = "B95609A4-E58B-4ADE-9779-E0FAA25E41BF";
shapes = (
{
closed = 1;
nodes = (
(167,279,o),
(196,298,o),
(209,302,q),
(213,302,o),
(220,303,o),
(223,303,qs),
(237,303,o),
(270,291,o),
(287,282,qs),
(292,280,o),
(302,275,o),
(307,273,q),
(334,335,l),
(326,342,o),
(308,353,o),
(298,357,qs),
(290,360,o),
(276,363,o),
(269,363,qs),
(251,363,o),
(198,329,o),
(148,287,q),
(148,364,l),
(131,364,l),
(7,353,l),
(7,335,l),
(52,335,o),
(80,316,o),
(80,278,qs),
(80,84,ls),
(80,44,o),
(61,16,o),
(20,17,q),
(20,0,l),
(207,0,l),
(207,16,l),
(172,16,o),
(148,37,o),
(148,67,qs),
(148,261,l),
(148,260,l)
);
}
);
userData = {
assembly = "RTG[ ]	/* RoundToGrid */
SVTCA[1]	/* SetFreedomAndProjectionVectorToAxis */
NPUSHB[ ]	/* 5 values pushed */
1 17 18 40 4 
NPUSHB[ ]	/* 2 values pushed */
11 1 
NPUSHW[ ]	/* 4 values pushed */
68 0 10 0 
CALL[ ]	/* CallFunction */
IUP[1]	/* InterpolateUntPts */
RTG[ ]	/* RoundToGrid */
SVTCA[0]	/* SetFreedomAndProjectionVectorToAxis */
NPUSHB[ ]	/* 3 values pushed */
17 21 2 
NPUSHB[ ]	/* 2 values pushed */
27 1 
NPUSHW[ ]	/* 4 values pushed */
27 16 14 0 
CALL[ ]	/* CallFunction */
PUSHB[ ]	/* 1 value pushed */
0 
NPUSHB[ ]	/* 2 values pushed */
27 1 
NPUSHW[ ]	/* 4 values pushed */
17 15 14 0 
CALL[ ]	/* CallFunction */
NPUSHB[ ]	/* 2 values pushed */
7 1 
NPUSHB[ ]	/* 2 values pushed */
6 1 
NPUSHW[ ]	/* 4 values pushed */
17 4 5 0 
CALL[ ]	/* CallFunction */
PUSHW[ ]	/* 1 value pushed */
15 
PUSHB[ ]	/* 1 value pushed */
0 
MIAP[1]	/* MoveIndirectAbsPt */
NPUSHB[ ]	/* 7 values pushed */
14 16 17 21 27 34 6 
PUSHB[ ]	/* 1 value pushed */
1 
LOOPCALL[ ]	/* LoopAndCallFunction */
PUSHW[ ]	/* 1 value pushed */
5 
PUSHB[ ]	/* 1 value pushed */
4 
MIAP[1]	/* MoveIndirectAbsPt */
NPUSHB[ ]	/* 4 values pushed */
4 6 7 3 
PUSHB[ ]	/* 1 value pushed */
1 
LOOPCALL[ ]	/* LoopAndCallFunction */
IUP[0]	/* InterpolateUntPts */";
};
width = 344;
},
{
associatedMasterId = m01;
layerId = "653FFB37-5C59-4C66-B2B8-3358A1461268";
shapes = (
{
closed = 1;
nodes = (
(253,395,o),
(205,360,o),
(164,312,q),
(164,313,ls),
(164,349,o),
(144,395,o),
(135,395,qs),
(129,394,l),
(13,339,ls),
(9,337,o),
(12,328,o),
(16,328,qs),
(18,328,l),
(56,343,o),
(72,343,qs),
(91,343,o),
(107,313,o),
(107,279,qs),
(107,81,ls),
(107,51,o),
(98,23,o),
(72,12,o),
(45,12,qs),
(42,12,o),
(42,0,o),
(45,0,qs),
(68,0,o),
(81,1,qs),
(136,2,l),
(210,1,ls),
(229,0,o),
(261,0,qs),
(265,0,o),
(265,12,o),
(261,12,qs),
(219,12,o),
(179,23,o),
(164,51,o),
(164,81,qs),
(164,295,l),
(195,331,o),
(224,353,o),
(237,353,qs),
(248,353,o),
(264,345,o),
(273,337,qs),
(282,330,o),
(295,323,o),
(304,323,qs),
(320,323,o),
(337,341,o),
(337,354,qs),
(337,371,o),
(297,395,o),
(275,395,qs)
);
}
);
userData = {
assembly = "NPUSHB[ ]	/* 11 values pushed */
41 1 0 6 50 14 2 2 0 2 74 
MPPEM[ ]	/* MeasurePixelPerEm */
PUSHB[ ]	/* 1 value pushed */
41 
LT[ ]	/* LessThan */
IF[ ]	/* If */
NPUSHB[ ]	/* 42 values pushed */
0 1 7 6 7 1 6 126 0 6 0 7 6 0 124 0 0 2 7 0 2 124 9 8 2 7 7 59 75 5 1 2 2 3 95 4 1 3 3 57 3 76 
ELSE[ ]	/* Else */
NPUSHB[ ]	/* 35 values pushed */
9 8 2 7 1 7 131 0 1 6 1 131 0 6 0 6 131 0 0 2 0 131 5 1 2 2 3 95 4 1 3 3 57 3 76 
EIF[ ]	/* EndIf */
NPUSHB[ ]	/* 17 values pushed */
0 0 0 54 0 53 38 38 34 17 82 22 36 36 10 9 28 
CALL[ ]	/* CallFunction */";
};
width = 364;
},
{
associatedMasterId = m01;
layerId = "5494C454-2D9E-4789-B866-396A871BBCCD";
shapes = (
{
closed = 1;
nodes = (
(279,40,ls),
(279,-18,o),
(280,-29,o),
(378,-27,c),
(378,-70,l),
(75,-70,l),
(75,-27,l),
(149,-30,o),
(152,-16,o),
(152,43,cs),
(152,315,ls),
(152,385,o),
(141,383,o),
(68,383,c),
(68,426,l),
(265,437,l),
(265,261,l),
(265,261,o),
(294,358,o),
(348,409,cs),
(408,466,o),
(554,458,o),
(559,356,cs),
(564,262,o),
(452,250,o),
(426,299,cs),
(393,360,o),
(441,386,o),
(427,397,cs),
(393,423,o),
(349,376,o),
(322,312,cs),
(297,252,o),
(279,191,o),
(279,190,cs)
);
}
);
vertWidth = 1000;
width = 621;
},
{
associatedMasterId = m01;
layerId = "FA6D07F3-67AB-4197-AE0F-C6DA16090780";
shapes = (
{
closed = 1;
nodes = (
(157,427,o),
(218,494,o),
(262,494,qs),
(285,494,o),
(312,482,qs),
(317,480,o),
(319,485,qs),
(339,534,ls),
(341,538,o),
(337,540,q),
(327,548,o),
(297,554,o),
(283,554,qs),
(248,554,o),
(171,515,o),
(145,477,q),
(137,535,l),
(137,540,o),
(132,540,qs),
(90,540,ls),
(85,540,o),
(85,535,qs),
(85,85,ls),
(85,80,o),
(90,80,qs),
(142,80,ls),
(147,80,o),
(147,85,qs),
(147,375,l)
);
}
);
vertWidth = 1000;
width = 350;
},
{
associatedMasterId = m01;
layerId = "F016DAA5-6277-48DB-85B7-A16E4FBC1837";
shapes = (
{
closed = 1;
nodes = (
(157,427,o),
(218,494,o),
(262,494,qs),
(285,494,o),
(312,482,qs),
(317,480,o),
(319,485,qs),
(339,534,ls),
(341,538,o),
(337,540,q),
(327,548,o),
(297,554,o),
(283,554,qs),
(248,554,o),
(171,515,o),
(145,477,q),
(137,535,l),
(137,540,o),
(132,540,qs),
(90,540,ls),
(85,540,o),
(85,535,qs),
(85,85,ls),
(85,80,o),
(90,80,qs),
(142,80,ls),
(147,80,o),
(147,85,qs),
(147,375,l)
);
}
);
vertWidth = 1000;
width = 350;
},
{
associatedMasterId = m01;
layerId = m004;
shapes = (
{
closed = 1;
nodes = (
(51,417,o),
(118,464,o),
(133,469,cs),
(151,475,o),
(169,467,o),
(168,450,cs),
(156,210,l),
(183,361,o),
(258.258,453.074,o),
(314,469,cs),
(330,474,o),
(338,469,o),
(349,457,cs),
(370,433,o),
(374,394,o),
(347,390,cs),
(337,389,o),
(328,393,o),
(322,396,c),
(255.395,400.971,o),
(158,244,o),
(147,21,cs),
(145,-14,o),
(129,-28,o),
(84,-23,c),
(104,392,l),
(101,393,o),
(97,394,o),
(86,387,cs),
(59,373,o),
(37,375,o),
(18,395,c)
);
}
);
width = 369;
},
{
associatedMasterId = m01;
layerId = "D78AFFE3-F76B-439F-AB95-60D20CE47A5B";
shapes = (
{
closed = 1;
nodes = (
(167,279,o),
(196,298,o),
(209,302,q),
(213,302,o),
(220,303,o),
(223,303,qs),
(237,303,o),
(270,291,o),
(287,282,qs),
(292,280,o),
(302,275,o),
(307,273,q),
(334,335,l),
(326,342,o),
(308,353,o),
(298,357,qs),
(290,360,o),
(276,363,o),
(269,363,qs),
(251,363,o),
(198,329,o),
(148,287,q),
(148,364,l),
(131,364,l),
(7,353,l),
(7,335,l),
(52,335,o),
(80,316,o),
(80,278,qs),
(80,84,ls),
(80,44,o),
(61,16,o),
(20,17,q),
(20,0,l),
(207,0,l),
(207,16,l),
(172,16,o),
(148,37,o),
(148,67,qs),
(148,261,l),
(148,260,l)
);
}
);
userData = {
assembly = "RTG[ ]	/* RoundToGrid */
SVTCA[1]	/* SetFreedomAndProjectionVectorToAxis */
NPUSHB[ ]	/* 5 values pushed */
1 17 18 40 4 
NPUSHB[ ]	/* 2 values pushed */
11 1 
NPUSHW[ ]	/* 4 values pushed */
68 0 10 0 
CALL[ ]	/* CallFunction */
IUP[1]	/* InterpolateUntPts */
RTG[ ]	/* RoundToGrid */
SVTCA[0]	/* SetFreedomAndProjectionVectorToAxis */
NPUSHB[ ]	/* 3 values pushed */
17 21 2 
NPUSHB[ ]	/* 2 values pushed */
27 1 
NPUSHW[ ]	/* 4 values pushed */
27 16 14 0 
CALL[ ]	/* CallFunction */
PUSHB[ ]	/* 1 value pushed */
0 
NPUSHB[ ]	/* 2 values pushed */
27 1 
NPUSHW[ ]	/* 4 values pushed */
17 15 14 0 
CALL[ ]	/* CallFunction */
NPUSHB[ ]	/* 2 values pushed */
7 1 
NPUSHB[ ]	/* 2 values pushed */
6 1 
NPUSHW[ ]	/* 4 values pushed */
17 4 5 0 
CALL[ ]	/* CallFunction */
PUSHW[ ]	/* 1 value pushed */
15 
PUSHB[ ]	/* 1 value pushed */
0 
MIAP[1]	/* MoveIndirectAbsPt */
NPUSHB[ ]	/* 7 values pushed */
14 16 17 21 27 34 6 
PUSHB[ ]	/* 1 value pushed */
1 
LOOPCALL[ ]	/* LoopAndCallFunction */
PUSHW[ ]	/* 1 value pushed */
5 
PUSHB[ ]	/* 1 value pushed */
4 
MIAP[1]	/* MoveIndirectAbsPt */
NPUSHB[ ]	/* 4 values pushed */
4 6 7 3 
PUSHB[ ]	/* 1 value pushed */
1 
LOOPCALL[ ]	/* LoopAndCallFunction */
IUP[0]	/* InterpolateUntPts */";
};
width = 344;
},
{
associatedMasterId = m01;
layerId = "1C230C39-BEE1-4867-A459-76BC6614413D";
shapes = (
{
closed = 1;
nodes = (
(253,395,o),
(205,360,o),
(164,312,q),
(164,313,ls),
(164,349,o),
(144,395,o),
(135,395,qs),
(129,394,l),
(13,339,ls),
(9,337,o),
(12,328,o),
(16,328,qs),
(18,328,l),
(56,343,o),
(72,343,qs),
(91,343,o),
(107,313,o),
(107,279,qs),
(107,81,ls),
(107,51,o),
(98,23,o),
(72,12,o),
(45,12,qs),
(42,12,o),
(42,0,o),
(45,0,qs),
(68,0,o),
(81,1,qs),
(136,2,l),
(210,1,ls),
(229,0,o),
(261,0,qs),
(265,0,o),
(265,12,o),
(261,12,qs),
(219,12,o),
(179,23,o),
(164,51,o),
(164,81,qs),
(164,295,l),
(195,331,o),
(224,353,o),
(237,353,qs),
(248,353,o),
(264,345,o),
(273,337,qs),
(282,330,o),
(295,323,o),
(304,323,qs),
(320,323,o),
(337,341,o),
(337,354,qs),
(337,371,o),
(297,395,o),
(275,395,qs)
);
}
);
userData = {
assembly = "NPUSHB[ ]	/* 11 values pushed */
41 1 0 6 50 14 2 2 0 2 74 
MPPEM[ ]	/* MeasurePixelPerEm */
PUSHB[ ]	/* 1 value pushed */
41 
LT[ ]	/* LessThan */
IF[ ]	/* If */
NPUSHB[ ]	/* 42 values pushed */
0 1 7 6 7 1 6 126 0 6 0 7 6 0 124 0 0 2 7 0 2 124 9 8 2 7 7 59 75 5 1 2 2 3 95 4 1 3 3 57 3 76 
ELSE[ ]	/* Else */
NPUSHB[ ]	/* 35 values pushed */
9 8 2 7 1 7 131 0 1 6 1 131 0 6 0 6 131 0 0 2 0 131 5 1 2 2 3 95 4 1 3 3 57 3 76 
EIF[ ]	/* EndIf */
NPUSHB[ ]	/* 17 values pushed */
0 0 0 54 0 53 38 38 34 17 82 22 36 36 10 9 28 
CALL[ ]	/* CallFunction */";
};
width = 364;
},
{
associatedMasterId = m01;
layerId = "660500F6-2B9B-473E-A4F4-6DF17A19A6B8";
shapes = (
{
closed = 1;
nodes = (
(279,40,ls),
(279,-18,o),
(280,-29,o),
(378,-27,c),
(378,-70,l),
(75,-70,l),
(75,-27,l),
(149,-30,o),
(152,-16,o),
(152,43,cs),
(152,315,ls),
(152,385,o),
(141,383,o),
(68,383,c),
(68,426,l),
(265,437,l),
(265,261,l),
(265,261,o),
(294,358,o),
(348,409,cs),
(408,466,o),
(554,458,o),
(559,356,cs),
(564,262,o),
(452,250,o),
(426,299,cs),
(393,360,o),
(441,386,o),
(427,397,cs),
(393,423,o),
(349,376,o),
(322,312,cs),
(297,252,o),
(279,191,o),
(279,190,cs)
);
}
);
vertWidth = 1000;
width = 621;
},
{
associatedMasterId = m01;
layerId = "787A323C-1C7D-4D9A-B6BF-37124B959F5B";
shapes = (
{
closed = 1;
nodes = (
(157,427,o),
(218,494,o),
(262,494,qs),
(285,494,o),
(312,482,qs),
(317,480,o),
(319,485,qs),
(339,534,ls),
(341,538,o),
(337,540,q),
(327,548,o),
(297,554,o),
(283,554,qs),
(248,554,o),
(171,515,o),
(145,477,q),
(137,535,l),
(137,540,o),
(132,540,qs),
(90,540,ls),
(85,540,o),
(85,535,qs),
(85,85,ls),
(85,80,o),
(90,80,qs),
(142,80,ls),
(147,80,o),
(147,85,qs),
(147,375,l)
);
}
);
vertWidth = 1000;
width = 350;
},
{
associatedMasterId = m01;
layerId = "14213F17-464B-44C4-9097-95BF3DCB2E0E";
shapes = (
{
closed = 1;
nodes = (
(157,427,o),
(218,494,o),
(262,494,qs),
(285,494,o),
(312,482,qs),
(317,480,o),
(319,485,qs),
(339,534,ls),
(341,538,o),
(337,540,q),
(327,548,o),
(297,554,o),
(283,554,qs),
(248,554,o),
(171,515,o),
(145,477,q),
(137,535,l),
(137,540,o),
(132,540,qs),
(90,540,ls),
(85,540,o),
(85,535,qs),
(85,85,ls),
(85,80,o),
(90,80,qs),
(142,80,ls),
(147,80,o),
(147,85,qs),
(147,375,l)
);
}
);
vertWidth = 1000;
width = 350;
}
);
metricLeft = n;
unicode = 114;
}
{
glyphname = dieresis;
layers = (
{
layerId = m01;
shapes = (
{
closed = 1;
nodes = (
(104,602,o),
(107,576,o),
(109,562,cs),
(110,541,o),
(139,540,o),
(153,545,cs),
(182,555,o),
(197,583,o),
(186,610,cs),
(165,660,o),
(81,655,o),
(92,631,cs)
);
},
{
closed = 1;
nodes = (
(272,602,o),
(275,576,o),
(276,562,cs),
(278,541,o),
(306,540,o),
(321,545,cs),
(350,555,o),
(364,583,o),
(353,610,cs),
(332,660,o),
(249,655,o),
(260,631,cs)
);
}
);
width = 450;
},
{
associatedMasterId = m01;
layerId = "B95609A4-E58B-4ADE-9779-E0FAA25E41BF";
width = 600;
},
{
associatedMasterId = m01;
layerId = "653FFB37-5C59-4C66-B2B8-3358A1461268";
width = 600;
},
{
associatedMasterId = m01;
layerId = "5494C454-2D9E-4789-B866-396A871BBCCD";
shapes = (
{
closed = 1;
nodes = (
(159,640,o),
(155,780,o),
(252,780,cs),
(342,780,o),
(337,640,o),
(251,640,cs)
);
},
{
closed = 1;
nodes = (
(657,640,o),
(653,780,o),
(750,780,cs),
(840,780,o),
(835,640,o),
(749,640,cs)
);
}
);
vertWidth = 1000;
width = 1000;
},
{
associatedMasterId = m01;
layerId = "FA6D07F3-67AB-4197-AE0F-C6DA16090780";
shapes = (
{
ref = uni0308;
}
);
width = 0;
},
{
associatedMasterId = m01;
layerId = "F016DAA5-6277-48DB-85B7-A16E4FBC1837";
shapes = (
{
ref = uni0308;
}
);
width = 0;
},
{
associatedMasterId = m01;
layerId = m004;
width = 600;
},
{
associatedMasterId = m01;
layerId = "9C48305C-4101-43B6-A4C3-0F113F8299DE";
width = 600;
},
{
associatedMasterId = m01;
layerId = "0B413D5B-78A6-45E7-9764-54E8B97F9413";
width = 600;
},
{
associatedMasterId = m01;
layerId = "A514BC24-908B-4C59-ADE7-B1C7EF562567";
shapes = (
{
closed = 1;
nodes = (
(159,640,o),
(155,780,o),
(252,780,cs),
(342,780,o),
(337,640,o),
(251,640,cs)
);
},
{
closed = 1;
nodes = (
(657,640,o),
(653,780,o),
(750,780,cs),
(840,780,o),
(835,640,o),
(749,640,cs)
);
}
);
vertWidth = 1000;
width = 1000;
},
{
associatedMasterId = m01;
layerId = "DEFC1979-ECB7-4BB7-99C4-71258685323A";
shapes = (
{
ref = uni0308;
}
);
width = 0;
},
{
associatedMasterId = m01;
layerId = "B76C6789-E0DE-4D23-9701-53FF73F37328";
shapes = (
{
ref = uni0308;
}
);
width = 0;
}
);
unicode = 168;
}
{
glyphname = paragraph;
layers = (
{
layerId = m01;
shapes = (
{
closed = 1;
nodes = (
(517,695,l),
(495,702,o),
(459,688,o),
(459,661,cs),
(459,-138,l),
(481,-145,o),
(517,-131,o),
(517,-104,cs)
);
},
{
closed = 1;
nodes = (
(87,392.128,o),
(187.539,319.759,o),
(343,313.402,c),
(343,-138,l),
(365,-145,o),
(401,-131,o),
(401,-104,cs),
(401,690,l),
(213,701,o),
(87,625,o),
(87,502,cs)
);
}
);
width = 600;
},
{
associatedMasterId = m01;
layerId = "B95609A4-E58B-4ADE-9779-E0FAA25E41BF";
width = 600;
},
{
associatedMasterId = m01;
layerId = "653FFB37-5C59-4C66-B2B8-3358A1461268";
width = 600;
},
{
associatedMasterId = m01;
layerId = "5494C454-2D9E-4789-B866-396A871BBCCD";
shapes = (
{
closed = 1;
nodes = (
(739,762,l),
(738,-161,l),
(679,-161,l),
(679,724,l),
(540,724,l),
(540,-161,l),
(481,-161,l),
(481,338,l),
(362,326,o),
(252,414,o),
(247,538,cs),
(242,650,o),
(323,762,o),
(479,762,cs)
);
}
);
vertWidth = 1000;
width = 1000;
},
{
associatedMasterId = m01;
layerId = "FA6D07F3-67AB-4197-AE0F-C6DA16090780";
shapes = (
{
closed = 1;
nodes = (
(570,719,ls),
(575,719,o),
(575,724,qs),
(574,770,ls),
(574,772,o),
(570,773,o),
(569,774,q),
(302,775,ls),
(198,776,o),
(75,682,o),
(75,587,qs),
(75,529,o),
(122,442,o),
(200,385,o),
(295,355,o),
(344,353,q),
(344,49,ls),
(344,43,o),
(349,43,qs),
(394,43,ls),
(399,43,o),
(399,49,qs),
(399,723,l),
(460,723,l),
(460,49,ls),
(460,43,o),
(465,43,qs),
(510,43,ls),
(515,43,o),
(515,49,qs),
(515,719,l)
);
},
{
closed = 1;
nodes = (
(344,407,l),
(250,415,o),
(140,507,o),
(140,586,qs),
(140,637,o),
(180,694,o),
(239,718,o),
(297,723,o),
(315,723,qs),
(344,723,l)
);
}
);
vertWidth = 1000;
width = 650;
},
{
associatedMasterId = m01;
layerId = "F016DAA5-6277-48DB-85B7-A16E4FBC1837";
shapes = (
{
closed = 1;
nodes = (
(570,719,ls),
(575,719,o),
(575,724,qs),
(574,770,ls),
(574,772,o),
(570,773,o),
(569,774,q),
(302,775,ls),
(198,776,o),
(75,682,o),
(75,587,qs),
(75,529,o),
(122,442,o),
(200,385,o),
(295,355,o),
(344,353,q),
(344,49,ls),
(344,43,o),
(349,43,qs),
(394,43,ls),
(399,43,o),
(399,49,qs),
(399,723,l),
(460,723,l),
(460,49,ls),
(460,43,o),
(465,43,qs),
(510,43,ls),
(515,43,o),
(515,49,qs),
(515,719,l)
);
},
{
closed = 1;
nodes = (
(344,407,l),
(250,415,o),
(140,507,o),
(140,586,qs),
(140,637,o),
(180,694,o),
(239,718,o),
(297,723,o),
(315,723,qs),
(344,723,l)
);
}
);
vertWidth = 1000;
width = 650;
},
{
associatedMasterId = m01;
layerId = m004;
width = 600;
},
{
associatedMasterId = m01;
layerId = "81CE5567-A429-450C-8D5A-9FB6AA1293A4";
width = 600;
},
{
associatedMasterId = m01;
layerId = "BB9A3DDA-78E8-44FE-8E21-B243FE1F94B4";
width = 600;
},
{
associatedMasterId = m01;
layerId = "D53CC085-7FD9-43DC-BB8C-75321EE7249C";
shapes = (
{
closed = 1;
nodes = (
(739,762,l),
(738,-161,l),
(679,-161,l),
(679,724,l),
(540,724,l),
(540,-161,l),
(481,-161,l),
(481,338,l),
(362,326,o),
(252,414,o),
(247,538,cs),
(242,650,o),
(323,762,o),
(479,762,cs)
);
}
);
vertWidth = 1000;
width = 1000;
},
{
associatedMasterId = m01;
layerId = "15DE3D3A-F773-462E-84BB-FE8301764062";
shapes = (
{
closed = 1;
nodes = (
(570,719,ls),
(575,719,o),
(575,724,qs),
(574,770,ls),
(574,772,o),
(570,773,o),
(569,774,q),
(302,775,ls),
(198,776,o),
(75,682,o),
(75,587,qs),
(75,529,o),
(122,442,o),
(200,385,o),
(295,355,o),
(344,353,q),
(344,49,ls),
(344,43,o),
(349,43,qs),
(394,43,ls),
(399,43,o),
(399,49,qs),
(399,723,l),
(460,723,l),
(460,49,ls),
(460,43,o),
(465,43,qs),
(510,43,ls),
(515,43,o),
(515,49,qs),
(515,719,l)
);
},
{
closed = 1;
nodes = (
(344,407,l),
(250,415,o),
(140,507,o),
(140,586,qs),
(140,637,o),
(180,694,o),
(239,718,o),
(297,723,o),
(315,723,qs),
(344,723,l)
);
}
);
vertWidth = 1000;
width = 650;
},
{
associatedMasterId = m01;
layerId = "69679BF0-31E4-4C68-91C5-377633DD813C";
shapes = (
{
closed = 1;
nodes = (
(570,719,ls),
(575,719,o),
(575,724,qs),
(574,770,ls),
(574,772,o),
(570,773,o),
(569,774,q),
(302,775,ls),
(198,776,o),
(75,682,o),
(75,587,qs),
(75,529,o),
(122,442,o),
(200,385,o),
(295,355,o),
(344,353,q),
(344,49,ls),
(344,43,o),
(349,43,qs),
(394,43,ls),
(399,43,o),
(399,49,qs),
(399,723,l),
(460,723,l),
(460,49,ls),
(460,43,o),
(465,43,qs),
(510,43,ls),
(515,43,o),
(515,49,qs),
(515,719,l)
);
},
{
closed = 1;
nodes = (
(344,407,l),
(250,415,o),
(140,507,o),
(140,586,qs),
(140,637,o),
(180,694,o),
(239,718,o),
(297,723,o),
(315,723,qs),
(344,723,l)
);
}
);
vertWidth = 1000;
width = 650;
}
);
unicode = 182;
}
{
glyphname = Agrave;
kernRight = A;
layers = (
{
layerId = m01;
shapes = (
{
closed = 1;
nodes = (
(5.21,-22.823,o),
(13.599,-23,o),
(18.599,-23,cs),
(198.599,-23,ls),
(205.599,-23,o),
(213.616,-22,o),
(215.738,-15,cs),
(217.694,-8.55,o),
(215.948,-3,o),
(209.663,-1.018,cs),
(165.227,13,o),
(114.272,15.451,o),
(138.135,65,cs),
(206.522,207,l),
(474.617,207,l),
(524.908,52,ls),
(535.706,18.72,o),
(501.209,12,o),
(459.017,1,cs),
(450.983,-1,o),
(448.169,-9.151,o),
(449.738,-15,cs),
(451.942,-23.215,o),
(460.599,-23,o),
(465.599,-23,cs),
(650.599,-23,ls),
(655.599,-23,o),
(662.616,-22,o),
(664.738,-15,cs),
(666.694,-8.55,o),
(663.965,-2,o),
(656.017,1,cs),
(627.157,9,o),
(609.338,16.661,o),
(597.908,52,cs),
(412.892,624,ls),
(405.436,647.049,o),
(389.468,657,o),
(367.381,652,c),
(79.458,53.144,ls),
(60.169,13.027,o),
(37.14,8,o),
(12.017,1,cs),
(3.983,-1,o),
(0.843,-9,o),
(2.738,-15,cs)
);
},
{
closed = 1;
nodes = (
(367.898,542.078,l),
(461.963,246,l),
(225.305,246,l)
);
},
{
closed = 1;
nodes = (
(287.333,899.181,o),
(301.042,895.704,o),
(313.256,887.752,cs),
(328.193,878.029,o),
(340.718,821.085,o),
(389.743,705.847,cs),
(392.629,699.063,o),
(384.546,696.089,o),
(377.905,695.371,cs),
(369.099,694.419,o),
(360.959,696.826,o),
(357.062,703.073,cs),
(285.181,818.311,o),
(230.892,875.706,o),
(236.673,886.987,cs),
(241.317,896.045,o),
(256.857,899.181,o),
(272.095,899.181,cs)
);
}
);
width = 673;
},
{
associatedMasterId = m01;
layerId = "B95609A4-E58B-4ADE-9779-E0FAA25E41BF";
shapes = (
{
alignment = -1;
ref = A;
},
{
alignment = -1;
ref = grave;
}
);
width = 594;
},
{
associatedMasterId = m01;
layerId = "653FFB37-5C59-4C66-B2B8-3358A1461268";
shapes = (
{
alignment = -1;
ref = A;
},
{
alignment = -1;
ref = grave;
}
);
width = 702;
},
{
associatedMasterId = m01;
layerId = "5494C454-2D9E-4789-B866-396A871BBCCD";
shapes = (
{
alignment = -1;
ref = A;
},
{
alignment = -1;
ref = grave;
}
);
width = 756;
},
{
associatedMasterId = m01;
layerId = "FA6D07F3-67AB-4197-AE0F-C6DA16090780";
shapes = (
{
closed = 1;
nodes = (
(547,80,o),
(553,80,qs),
(611,80,ls),
(617,80,o),
(615,87,qs),
(349,770,l),
(348,775,o),
(342,775,qs),
(299,775,ls),
(295,775,o),
(292,770,q),
(26,87,ls),
(23,80,o),
(30,80,qs),
(88,80,ls),
(94,80,o),
(95,85,q),
(178,303,l),
(462,303,l),
(546,85,l)
);
},
{
closed = 1;
nodes = (
(199,360,l),
(288,593,l),
(320,685,l),
(351,593,l),
(440,360,l)
);
},
{
closed = 1;
nodes = (
(203,940,qs),
(422,835,l),
(445,869,l),
(242,1004,ls),
(238,1007,o),
(234,1002,q),
(201,949,ls),
(197,943,o)
);
}
);
vertWidth = 1000;
width = 640;
},
{
associatedMasterId = m01;
layerId = "F016DAA5-6277-48DB-85B7-A16E4FBC1837";
shapes = (
{
closed = 1;
nodes = (
(547,80,o),
(553,80,qs),
(611,80,ls),
(617,80,o),
(615,87,qs),
(349,770,l),
(348,775,o),
(342,775,qs),
(299,775,ls),
(295,775,o),
(292,770,q),
(26,87,ls),
(23,80,o),
(30,80,qs),
(88,80,ls),
(94,80,o),
(95,85,q),
(178,303,l),
(462,303,l),
(546,85,l)
);
},
{
closed = 1;
nodes = (
(199,360,l),
(288,593,l),
(320,685,l),
(351,593,l),
(440,360,l)
);
},
{
closed = 1;
nodes = (
(203,940,qs),
(422,835,l),
(445,869,l),
(242,1004,ls),
(238,1007,o),
(234,1002,q),
(201,949,ls),
(197,943,o)
);
}
);
vertWidth = 1000;
width = 640;
},
{
associatedMasterId = m01;
layerId = m004;
shapes = (
{
alignment = -1;
ref = A;
},
{
alignment = -1;
ref = grave;
}
);
width = 673;
},
{
associatedMasterId = m01;
layerId = "5ED0C21C-5E0C-429D-BD63-C97ECC4E47E8";
shapes = (
{
alignment = -1;
ref = A;
},
{
alignment = -1;
ref = grave;
}
);
width = 594;
},
{
associatedMasterId = m01;
layerId = "F444C1E1-4034-4C75-91DB-3BC3650FFA8C";
shapes = (
{
alignment = -1;
ref = A;
},
{
alignment = -1;
ref = grave;
}
);
width = 702;
},
{
associatedMasterId = m01;
layerId = "CD868BFE-962F-4669-80B2-1CC891431E56";
shapes = (
{
alignment = -1;
ref = A;
},
{
alignment = -1;
ref = grave;
}
);
width = 756;
},
{
associatedMasterId = m01;
layerId = "501BC368-6BFA-4F8D-BB19-7DAF1D40DCFC";
shapes = (
{
closed = 1;
nodes = (
(547,80,o),
(553,80,qs),
(611,80,ls),
(617,80,o),
(615,87,qs),
(349,770,l),
(348,775,o),
(342,775,qs),
(299,775,ls),
(295,775,o),
(292,770,q),
(26,87,ls),
(23,80,o),
(30,80,qs),
(88,80,ls),
(94,80,o),
(95,85,q),
(178,303,l),
(462,303,l),
(546,85,l)
);
},
{
closed = 1;
nodes = (
(199,360,l),
(288,593,l),
(320,685,l),
(351,593,l),
(440,360,l)
);
},
{
closed = 1;
nodes = (
(203,940,qs),
(422,835,l),
(445,869,l),
(242,1004,ls),
(238,1007,o),
(234,1002,q),
(201,949,ls),
(197,943,o)
);
}
);
vertWidth = 1000;
width = 640;
},
{
associatedMasterId = m01;
layerId = "5BF74EED-F1A3-49EC-AFBE-7452684DBDDC";
shapes = (
{
closed = 1;
nodes = (
(547,80,o),
(553,80,qs),
(611,80,ls),
(617,80,o),
(615,87,qs),
(349,770,l),
(348,775,o),
(342,775,qs),
(299,775,ls),
(295,775,o),
(292,770,q),
(26,87,ls),
(23,80,o),
(30,80,qs),
(88,80,ls),
(94,80,o),
(95,85,q),
(178,303,l),
(462,303,l),
(546,85,l)
);
},
{
closed = 1;
nodes = (
(199,360,l),
(288,593,l),
(320,685,l),
(351,593,l),
(440,360,l)
);
},
{
closed = 1;
nodes = (
(203,940,qs),
(422,835,l),
(445,869,l),
(242,1004,ls),
(238,1007,o),
(234,1002,q),
(201,949,ls),
(197,943,o)
);
}
);
vertWidth = 1000;
width = 640;
}
);
unicode = 192;
}
{
glyphname = Ntilde;
layers = (
{
hints = (
{
horizontal = 1;
origin = (0,37);
target = down;
type = TopGhost;
}
);
layerId = m01;
shapes = (
{
closed = 1;
nodes = (
(188.019,574,l),
(542.227,13,ls),
(560.721,-16,o),
(562.511,-28,o),
(605.564,-25,cs),
(613.581,-24,o),
(616.616,-22,o),
(617.756,-14,cs),
(666.932,569,ls),
(670.543,604,o),
(704.787,618,o),
(735.927,626,cs),
(748.997,630,o),
(752.328,649,o),
(732.328,649,cs),
(558.328,649,ls),
(542.328,649,o),
(537.997,630,o),
(554.927,626,cs),
(588.77,617,o),
(616.543,604,o),
(612.932,569,cs),
(568.78,102,l),
(261.298,590,ls),
(237.909,625,o),
(223.328,649,o),
(183.328,649,cs),
(81.328,649,ls),
(60.328,649,o),
(59.997,630,o),
(71.927,626,cs),
(108.717,614,o),
(135.456,599,o),
(132.845,564,cs),
(99.1,63,ls),
(97.489,28,o),
(67.122,7,o),
(33.035,2,cs),
(20,0,o),
(15.633,-21,o),
(36.633,-21,cs),
(211.633,-21,ls),
(229.633,-21,o),
(231.983,-1,o),
(214.035,2,cs),
(182.122,7,o),
(152.489,28,o),
(154.1,63,cs)
);
},
{
closed = 1;
nodes = (
(365.839,783.942,o),
(386.884,723.407,o),
(447.815,719.407,cs),
(517.727,714.407,o),
(553.495,758.407,o),
(578.246,801.407,c),
(572.42,811.407,o),
(556.42,811.407,o),
(548.281,803.407,cs),
(519.809,776.407,o),
(498.583,763.407,o),
(462.635,766.407,cs),
(403.722,771.407,o),
(389.822,834.407,o),
(320.822,834.407,cs),
(264.822,834.407,o),
(225.159,796.407,o),
(191.391,752.407,c),
(195.199,741.407,o),
(213.316,741.289,o),
(220.321,748.407,cs),
(249.844,778.407,o),
(273.036,789.407,o),
(307.001,787.407,cs)
);
}
);
width = 732;
},
{
associatedMasterId = m01;
layerId = "B95609A4-E58B-4ADE-9779-E0FAA25E41BF";
shapes = (
{
alignment = -1;
ref = N;
},
{
alignment = -1;
ref = tilde;
}
);
width = 667;
},
{
associatedMasterId = m01;
layerId = "653FFB37-5C59-4C66-B2B8-3358A1461268";
shapes = (
{
alignment = -1;
ref = N;
},
{
alignment = -1;
ref = tilde;
}
);
width = 727;
},
{
associatedMasterId = m01;
layerId = "5494C454-2D9E-4789-B866-396A871BBCCD";
shapes = (
{
alignment = -1;
ref = N;
},
{
alignment = -1;
ref = tilde;
}
);
width = 823;
},
{
associatedMasterId = m01;
layerId = "FA6D07F3-67AB-4197-AE0F-C6DA16090780";
shapes = (
{
closed = 1;
nodes = (
(111,80,qs),
(164,80,ls),
(170,80,o),
(170,86,qs),
(167,545,l),
(162,660,l),
(545,84,l),
(549,80,o),
(552,80,qs),
(594,80,ls),
(600,80,o),
(600,86,qs),
(600,769,ls),
(600,775,o),
(594,775,qs),
(541,775,ls),
(535,775,o),
(535,769,qs),
(538,307,l),
(543,192,l),
(160,771,l),
(156,775,o),
(153,775,qs),
(111,775,ls),
(105,775,o),
(105,769,qs),
(105,86,ls),
(105,80,o)
);
},
{
closed = 1;
nodes = (
(450,949,o),
(431,917,o),
(408,917,qs),
(390,917,o),
(368,935,o),
(347,957,o),
(317,975,o),
(291,975,qs),
(254,975,o),
(200,920,o),
(195,873,q),
(248,865,l),
(254,893,o),
(275,917,o),
(294,917,qs),
(309,917,o),
(329,900,o),
(351,877,o),
(382,860,o),
(407,860,qs),
(450,860,o),
(500,918,o),
(505,966,q),
(453,974,l)
);
}
);
vertWidth = 1000;
width = 705;
},
{
associatedMasterId = m01;
layerId = "F016DAA5-6277-48DB-85B7-A16E4FBC1837";
shapes = (
{
closed = 1;
nodes = (
(111,80,qs),
(164,80,ls),
(170,80,o),
(170,86,qs),
(167,545,l),
(162,660,l),
(545,84,l),
(549,80,o),
(552,80,qs),
(594,80,ls),
(600,80,o),
(600,86,qs),
(600,769,ls),
(600,775,o),
(594,775,qs),
(541,775,ls),
(535,775,o),
(535,769,qs),
(538,307,l),
(543,192,l),
(160,771,l),
(156,775,o),
(153,775,qs),
(111,775,ls),
(105,775,o),
(105,769,qs),
(105,86,ls),
(105,80,o)
);
},
{
closed = 1;
nodes = (
(450,949,o),
(431,917,o),
(408,917,qs),
(390,917,o),
(368,935,o),
(347,957,o),
(317,975,o),
(291,975,qs),
(254,975,o),
(200,920,o),
(195,873,q),
(248,865,l),
(254,893,o),
(275,917,o),
(294,917,qs),
(309,917,o),
(329,900,o),
(351,877,o),
(382,860,o),
(407,860,qs),
(450,860,o),
(500,918,o),
(505,966,q),
(453,974,l)
);
}
);
vertWidth = 1000;
width = 705;
},
{
associatedMasterId = m01;
layerId = m004;
shapes = (
{
alignment = -1;
ref = N;
},
{
alignment = -1;
ref = tilde;
}
);
width = 732;
},
{
associatedMasterId = m01;
layerId = "E3FEF23A-310F-494D-82E8-41BDF1CCE7CC";
shapes = (
{
alignment = -1;
ref = N;
},
{
alignment = -1;
ref = tilde;
}
);
width = 667;
},
{
associatedMasterId = m01;
layerId = "20A82834-019B-40D0-9E3F-29209795CA70";
shapes = (
{
alignment = -1;
ref = N;
},
{
alignment = -1;
ref = tilde;
}
);
width = 727;
},
{
associatedMasterId = m01;
layerId = "F0DF45CB-5F2F-4765-9D52-D181CBA929F7";
shapes = (
{
alignment = -1;
ref = N;
},
{
alignment = -1;
ref = tilde;
}
);
width = 823;
},
{
associatedMasterId = m01;
layerId = "CEAC07EA-FDBC-4B07-B420-458CA2B09949";
shapes = (
{
closed = 1;
nodes = (
(111,80,qs),
(164,80,ls),
(170,80,o),
(170,86,qs),
(167,545,l),
(162,660,l),
(545,84,l),
(549,80,o),
(552,80,qs),
(594,80,ls),
(600,80,o),
(600,86,qs),
(600,769,ls),
(600,775,o),
(594,775,qs),
(541,775,ls),
(535,775,o),
(535,769,qs),
(538,307,l),
(543,192,l),
(160,771,l),
(156,775,o),
(153,775,qs),
(111,775,ls),
(105,775,o),
(105,769,qs),
(105,86,ls),
(105,80,o)
);
},
{
closed = 1;
nodes = (
(450,949,o),
(431,917,o),
(408,917,qs),
(390,917,o),
(368,935,o),
(347,957,o),
(317,975,o),
(291,975,qs),
(254,975,o),
(200,920,o),
(195,873,q),
(248,865,l),
(254,893,o),
(275,917,o),
(294,917,qs),
(309,917,o),
(329,900,o),
(351,877,o),
(382,860,o),
(407,860,qs),
(450,860,o),
(500,918,o),
(505,966,q),
(453,974,l)
);
}
);
vertWidth = 1000;
width = 705;
},
{
associatedMasterId = m01;
layerId = "C6DFF07A-62C4-4012-975B-C2560EE64A63";
shapes = (
{
closed = 1;
nodes = (
(111,80,qs),
(164,80,ls),
(170,80,o),
(170,86,qs),
(167,545,l),
(162,660,l),
(545,84,l),
(549,80,o),
(552,80,qs),
(594,80,ls),
(600,80,o),
(600,86,qs),
(600,769,ls),
(600,775,o),
(594,775,qs),
(541,775,ls),
(535,775,o),
(535,769,qs),
(538,307,l),
(543,192,l),
(160,771,l),
(156,775,o),
(153,775,qs),
(111,775,ls),
(105,775,o),
(105,769,qs),
(105,86,ls),
(105,80,o)
);
},
{
closed = 1;
nodes = (
(450,949,o),
(431,917,o),
(408,917,qs),
(390,917,o),
(368,935,o),
(347,957,o),
(317,975,o),
(291,975,qs),
(254,975,o),
(200,920,o),
(195,873,q),
(248,865,l),
(254,893,o),
(275,917,o),
(294,917,qs),
(309,917,o),
(329,900,o),
(351,877,o),
(382,860,o),
(407,860,qs),
(450,860,o),
(500,918,o),
(505,966,q),
(453,974,l)
);
}
);
vertWidth = 1000;
width = 705;
}
);
unicode = 209;
}
{
glyphname = Uacute;
layers = (
{
layerId = m01;
shapes = (
{
closed = 1;
nodes = (
(157.508,602,o),
(131.665,611,o),
(97.857,622,cs),
(89.909,625,o),
(87.049,633,o),
(90.154,639,cs),
(94.276,646,o),
(100.276,646,o),
(105.276,646,cs),
(285.276,646,ls),
(290.276,646,o),
(298.276,646,o),
(301.154,639,cs),
(304.032,632,o),
(298.909,625,o),
(291.875,623,cs),
(261.735,615,o),
(225.49,601,o),
(222.914,568,cs),
(211.593,435,o),
(199.359,307,o),
(197.299,189,cs),
(195.135,65,o),
(279.122,7,o),
(372.14,8,cs),
(463.14,8,o),
(549.995,57,o),
(566.282,188,cs),
(580.359,307,o),
(584.61,436,o),
(589.932,569,cs),
(591.508,602,o),
(565.717,614,o),
(531.875,623,cs),
(523.909,625,o),
(522.049,633,o),
(525.154,639,cs),
(528.259,645,o),
(534.276,646,o),
(539.276,646,cs),
(721.276,646,ls),
(726.276,646,o),
(733.276,646,o),
(736.154,639,cs),
(739.032,632,o),
(732.909,625,o),
(725.875,623,cs),
(696.752,616,o),
(659.508,602,o),
(657.932,569,cs),
(650.698,441,o),
(642.516,316,o),
(633.491,200,cs),
(619.332,19,o),
(494.407,-34,o),
(369.407,-34,cs),
(242.389,-35,o),
(122.698,40,o),
(130.666,210,cs),
(136.795,332,o),
(145.75,444,o),
(154.932,569,cs)
);
},
{
closed = 1;
nodes = (
(539.476,882.233,o),
(554.908,879.097,o),
(559.233,870.039,cs),
(564.623,858.758,o),
(508.33,801.363,o),
(432.424,686.125,cs),
(428.31,679.878,o),
(420.086,677.471,o),
(411.313,678.423,cs),
(404.697,679.141,o),
(396.718,682.115,o),
(399.842,688.899,cs),
(452.889,804.137,o),
(467.402,861.081,o),
(482.679,870.804,cs),
(495.17,878.756,o),
(509,882.233,o),
(524.238,882.233,cs)
);
}
);
width = 750;
},
{
associatedMasterId = m01;
layerId = "B95609A4-E58B-4ADE-9779-E0FAA25E41BF";
shapes = (
{
alignment = -1;
ref = U;
},
{
alignment = -1;
ref = acute;
}
);
width = 600;
},
{
associatedMasterId = m01;
layerId = "653FFB37-5C59-4C66-B2B8-3358A1461268";
shapes = (
{
alignment = -1;
ref = U;
},
{
alignment = -1;
ref = acute;
}
);
width = 698;
},
{
associatedMasterId = m01;
layerId = "5494C454-2D9E-4789-B866-396A871BBCCD";
shapes = (
{
alignment = -1;
ref = U;
},
{
alignment = -1;
ref = acute;
}
);
width = 833;
},
{
associatedMasterId = m01;
layerId = "FA6D07F3-67AB-4197-AE0F-C6DA16090780";
shapes = (
{
closed = 1;
nodes = (
(615,201,o),
(615,325,qs),
(615,769,ls),
(615,775,o),
(609,775,qs),
(556,775,ls),
(550,775,o),
(550,769,qs),
(550,335,ls),
(550,231,o),
(453,123,o),
(358,123,qs),
(259,123,o),
(166,231,o),
(166,335,qs),
(166,769,ls),
(166,775,o),
(160,775,qs),
(106,775,ls),
(100,775,o),
(100,769,qs),
(100,325,ls),
(100,201,o),
(232,65,o),
(356,65,qs),
(478,65,o)
);
},
{
closed = 1;
nodes = (
(452,1007,o),
(448,1004,qs),
(245,869,l),
(268,835,l),
(487,940,ls),
(493,943,o),
(489,949,qs),
(456,1002,l)
);
}
);
vertWidth = 1000;
width = 715;
},
{
associatedMasterId = m01;
layerId = "F016DAA5-6277-48DB-85B7-A16E4FBC1837";
shapes = (
{
closed = 1;
nodes = (
(615,201,o),
(615,325,qs),
(615,769,ls),
(615,775,o),
(609,775,qs),
(556,775,ls),
(550,775,o),
(550,769,qs),
(550,335,ls),
(550,231,o),
(453,123,o),
(358,123,qs),
(259,123,o),
(166,231,o),
(166,335,qs),
(166,769,ls),
(166,775,o),
(160,775,qs),
(106,775,ls),
(100,775,o),
(100,769,qs),
(100,325,ls),
(100,201,o),
(232,65,o),
(356,65,qs),
(478,65,o)
);
},
{
closed = 1;
nodes = (
(452,1007,o),
(448,1004,qs),
(245,869,l),
(268,835,l),
(487,940,ls),
(493,943,o),
(489,949,qs),
(456,1002,l)
);
}
);
vertWidth = 1000;
width = 715;
},
{
associatedMasterId = m01;
layerId = m004;
shapes = (
{
alignment = -1;
ref = U;
},
{
alignment = -1;
ref = acute;
}
);
width = 750;
},
{
associatedMasterId = m01;
layerId = "4AFFBCCB-3DA6-4C09-BA66-CA1F1605E945";
shapes = (
{
alignment = -1;
ref = U;
},
{
alignment = -1;
ref = acute;
}
);
width = 600;
},
{
associatedMasterId = m01;
layerId = "5E997182-992C-420C-92FA-A302148A1CE1";
shapes = (
{
alignment = -1;
ref = U;
},
{
alignment = -1;
ref = acute;
}
);
width = 698;
},
{
associatedMasterId = m01;
layerId = "00E3C3D6-648E-41B8-86E5-908DABCF68BB";
shapes = (
{
alignment = -1;
ref = U;
},
{
alignment = -1;
ref = acute;
}
);
width = 833;
},
{
associatedMasterId = m01;
layerId = "AE4515DE-BCEA-42C2-B6AF-076701B12D2E";
shapes = (
{
closed = 1;
nodes = (
(615,201,o),
(615,325,qs),
(615,769,ls),
(615,775,o),
(609,775,qs),
(556,775,ls),
(550,775,o),
(550,769,qs),
(550,335,ls),
(550,231,o),
(453,123,o),
(358,123,qs),
(259,123,o),
(166,231,o),
(166,335,qs),
(166,769,ls),
(166,775,o),
(160,775,qs),
(106,775,ls),
(100,775,o),
(100,769,qs),
(100,325,ls),
(100,201,o),
(232,65,o),
(356,65,qs),
(478,65,o)
);
},
{
closed = 1;
nodes = (
(452,1007,o),
(448,1004,qs),
(245,869,l),
(268,835,l),
(487,940,ls),
(493,943,o),
(489,949,qs),
(456,1002,l)
);
}
);
vertWidth = 1000;
width = 715;
},
{
associatedMasterId = m01;
layerId = "BF7A9146-C78D-40EC-93AB-F5F97CE8E9AB";
shapes = (
{
closed = 1;
nodes = (
(615,201,o),
(615,325,qs),
(615,769,ls),
(615,775,o),
(609,775,qs),
(556,775,ls),
(550,775,o),
(550,769,qs),
(550,335,ls),
(550,231,o),
(453,123,o),
(358,123,qs),
(259,123,o),
(166,231,o),
(166,335,qs),
(166,769,ls),
(166,775,o),
(160,775,qs),
(106,775,ls),
(100,775,o),
(100,769,qs),
(100,325,ls),
(100,201,o),
(232,65,o),
(356,65,qs),
(478,65,o)
);
},
{
closed = 1;
nodes = (
(452,1007,o),
(448,1004,qs),
(245,869,l),
(268,835,l),
(487,940,ls),
(493,943,o),
(489,949,qs),
(456,1002,l)
);
}
);
vertWidth = 1000;
width = 715;
}
);
unicode = 218;
}
{
glyphname = germandbls;
layers = (
{
layerId = m01;
shapes = (
{
closed = 1;
nodes = (
(498.86,52,o),
(462.906,1.34,o),
(394.86,3,cs),
(353.86,4,o),
(317.86,25,o),
(306.86,58,cs),
(301.159,75.103,o),
(324.86,94,o),
(299.86,107,cs),
(284.86,115,o),
(263.86,117,o),
(251.86,115,cs),
(236.86,113,o),
(230.86,107,o),
(230.86,91,cs),
(231.86,22,o),
(298.86,-32,o),
(386.86,-37,cs),
(476.86,-42,o),
(573.86,15,o),
(576.86,129,cs),
(579.334,223.015,o),
(506.86,306,o),
(381.86,340,c),
(381.86,344,l),
(438.86,359,o),
(514.86,425,o),
(520.86,517,cs),
(526.86,597,o),
(468.86,680,o),
(354.86,678,cs),
(232.86,676,o),
(147.288,589.98,o),
(140.86,455,cs),
(139.86,434,l),
(106.86,422,o),
(59.86,405,o),
(35.86,395,c),
(44.86,382,o),
(55.86,375,o),
(67.86,371,cs),
(83.86,366,o),
(96.86,370,o),
(107.86,374,cs),
(116.86,377,o),
(122.86,380,o),
(127.86,380,cs),
(131.86,380,o),
(134.86,379,o),
(135.86,378,c),
(119.86,65,ls),
(118.325,34.973,o),
(79.86,15,o),
(37.86,7,cs),
(27.86,5,o),
(22.86,-4,o),
(25.86,-12,cs),
(28.86,-19,o),
(35.86,-21,o),
(41.86,-21,cs),
(151.86,-21,ls),
(164.86,-21,o),
(178.544,-11.984,o),
(179.86,11,cs),
(205.86,465,ls),
(212.159,574.983,o),
(274.86,633,o),
(347.86,635,cs),
(419.86,637,o),
(457.86,580,o),
(452.86,512,cs),
(448.86,440,o),
(408.86,352,o),
(291.86,354,c),
(280.86,329,o),
(300.86,316,o),
(312.86,315,cs),
(335.86,313,o),
(353.86,310,o),
(379.86,297,cs),
(443.86,266,o),
(507.469,204.089,o),
(501.86,105,cs)
);
}
);
width = 609.93999;
}
);
unicode = 223;
}
{
glyphname = agrave;
kernRight = a;
layers = (
{
layerId = m01;
shapes = (
{
closed = 1;
nodes = (
(298.739,-35,o),
(360.581,54.53,o),
(383.796,131.756,c),
(380,28,ls),
(378.829,-3.994,o),
(399,-35,o),
(439,-35,cs),
(488,-35,o),
(529,7,o),
(537,49,cs),
(539,62,o),
(525,65,o),
(519,56,cs),
(503,34,o),
(479,22,o),
(466,22,cs),
(445,22,o),
(441.463,38.978,o),
(442,55,cs),
(454,413,l),
(434,434,o),
(382,466,o),
(308,466,cs),
(162,466,o),
(45,313,o),
(45,165,cs),
(45,39,o),
(127,-35,o),
(211,-35,cs)
);
},
{
closed = 1;
nodes = (
(118,274,o),
(184,426,o),
(297,426,cs),
(336,426,o),
(368,406,o),
(383,382,cs),
(390,371,o),
(390.944,359.003,o),
(390,338,cs),
(386,249,ls),
(381.46,147.978,o),
(306,14,o),
(224,14,cs),
(155,14,o),
(118,89,o),
(118,164,cs)
);
},
{
closed = 1;
nodes = (
(211.129,703.596,o),
(224.898,700.119,o),
(237.251,692.167,cs),
(252.358,682.444,o),
(265.877,625.5,o),
(316.913,510.262,cs),
(319.918,503.478,o),
(311.887,500.504,o),
(305.258,499.786,cs),
(296.469,498.834,o),
(288.287,501.241,o),
(284.281,507.488,cs),
(210.388,622.726,o),
(155.097,680.121,o),
(160.682,691.402,cs),
(165.167,700.46,o),
(180.653,703.596,o),
(195.891,703.596,cs)
);
}
);
width = 530;
},
{
associatedMasterId = m01;
layerId = "B95609A4-E58B-4ADE-9779-E0FAA25E41BF";
shapes = (
{
alignment = -1;
ref = a;
},
{
alignment = -1;
ref = grave;
}
);
width = 365;
},
{
associatedMasterId = m01;
layerId = "653FFB37-5C59-4C66-B2B8-3358A1461268";
shapes = (
{
alignment = -1;
ref = a;
},
{
alignment = -1;
ref = grave;
}
);
width = 419;
},
{
associatedMasterId = m01;
layerId = "5494C454-2D9E-4789-B866-396A871BBCCD";
shapes = (
{
alignment = -1;
ref = a;
},
{
alignment = -1;
ref = grave;
}
);
width = 724;
},
{
associatedMasterId = m01;
layerId = "FA6D07F3-67AB-4197-AE0F-C6DA16090780";
shapes = (
{
ref = a;
},
{
pos = (480,0);
ref = gravecomb;
}
);
width = 480;
},
{
associatedMasterId = m01;
layerId = "F016DAA5-6277-48DB-85B7-A16E4FBC1837";
shapes = (
{
ref = a;
},
{
pos = (480,0);
ref = gravecomb;
}
);
width = 480;
},
{
associatedMasterId = m01;
layerId = m004;
shapes = (
{
alignment = -1;
ref = a;
},
{
alignment = -1;
ref = grave;
}
);
width = 530;
},
{
associatedMasterId = m01;
layerId = "355E281B-D834-4039-AFD6-529B9BE64B5B";
shapes = (
{
alignment = -1;
ref = a;
},
{
alignment = -1;
ref = grave;
}
);
width = 365;
},
{
associatedMasterId = m01;
layerId = "F7AFA88A-ACB3-485C-A816-A5F141A83F62";
shapes = (
{
alignment = -1;
ref = a;
},
{
alignment = -1;
ref = grave;
}
);
width = 419;
},
{
associatedMasterId = m01;
layerId = "B23DFA90-01C7-451B-8CDB-61F0AC7F7811";
shapes = (
{
alignment = -1;
ref = a;
},
{
alignment = -1;
ref = grave;
}
);
width = 724;
},
{
associatedMasterId = m01;
layerId = "43DCA6E8-8784-47E9-A078-48F6C7B4A77C";
shapes = (
{
ref = a;
},
{
pos = (552,0);
ref = gravecomb;
}
);
width = 552;
},
{
associatedMasterId = m01;
layerId = "4B273046-C4A0-4AB8-B466-A07B6DF3F491";
shapes = (
{
ref = a;
},
{
pos = (552,0);
ref = gravecomb;
}
);
width = 552;
}
);
metricLeft = a;
unicode = 224;
}
{
glyphname = ntilde;
layers = (
{
layerId = m01;
shapes = (
{
closed = 1;
nodes = (
(134,-28,o),
(146,-10,o),
(148,35,cs),
(153,162,ls),
(154,193,o),
(159,218,o),
(166,238,cs),
(206,355,o),
(273,408,o),
(338,407,cs),
(379,406,o),
(406,379,o),
(404,341,cs),
(387,33,ls),
(385,1,o),
(406,-30,o),
(446,-30,cs),
(495,-30,o),
(536,12,o),
(544,54,cs),
(546,67,o),
(533,70,o),
(527,61,cs),
(511,39,o),
(486,27,o),
(473,27,cs),
(452,27,o),
(448,44,o),
(449,60,cs),
(466,341,ls),
(472,438,o),
(406,463,o),
(363,463,cs),
(267,463,o),
(193,379,o),
(157,292,c),
(165,433,ls),
(166,450,o),
(151,458,o),
(133,452,cs),
(118,447,o),
(51,400,o),
(18,378,c),
(37,358,o),
(59,356,o),
(85,370,cs),
(96,377,o),
(102,378,o),
(105,375,c),
(87,-21,l)
);
},
{
closed = 1;
nodes = (
(279.898,687.535,o),
(302,627,o),
(363,623,cs),
(433,618,o),
(468,662,o),
(492,705,c),
(486,715,o),
(470,715,o),
(462,707,cs),
(434,680,o),
(413,667,o),
(377,670,cs),
(318,675,o),
(303,738,o),
(234,738,cs),
(178,738,o),
(139,700,o),
(106,656,c),
(110,645,o),
(128.12,644.882,o),
(135,652,cs),
(164,682,o),
(187,693,o),
(221,691,cs)
);
}
);
width = 561;
},
{
associatedMasterId = m01;
layerId = "B95609A4-E58B-4ADE-9779-E0FAA25E41BF";
shapes = (
{
alignment = -1;
ref = n;
},
{
alignment = -1;
ref = tilde;
}
);
width = 458;
},
{
associatedMasterId = m01;
layerId = "653FFB37-5C59-4C66-B2B8-3358A1461268";
shapes = (
{
alignment = -1;
ref = n;
},
{
alignment = -1;
ref = tilde;
}
);
width = 517;
},
{
associatedMasterId = m01;
layerId = "5494C454-2D9E-4789-B866-396A871BBCCD";
shapes = (
{
alignment = -1;
ref = n;
},
{
alignment = -1;
ref = tilde;
}
);
width = 797;
},
{
associatedMasterId = m01;
layerId = "FA6D07F3-67AB-4197-AE0F-C6DA16090780";
shapes = (
{
ref = n;
},
{
pos = (540,0);
ref = tildecomb;
}
);
width = 540;
},
{
associatedMasterId = m01;
layerId = "F016DAA5-6277-48DB-85B7-A16E4FBC1837";
shapes = (
{
ref = n;
},
{
pos = (540,0);
ref = tildecomb;
}
);
width = 540;
},
{
associatedMasterId = m01;
layerId = m004;
shapes = (
{
alignment = -1;
ref = n;
},
{
alignment = -1;
ref = tilde;
}
);
width = 561;
},
{
associatedMasterId = m01;
layerId = "1B87664F-3DF6-49ED-8A18-1AE9D2315061";
shapes = (
{
alignment = -1;
ref = n;
},
{
alignment = -1;
ref = tilde;
}
);
width = 458;
},
{
associatedMasterId = m01;
layerId = "D3EE29E1-5515-4796-ABD6-6EBB0E0881F5";
shapes = (
{
alignment = -1;
ref = n;
},
{
alignment = -1;
ref = tilde;
}
);
width = 517;
},
{
associatedMasterId = m01;
layerId = "618F0741-6CEE-4EA5-8BA0-F6DD0854FD27";
shapes = (
{
alignment = -1;
ref = n;
},
{
alignment = -1;
ref = tilde;
}
);
width = 797;
},
{
associatedMasterId = m01;
layerId = "0702365B-B3DB-4010-BE6D-77B620821AE4";
shapes = (
{
ref = n;
},
{
pos = (557,0);
ref = tildecomb;
}
);
width = 557;
},
{
associatedMasterId = m01;
layerId = "078819E6-4F0A-420D-AD92-EA5975CE25E9";
shapes = (
{
ref = n;
},
{
pos = (557,0);
ref = tildecomb;
}
);
width = 557;
}
);
unicode = 241;
}
{
glyphname = odieresis;
kernRight = o;
layers = (
{
layerId = m01;
shapes = (
{
closed = 1;
nodes = (
(375.17,-31,o),
(481.17,71,o),
(494.17,220,cs),
(507.17,367,o),
(407.17,469,o),
(290.17,469,cs),
(162.17,469,o),
(59.17,367,o),
(46.17,220,cs),
(33.17,71,o),
(130.17,-31,o),
(248.17,-31,cs)
);
},
{
closed = 1;
nodes = (
(120.17,336,o),
(190.17,430,o),
(280.17,430,cs),
(369.17,430,o),
(429.17,336,o),
(424.17,220,cs),
(419.17,103,o),
(349.17,8,o),
(260.17,8,cs),
(170.17,8,o),
(110.17,103,o),
(115.17,220,cs)
);
},
{
closed = 1;
nodes = (
(146.361,602,o),
(149.361,576,o),
(151.361,562,cs),
(152.361,541,o),
(181.361,540,o),
(195.361,545,cs),
(224.361,555,o),
(239.361,583,o),
(228.361,610,cs),
(207.361,660,o),
(123.361,655,o),
(134.361,631,cs)
);
},
{
closed = 1;
nodes = (
(314.361,602,o),
(317.361,576,o),
(318.361,562,cs),
(320.361,541,o),
(348.361,540,o),
(363.361,545,cs),
(392.361,555,o),
(406.361,583,o),
(395.361,610,cs),
(374.361,660,o),
(291.361,655,o),
(302.361,631,cs)
);
}
);
width = 524.17;
},
{
associatedMasterId = m01;
layerId = "B95609A4-E58B-4ADE-9779-E0FAA25E41BF";
shapes = (
{
alignment = -1;
ref = o;
},
{
alignment = -1;
ref = dieresis;
}
);
width = 458;
},
{
associatedMasterId = m01;
layerId = "653FFB37-5C59-4C66-B2B8-3358A1461268";
shapes = (
{
alignment = -1;
ref = o;
},
{
alignment = -1;
ref = dieresis;
}
);
width = 479;
},
{
associatedMasterId = m01;
layerId = "5494C454-2D9E-4789-B866-396A871BBCCD";
shapes = (
{
alignment = -1;
ref = o;
},
{
alignment = -1;
ref = dieresis;
}
);
width = 707;
},
{
associatedMasterId = m01;
layerId = "FA6D07F3-67AB-4197-AE0F-C6DA16090780";
shapes = (
{
ref = o;
},
{
pos = (520,0);
ref = uni0308;
}
);
width = 520;
},
{
associatedMasterId = m01;
layerId = "F016DAA5-6277-48DB-85B7-A16E4FBC1837";
shapes = (
{
ref = o;
},
{
pos = (520,0);
ref = uni0308;
}
);
width = 520;
},
{
associatedMasterId = m01;
layerId = m004;
shapes = (
{
alignment = -1;
ref = o;
},
{
alignment = -1;
ref = dieresis;
}
);
width = 524;
},
{
associatedMasterId = m01;
layerId = "F83E0AC7-2215-4D72-8215-24DF1C796B30";
shapes = (
{
alignment = -1;
ref = o;
},
{
alignment = -1;
ref = dieresis;
}
);
width = 458;
},
{
associatedMasterId = m01;
layerId = "1DA89B54-C0DD-4958-95BF-64D1F80C1164";
shapes = (
{
alignment = -1;
ref = o;
},
{
alignment = -1;
ref = dieresis;
}
);
width = 479;
},
{
associatedMasterId = m01;
layerId = "49B811ED-7FB0-4381-B66A-5D677536F7E0";
shapes = (
{
alignment = -1;
ref = o;
},
{
alignment = -1;
ref = dieresis;
}
);
width = 707;
},
{
associatedMasterId = m01;
layerId = "612542AC-D537-4A97-996A-008E0F952F83";
shapes = (
{
ref = o;
},
{
pos = (540,0);
ref = uni0308;
}
);
width = 540;
},
{
associatedMasterId = m01;
layerId = "8339E6BC-4394-4B8D-BA59-4577BDA87C1F";
shapes = (
{
ref = o;
},
{
pos = (540,0);
ref = uni0308;
}
);
width = 540;
}
);
metricLeft = a;
unicode = 246;
}
{
glyphname = oe;
kernRight = e;
layers = (
{
layerId = m01;
shapes = (
{
closed = 1;
nodes = (
(330.752,-31,o),
(404.588,12.306,o),
(449.59,83.703,c),
(485.652,12.668,o),
(558.226,-31.681,o),
(646.12,-31,cs),
(777.12,-30,o),
(834.12,73,o),
(841.12,101,c),
(830.12,111,o),
(812.12,108,o),
(805.12,96,cs),
(785.12,63,o),
(727.12,11,o),
(648.12,17,cs),
(550.12,24,o),
(495.12,110,o),
(500.12,212,cs),
(506.12,329,o),
(582.12,435,o),
(684.12,433,cs),
(735.12,432,o),
(769.12,397,o),
(769.12,347,cs),
(769.12,277,o),
(626.12,211,o),
(528.12,211,c),
(524.12,199,o),
(531.12,181,o),
(555.12,181,cs),
(693.12,180,o),
(837.12,254,o),
(837.12,359,cs),
(837.12,390,o),
(808.12,472,o),
(694.12,473,cs),
(614.748,473.656,o),
(525.91,429.131,o),
(472.766,350.152,c),
(438.277,423.774,o),
(367.907,469,o),
(290,469,cs),
(162,469,o),
(59,367,o),
(46,220,cs),
(33,71,o),
(130,-31,o),
(248,-31,cs)
);
},
{
closed = 1;
nodes = (
(120,336,o),
(190,430,o),
(280,430,cs),
(369,430,o),
(429,336,o),
(424,220,cs),
(419,103,o),
(349,8,o),
(260,8,cs),
(170,8,o),
(110,103,o),
(115,220,cs)
);
}
);
width = 884.12;
}
);
metricLeft = o;
metricRight = e;
unicode = 339;
}
{
glyphname = breveinvertedcomb;
layers = (
{
layerId = m01;
shapes = (
{
closed = 1;
nodes = (
(-217.487,700.412,o),
(-286.937,645.88,o),
(-301.48,574.006,cs),
(-303.724,562.917,o),
(-296.48,551.006,o),
(-288.48,548.006,c),
(-258.526,608.913,o),
(-217.836,646.9,o),
(-150.741,647.006,cs),
(-83.643,647.112,o),
(-41.956,608.913,o),
(-12.002,548.006,c),
(-4.002,551.006,o),
(3.242,562.917,o),
(0.998,574.006,cs),
(-13.545,645.88,o),
(-82.995,700.587,o),
(-150.313,700.5,cs)
);
}
);
width = 69.52;
}
);
unicode = 785;
}
{
glyphname = quotedblleft;
layers = (
{
layerId = m01;
shapes = (
{
closed = 1;
nodes = (
(307.4,462,o),
(253.4,423,o),
(222.4,429,cs),
(212.4,430,o),
(206.4,437,o),
(202.4,450,cs),
(178.4,533,o),
(210.4,640,o),
(289.4,693,cs),
(299.4,699,o),
(310.4,693,o),
(313.4,682,c),
(252.4,632,o),
(238.4,558,o),
(259.4,513,cs),
(265.4,501,o),
(288.4,500,o),
(294.4,487,cs)
);
},
{
closed = 1;
nodes = (
(32.4,533,o),
(63.4,639,o),
(143.4,692,cs),
(153.4,699,o),
(164.4,692,o),
(166.4,681,c),
(106.4,631,o),
(92.4,558,o),
(112.4,512,c),
(118.4,501,o),
(142.4,499,o),
(147.4,487,cs),
(160.4,461,o),
(107.4,423,o),
(76.4,429,cs),
(65.4,431,o),
(59.4,437,o),
(55.4,451,cs)
);
}
);
width = 348.4;
},
{
associatedMasterId = m01;
layerId = "B95609A4-E58B-4ADE-9779-E0FAA25E41BF";
width = 225;
},
{
associatedMasterId = m01;
layerId = "653FFB37-5C59-4C66-B2B8-3358A1461268";
shapes = (
{
closed = 1;
nodes = (
(73,487,o),
(64,472,q),
(54,485,o),
(54,513,qs),
(54,581,o),
(103,631,qs),
(105,633,o),
(101,639,o),
(98,639,qs),
(96,639,o),
(95,638,qs),
(60,604,o),
(24,535,o),
(24,495,qs),
(24,453,o),
(58,408,o),
(88,408,qs),
(134,408,o),
(134,448,qs),
(134,465,o),
(113,487,o),
(95,487,qs)
);
},
{
closed = 1;
nodes = (
(220,487,o),
(211,472,q),
(201,485,o),
(201,513,qs),
(201,581,o),
(250,631,qs),
(252,633,o),
(248,639,o),
(245,639,qs),
(243,639,o),
(242,638,qs),
(207,604,o),
(171,535,o),
(171,495,qs),
(171,453,o),
(205,408,o),
(235,408,qs),
(281,408,o),
(281,448,qs),
(281,465,o),
(260,487,o),
(242,487,qs)
);
}
);
userData = {
assembly = "NPUSHB[ ]	/* 48 values pushed */
41 19 2 0 1 1 74 5 3 4 3 1 0 0 1 87 5 3 4 3 1 1 0 95 2 1 0 1 0 79 22 22 0 0 22 43 22 42 27 25 0 21 0 20 35 6 9 21 
CALL[ ]	/* CallFunction */";
};
width = 304;
},
{
associatedMasterId = m01;
layerId = "5494C454-2D9E-4789-B866-396A871BBCCD";
shapes = (
{
closed = 1;
nodes = (
(502,601,o),
(459,554,o),
(401,572,cs),
(351,587,o),
(333,633,o),
(350,687,cs),
(372,756,o),
(409,783,o),
(464,801,cs),
(469,802,o),
(485,780,o),
(482,779,cs),
(453,766,o),
(416,746,o),
(414,697,cs),
(413,681,o),
(465,714,o),
(485,655,cs)
);
},
{
closed = 1;
nodes = (
(293,601,o),
(250,554,o),
(192,572,cs),
(142,587,o),
(124,633,o),
(141,687,cs),
(163,756,o),
(200,783,o),
(255,801,cs),
(260,802,o),
(276,780,o),
(273,779,cs),
(244,766,o),
(207,746,o),
(205,697,cs),
(204,681,o),
(256,714,o),
(276,655,cs)
);
}
);
vertWidth = 1000;
width = 623;
},
{
associatedMasterId = m01;
layerId = "FA6D07F3-67AB-4197-AE0F-C6DA16090780";
shapes = (
{
ref = quoteleft;
},
{
pos = (145,0);
ref = quoteleft;
}
);
vertWidth = 1000;
width = 385;
},
{
associatedMasterId = m01;
layerId = "F016DAA5-6277-48DB-85B7-A16E4FBC1837";
shapes = (
{
ref = quoteleft;
},
{
pos = (145,0);
ref = quoteleft;
}
);
vertWidth = 1000;
width = 385;
},
{
associatedMasterId = m01;
layerId = m004;
shapes = (
{
closed = 1;
nodes = (
(191,433,o),
(175,436,cs),
(165,438,o),
(161,450,o),
(161,460,cs),
(158,548,o),
(213,653,o),
(321,693,cs),
(327,695,o),
(337,696,o),
(341,688,cs),
(345,680,o),
(340,673,o),
(335,670,cs),
(280,642,o),
(227,556,o),
(238,512,cs),
(242,501,o),
(255,496,o),
(260,480,cs),
(262,473,o),
(261,463,o),
(250,456,cs),
(238,447,o)
);
},
{
closed = 1;
nodes = (
(41,433,o),
(25,436,cs),
(15,438,o),
(11,450,o),
(11,460,cs),
(8,548,o),
(63,653,o),
(171,693,cs),
(177,695,o),
(187,696,o),
(191,688,cs),
(195,680,o),
(190,673,o),
(185,670,cs),
(130,642,o),
(77,556,o),
(88,512,cs),
(92,501,o),
(105,496,o),
(110,480,cs),
(112,473,o),
(111,463,o),
(100,456,cs),
(88,447,o)
);
}
);
width = 350;
},
{
associatedMasterId = m01;
layerId = "AC6A8597-1292-4968-8CA8-B27CFAC5EAFF";
width = 225;
},
{
associatedMasterId = m01;
layerId = "FEC28B6A-BEC1-4C5C-9C6D-2262C2719A39";
shapes = (
{
closed = 1;
nodes = (
(73,487,o),
(64,472,q),
(54,485,o),
(54,513,qs),
(54,581,o),
(103,631,qs),
(105,633,o),
(101,639,o),
(98,639,qs),
(96,639,o),
(95,638,qs),
(60,604,o),
(24,535,o),
(24,495,qs),
(24,453,o),
(58,408,o),
(88,408,qs),
(134,408,o),
(134,448,qs),
(134,465,o),
(113,487,o),
(95,487,qs)
);
},
{
closed = 1;
nodes = (
(220,487,o),
(211,472,q),
(201,485,o),
(201,513,qs),
(201,581,o),
(250,631,qs),
(252,633,o),
(248,639,o),
(245,639,qs),
(243,639,o),
(242,638,qs),
(207,604,o),
(171,535,o),
(171,495,qs),
(171,453,o),
(205,408,o),
(235,408,qs),
(281,408,o),
(281,448,qs),
(281,465,o),
(260,487,o),
(242,487,qs)
);
}
);
userData = {
assembly = "NPUSHB[ ]	/* 48 values pushed */
41 19 2 0 1 1 74 5 3 4 3 1 0 0 1 87 5 3 4 3 1 1 0 95 2 1 0 1 0 79 22 22 0 0 22 43 22 42 27 25 0 21 0 20 35 6 9 21 
CALL[ ]	/* CallFunction */";
};
width = 304;
},
{
associatedMasterId = m01;
layerId = "F6E0BE20-F9E4-4857-AE59-C6E8BC04342F";
shapes = (
{
closed = 1;
nodes = (
(502,601,o),
(459,554,o),
(401,572,cs),
(351,587,o),
(333,633,o),
(350,687,cs),
(372,756,o),
(409,783,o),
(464,801,cs),
(469,802,o),
(485,780,o),
(482,779,cs),
(453,766,o),
(416,746,o),
(414,697,cs),
(413,681,o),
(465,714,o),
(485,655,cs)
);
},
{
closed = 1;
nodes = (
(293,601,o),
(250,554,o),
(192,572,cs),
(142,587,o),
(124,633,o),
(141,687,cs),
(163,756,o),
(200,783,o),
(255,801,cs),
(260,802,o),
(276,780,o),
(273,779,cs),
(244,766,o),
(207,746,o),
(205,697,cs),
(204,681,o),
(256,714,o),
(276,655,cs)
);
}
);
vertWidth = 1000;
width = 623;
},
{
associatedMasterId = m01;
layerId = "34A8EB08-F564-452A-BB53-E86D1DE9DE7C";
shapes = (
{
ref = quoteleft;
},
{
pos = (145,0);
ref = quoteleft;
}
);
vertWidth = 1000;
width = 385;
},
{
associatedMasterId = m01;
layerId = "17147896-CE0C-43DA-9482-C97D45EC1A2A";
shapes = (
{
ref = quoteleft;
},
{
pos = (145,0);
ref = quoteleft;
}
);
vertWidth = 1000;
width = 385;
}
);
unicode = 8220;
}
{
glyphname = perthousand;
layers = (
{
layerId = m01;
shapes = (
{
closed = 1;
nodes = (
(698.03,673,l),
(687.03,688,o),
(646.839,697.135,o),
(632.34,676.257,cs),
(146.03,-24,l),
(157.03,-39,o),
(197.221,-48.135,o),
(211.72,-27.257,cs)
);
},
{
closed = 1;
nodes = (
(42.363,372,o),
(110.386,316,o),
(186.386,316,cs),
(262.386,316,o),
(332.363,372,o),
(334.03,467,cs),
(335.662,561,o),
(267.674,619,o),
(191.674,619,cs),
(115.674,619,o),
(45.662,561,o),
(44.03,467,cs)
);
},
{
closed = 1;
nodes = (
(103.225,540.541,o),
(145.593,584.804,o),
(195.087,583.076,cs),
(244.581,581.347,o),
(282.163,534.293,o),
(277.564,464.887,cs),
(272.932,394.53,o),
(232.467,350.201,o),
(182.973,351.929,cs),
(133.479,353.657,o),
(97.8,400.645,o),
(100.529,471.069,cs)
);
},
{
closed = 1;
nodes = (
(502.363,92,o),
(570.386,36,o),
(646.386,36,cs),
(722.386,36,o),
(792.363,92,o),
(794.03,187,cs),
(795.662,281,o),
(727.674,339,o),
(651.674,339,cs),
(575.674,339,o),
(505.662,281,o),
(504.03,187,cs)
);
},
{
closed = 1;
nodes = (
(563.225,260.541,o),
(605.593,304.804,o),
(655.087,303.076,cs),
(704.581,301.347,o),
(742.163,254.293,o),
(737.564,184.887,cs),
(732.932,114.53,o),
(692.467,70.201,o),
(642.973,71.929,cs),
(593.479,73.657,o),
(557.8,120.645,o),
(560.529,191.069,cs)
);
},
{
closed = 1;
nodes = (
(842.363,92,o),
(910.386,36,o),
(986.386,36,cs),
(1062.386,36,o),
(1132.363,92,o),
(1134.03,187,cs),
(1135.662,281,o),
(1067.674,339,o),
(991.674,339,cs),
(915.674,339,o),
(845.662,281,o),
(844.03,187,cs)
);
},
{
closed = 1;
nodes = (
(903.225,260.541,o),
(945.593,304.804,o),
(995.087,303.076,cs),
(1044.581,301.347,o),
(1082.163,254.293,o),
(1077.564,184.887,cs),
(1072.932,114.53,o),
(1032.467,70.201,o),
(982.973,71.929,cs),
(933.479,73.657,o),
(897.8,120.645,o),
(900.529,191.069,cs)
);
}
);
width = 1189.06;
},
{
associatedMasterId = m01;
layerId = "B95609A4-E58B-4ADE-9779-E0FAA25E41BF";
width = 600;
},
{
associatedMasterId = m01;
layerId = "653FFB37-5C59-4C66-B2B8-3358A1461268";
width = 600;
},
{
associatedMasterId = m01;
layerId = "5494C454-2D9E-4789-B866-396A871BBCCD";
shapes = (
{
closed = 1;
nodes = (
(670,685,l),
(719,685,l),
(144,-87,l),
(95,-87,l)
);
},
{
closed = 1;
nodes = (
(13,420,o),
(157,232,o),
(338,386,cs),
(558,573,o),
(342,721,o),
(192,584,cs)
);
},
{
closed = 1;
nodes = (
(189,288,o),
(77,421,o),
(209,551,cs),
(328,668,o),
(484,585,o),
(326,426,cs)
);
},
{
closed = 1;
nodes = (
(213,-3,o),
(359,-184,o),
(524,-17,cs),
(739,201,o),
(529,328,o),
(379,171,cs)
);
},
{
closed = 1;
nodes = (
(377,-119,o),
(284,-1,o),
(403,138,cs),
(517,271,o),
(667,193,o),
(508,22,cs)
);
},
{
closed = 1;
nodes = (
(464,-91,o),
(628,-203,o),
(792,-33,cs),
(1006,189,o),
(776,284,o),
(641,122,cs)
);
},
{
closed = 1;
nodes = (
(640,-156,o),
(542,-58,o),
(658,86,cs),
(769,223,o),
(916,177,o),
(771,2,cs)
);
}
);
vertWidth = 1000;
width = 1000;
},
{
associatedMasterId = m01;
layerId = "FA6D07F3-67AB-4197-AE0F-C6DA16090780";
shapes = (
{
closed = 1;
nodes = (
(652,159,o),
(652,251,qs),
(652,266,ls),
(652,358,o),
(587,447,o),
(519,447,qs),
(451,447,o),
(385,358,o),
(385,266,qs),
(385,251,ls),
(385,159,o),
(451,70,o),
(519,70,qs),
(587,70,o)
);
},
{
closed = 1;
nodes = (
(960,159,o),
(960,251,qs),
(960,266,ls),
(960,358,o),
(895,447,o),
(827,447,qs),
(759,447,o),
(693,358,o),
(693,266,qs),
(693,251,ls),
(693,159,o),
(759,70,o),
(827,70,qs),
(895,70,o)
);
},
{
closed = 1;
nodes = (
(317,499,o),
(317,591,qs),
(317,606,ls),
(317,698,o),
(252,787,o),
(184,787,qs),
(116,787,o),
(50,698,o),
(50,606,qs),
(50,591,ls),
(50,499,o),
(116,410,o),
(184,410,qs),
(252,410,o)
);
},
{
closed = 1;
nodes = (
(433,251,qs),
(433,266,ls),
(433,403,o),
(519,403,qs),
(604,403,o),
(604,266,qs),
(604,251,ls),
(604,114,o),
(519,114,qs),
(433,114,o)
);
},
{
closed = 1;
nodes = (
(741,251,qs),
(741,266,ls),
(741,403,o),
(827,403,qs),
(912,403,o),
(912,266,qs),
(912,251,ls),
(912,114,o),
(827,114,qs),
(741,114,o)
);
},
{
closed = 1;
nodes = (
(98,591,qs),
(98,606,ls),
(98,743,o),
(184,743,qs),
(269,743,o),
(269,606,qs),
(269,591,ls),
(269,454,o),
(184,454,qs),
(98,454,o)
);
},
{
closed = 1;
nodes = (
(190,70,l),
(547,790,l),
(496,790,l),
(140,70,l)
);
}
);
vertWidth = 1000;
width = 990;
},
{
associatedMasterId = m01;
layerId = "F016DAA5-6277-48DB-85B7-A16E4FBC1837";
shapes = (
{
closed = 1;
nodes = (
(652,159,o),
(652,251,qs),
(652,266,ls),
(652,358,o),
(587,447,o),
(519,447,qs),
(451,447,o),
(385,358,o),
(385,266,qs),
(385,251,ls),
(385,159,o),
(451,70,o),
(519,70,qs),
(587,70,o)
);
},
{
closed = 1;
nodes = (
(960,159,o),
(960,251,qs),
(960,266,ls),
(960,358,o),
(895,447,o),
(827,447,qs),
(759,447,o),
(693,358,o),
(693,266,qs),
(693,251,ls),
(693,159,o),
(759,70,o),
(827,70,qs),
(895,70,o)
);
},
{
closed = 1;
nodes = (
(317,499,o),
(317,591,qs),
(317,606,ls),
(317,698,o),
(252,787,o),
(184,787,qs),
(116,787,o),
(50,698,o),
(50,606,qs),
(50,591,ls),
(50,499,o),
(116,410,o),
(184,410,qs),
(252,410,o)
);
},
{
closed = 1;
nodes = (
(433,251,qs),
(433,266,ls),
(433,403,o),
(519,403,qs),
(604,403,o),
(604,266,qs),
(604,251,ls),
(604,114,o),
(519,114,qs),
(433,114,o)
);
},
{
closed = 1;
nodes = (
(741,251,qs),
(741,266,ls),
(741,403,o),
(827,403,qs),
(912,403,o),
(912,266,qs),
(912,251,ls),
(912,114,o),
(827,114,qs),
(741,114,o)
);
},
{
closed = 1;
nodes = (
(98,591,qs),
(98,606,ls),
(98,743,o),
(184,743,qs),
(269,743,o),
(269,606,qs),
(269,591,ls),
(269,454,o),
(184,454,qs),
(98,454,o)
);
},
{
closed = 1;
nodes = (
(190,70,l),
(547,790,l),
(496,790,l),
(140,70,l)
);
}
);
vertWidth = 1000;
width = 990;
},
{
associatedMasterId = m01;
layerId = m004;
width = 600;
},
{
associatedMasterId = m01;
layerId = "89632CAB-BF51-4FA3-A96D-A788EC67625F";
width = 600;
},
{
associatedMasterId = m01;
layerId = "BE5B14EB-442C-4EE2-93C8-2DA9E6424EAE";
width = 600;
},
{
associatedMasterId = m01;
layerId = "B2A7F913-A8E2-48ED-9C9A-B74937226A57";
shapes = (
{
closed = 1;
nodes = (
(670,685,l),
(719,685,l),
(144,-87,l),
(95,-87,l)
);
},
{
closed = 1;
nodes = (
(13,420,o),
(157,232,o),
(338,386,cs),
(558,573,o),
(342,721,o),
(192,584,cs)
);
},
{
closed = 1;
nodes = (
(189,288,o),
(77,421,o),
(209,551,cs),
(328,668,o),
(484,585,o),
(326,426,cs)
);
},
{
closed = 1;
nodes = (
(213,-3,o),
(359,-184,o),
(524,-17,cs),
(739,201,o),
(529,328,o),
(379,171,cs)
);
},
{
closed = 1;
nodes = (
(377,-119,o),
(284,-1,o),
(403,138,cs),
(517,271,o),
(667,193,o),
(508,22,cs)
);
},
{
closed = 1;
nodes = (
(464,-91,o),
(628,-203,o),
(792,-33,cs),
(1006,189,o),
(776,284,o),
(641,122,cs)
);
},
{
closed = 1;
nodes = (
(640,-156,o),
(542,-58,o),
(658,86,cs),
(769,223,o),
(916,177,o),
(771,2,cs)
);
}
);
vertWidth = 1000;
width = 1000;
},
{
associatedMasterId = m01;
layerId = "CA36912B-3F5A-4413-A9C6-588879B01846";
shapes = (
{
closed = 1;
nodes = (
(652,159,o),
(652,251,qs),
(652,266,ls),
(652,358,o),
(587,447,o),
(519,447,qs),
(451,447,o),
(385,358,o),
(385,266,qs),
(385,251,ls),
(385,159,o),
(451,70,o),
(519,70,qs),
(587,70,o)
);
},
{
closed = 1;
nodes = (
(960,159,o),
(960,251,qs),
(960,266,ls),
(960,358,o),
(895,447,o),
(827,447,qs),
(759,447,o),
(693,358,o),
(693,266,qs),
(693,251,ls),
(693,159,o),
(759,70,o),
(827,70,qs),
(895,70,o)
);
},
{
closed = 1;
nodes = (
(317,499,o),
(317,591,qs),
(317,606,ls),
(317,698,o),
(252,787,o),
(184,787,qs),
(116,787,o),
(50,698,o),
(50,606,qs),
(50,591,ls),
(50,499,o),
(116,410,o),
(184,410,qs),
(252,410,o)
);
},
{
closed = 1;
nodes = (
(433,251,qs),
(433,266,ls),
(433,403,o),
(519,403,qs),
(604,403,o),
(604,266,qs),
(604,251,ls),
(604,114,o),
(519,114,qs),
(433,114,o)
);
},
{
closed = 1;
nodes = (
(741,251,qs),
(741,266,ls),
(741,403,o),
(827,403,qs),
(912,403,o),
(912,266,qs),
(912,251,ls),
(912,114,o),
(827,114,qs),
(741,114,o)
);
},
{
closed = 1;
nodes = (
(98,591,qs),
(98,606,ls),
(98,743,o),
(184,743,qs),
(269,743,o),
(269,606,qs),
(269,591,ls),
(269,454,o),
(184,454,qs),
(98,454,o)
);
},
{
closed = 1;
nodes = (
(190,70,l),
(547,790,l),
(496,790,l),
(140,70,l)
);
}
);
vertWidth = 1000;
width = 990;
},
{
associatedMasterId = m01;
layerId = "F78F0DBA-5146-47CC-8CD7-36A75E3E6366";
shapes = (
{
closed = 1;
nodes = (
(652,159,o),
(652,251,qs),
(652,266,ls),
(652,358,o),
(587,447,o),
(519,447,qs),
(451,447,o),
(385,358,o),
(385,266,qs),
(385,251,ls),
(385,159,o),
(451,70,o),
(519,70,qs),
(587,70,o)
);
},
{
closed = 1;
nodes = (
(960,159,o),
(960,251,qs),
(960,266,ls),
(960,358,o),
(895,447,o),
(827,447,qs),
(759,447,o),
(693,358,o),
(693,266,qs),
(693,251,ls),
(693,159,o),
(759,70,o),
(827,70,qs),
(895,70,o)
);
},
{
closed = 1;
nodes = (
(317,499,o),
(317,591,qs),
(317,606,ls),
(317,698,o),
(252,787,o),
(184,787,qs),
(116,787,o),
(50,698,o),
(50,606,qs),
(50,591,ls),
(50,499,o),
(116,410,o),
(184,410,qs),
(252,410,o)
);
},
{
closed = 1;
nodes = (
(433,251,qs),
(433,266,ls),
(433,403,o),
(519,403,qs),
(604,403,o),
(604,266,qs),
(604,251,ls),
(604,114,o),
(519,114,qs),
(433,114,o)
);
},
{
closed = 1;
nodes = (
(741,251,qs),
(741,266,ls),
(741,403,o),
(827,403,qs),
(912,403,o),
(912,266,qs),
(912,251,ls),
(912,114,o),
(827,114,qs),
(741,114,o)
);
},
{
closed = 1;
nodes = (
(98,591,qs),
(98,606,ls),
(98,743,o),
(184,743,qs),
(269,743,o),
(269,606,qs),
(269,591,ls),
(269,454,o),
(184,454,qs),
(98,454,o)
);
},
{
closed = 1;
nodes = (
(190,70,l),
(547,790,l),
(496,790,l),
(140,70,l)
);
}
);
vertWidth = 1000;
width = 990;
}
);
unicode = 8240;
}
{
glyphname = guilsinglright;
layers = (
{
layerId = m01;
shapes = (
{
closed = 1;
nodes = (
(109,421,o),
(85,435,o),
(50,424,c),
(157,261,ls),
(170,241,o),
(188,236,o),
(221,231,c),
(221,230,l),
(188,225,o),
(170,220,o),
(157,200,cs),
(50,28,l),
(85,17,o),
(108,30,o),
(116,42,cs),
(234,231,l),
(116,410,ls)
);
}
);
width = 330;
},
{
associatedMasterId = m01;
layerId = "B95609A4-E58B-4ADE-9779-E0FAA25E41BF";
shapes = (
{
closed = 1;
nodes = (
(59,161,o),
(236,-14,o),
(364,-14,qs),
(492,-14,o),
(670,161,o),
(670,288,qs),
(670,413,o),
(494,586,o),
(366,586,qs),
(235,586,o),
(59,416,o),
(59,289,qs),
(59,288,ls)
);
},
{
closed = 1;
nodes = (
(147,412,o),
(267,564,o),
(368,564,qs),
(457,564,o),
(582,418,o),
(582,283,qs),
(582,179,o),
(471,7,o),
(363,7,qs),
(266,7,o),
(147,162,o),
(147,288,qs),
(147,287,ls)
);
},
{
closed = 1;
nodes = (
(491,708,o),
(470,684,o),
(455,684,qs),
(438,684,o),
(403,697,o),
(385,704,qs),
(383,705,o),
(381,706,o),
(379,707,qs),
(360,716,o),
(321,730,o),
(300,730,qs),
(269,730,o),
(219,679,o),
(218,646,q),
(237,645,l),
(242,669,o),
(262,691,o),
(278,691,qs),
(293,691,o),
(327,676,o),
(346,667,qs),
(366,657,o),
(409,642,o),
(433,642,qs),
(465,642,o),
(510,692,o),
(511,728,q),
(493,728,l),
(493,727,ls)
);
}
);
userData = {
assembly = "RTG[ ]	/* RoundToGrid */
SVTCA[1]	/* SetFreedomAndProjectionVectorToAxis */
PUSHB[ ]	/* 1 value pushed */
0 
PUSHB[ ]	/* 1 value pushed */
0 
NPUSHW[ ]	/* 4 values pushed */
1 43 43 0 
CALL[ ]	/* CallFunction */
PUSHB[ ]	/* 1 value pushed */
0 
PUSHB[ ]	/* 1 value pushed */
0 
NPUSHW[ ]	/* 4 values pushed */
87 6 19 0 
CALL[ ]	/* CallFunction */
NPUSHB[ ]	/* 2 values pushed */
25 1 
NPUSHB[ ]	/* 2 values pushed */
12 1 
NPUSHW[ ]	/* 4 values pushed */
87 13 0 0 
CALL[ ]	/* CallFunction */
IUP[1]	/* InterpolateUntPts */
RTG[ ]	/* RoundToGrid */
SVTCA[0]	/* SetFreedomAndProjectionVectorToAxis */
PUSHB[ ]	/* 1 value pushed */
0 
PUSHB[ ]	/* 1 value pushed */
0 
NPUSHW[ ]	/* 4 values pushed */
21 3 22 0 
CALL[ ]	/* CallFunction */
PUSHB[ ]	/* 1 value pushed */
0 
PUSHB[ ]	/* 1 value pushed */
0 
NPUSHW[ ]	/* 4 values pushed */
21 16 9 0 
CALL[ ]	/* CallFunction */
PUSHW[ ]	/* 1 value pushed */
22 
PUSHB[ ]	/* 1 value pushed */
1 
MIAP[1]	/* MoveIndirectAbsPt */
NPUSHB[ ]	/* 2 values pushed */
3 1 
PUSHB[ ]	/* 1 value pushed */
1 
LOOPCALL[ ]	/* LoopAndCallFunction */
PUSHW[ ]	/* 1 value pushed */
16 
PUSHB[ ]	/* 1 value pushed */
4 
MIAP[1]	/* MoveIndirectAbsPt */
NPUSHB[ ]	/* 2 values pushed */
9 1 
PUSHB[ ]	/* 1 value pushed */
1 
LOOPCALL[ ]	/* LoopAndCallFunction */
IUP[0]	/* InterpolateUntPts */";
};
width = 729;
},
{
associatedMasterId = m01;
layerId = "653FFB37-5C59-4C66-B2B8-3358A1461268";
shapes = (
{
closed = 1;
nodes = (
(67,364,o),
(60,358,o),
(61,356,q),
(183,200,l),
(61,46,l),
(60,44,o),
(64,39,o),
(66,39,qs),
(68,39,o),
(68,40,q),
(245,189,ls),
(250,194,o),
(250,201,qs),
(250,207,o),
(245,212,qs),
(68,361,l)
);
}
);
userData = {
assembly = "PUSHB[ ]	/* 4 values pushed */
14 6 1 48 
CALL[ ]	/* CallFunction */";
};
width = 304;
},
{
associatedMasterId = m01;
layerId = "5494C454-2D9E-4789-B866-396A871BBCCD";
shapes = (
{
closed = 1;
nodes = (
(20,780,l),
(20,740,l),
(729,300,l),
(20,-139,l),
(20,-181,l),
(806,300,l)
);
}
);
vertWidth = 1000;
width = 1000;
},
{
associatedMasterId = m01;
layerId = "FA6D07F3-67AB-4197-AE0F-C6DA16090780";
shapes = (
{
closed = 1;
nodes = (
(227,339,o),
(158,400,o),
(96,466,o),
(77,490,q),
(45,465,l),
(49,455,o),
(77,416,o),
(117,367,o),
(159,320,o),
(176,302,q),
(159,285,o),
(117,238,o),
(77,189,o),
(49,150,o),
(45,140,q),
(77,115,l),
(96,140,o),
(158,205,o),
(227,266,o),
(255,285,q),
(255,320,l)
);
}
);
vertWidth = 1000;
width = 300;
},
{
associatedMasterId = m01;
layerId = "F016DAA5-6277-48DB-85B7-A16E4FBC1837";
shapes = (
{
closed = 1;
nodes = (
(227,339,o),
(158,400,o),
(96,466,o),
(77,490,q),
(45,465,l),
(49,455,o),
(77,416,o),
(117,367,o),
(159,320,o),
(176,302,q),
(159,285,o),
(117,238,o),
(77,189,o),
(49,150,o),
(45,140,q),
(77,115,l),
(96,140,o),
(158,205,o),
(227,266,o),
(255,285,q),
(255,320,l)
);
}
);
vertWidth = 1000;
width = 300;
},
{
associatedMasterId = m01;
layerId = m004;
width = 960;
},
{
associatedMasterId = m01;
layerId = "AA79F123-3C40-4ACB-BBF8-9BB538D307D7";
shapes = (
{
closed = 1;
nodes = (
(59,161,o),
(236,-14,o),
(364,-14,qs),
(492,-14,o),
(670,161,o),
(670,288,qs),
(670,413,o),
(494,586,o),
(366,586,qs),
(235,586,o),
(59,416,o),
(59,289,qs),
(59,288,ls)
);
},
{
closed = 1;
nodes = (
(147,412,o),
(267,564,o),
(368,564,qs),
(457,564,o),
(582,418,o),
(582,283,qs),
(582,179,o),
(471,7,o),
(363,7,qs),
(266,7,o),
(147,162,o),
(147,288,qs),
(147,287,ls)
);
},
{
closed = 1;
nodes = (
(491,708,o),
(470,684,o),
(455,684,qs),
(438,684,o),
(403,697,o),
(385,704,qs),
(383,705,o),
(381,706,o),
(379,707,qs),
(360,716,o),
(321,730,o),
(300,730,qs),
(269,730,o),
(219,679,o),
(218,646,q),
(237,645,l),
(242,669,o),
(262,691,o),
(278,691,qs),
(293,691,o),
(327,676,o),
(346,667,qs),
(366,657,o),
(409,642,o),
(433,642,qs),
(465,642,o),
(510,692,o),
(511,728,q),
(493,728,l),
(493,727,ls)
);
}
);
userData = {
assembly = "RTG[ ]	/* RoundToGrid */
SVTCA[1]	/* SetFreedomAndProjectionVectorToAxis */
PUSHB[ ]	/* 1 value pushed */
0 
PUSHB[ ]	/* 1 value pushed */
0 
NPUSHW[ ]	/* 4 values pushed */
1 43 43 0 
CALL[ ]	/* CallFunction */
PUSHB[ ]	/* 1 value pushed */
0 
PUSHB[ ]	/* 1 value pushed */
0 
NPUSHW[ ]	/* 4 values pushed */
87 6 19 0 
CALL[ ]	/* CallFunction */
NPUSHB[ ]	/* 2 values pushed */
25 1 
NPUSHB[ ]	/* 2 values pushed */
12 1 
NPUSHW[ ]	/* 4 values pushed */
87 13 0 0 
CALL[ ]	/* CallFunction */
IUP[1]	/* InterpolateUntPts */
RTG[ ]	/* RoundToGrid */
SVTCA[0]	/* SetFreedomAndProjectionVectorToAxis */
PUSHB[ ]	/* 1 value pushed */
0 
PUSHB[ ]	/* 1 value pushed */
0 
NPUSHW[ ]	/* 4 values pushed */
21 3 22 0 
CALL[ ]	/* CallFunction */
PUSHB[ ]	/* 1 value pushed */
0 
PUSHB[ ]	/* 1 value pushed */
0 
NPUSHW[ ]	/* 4 values pushed */
21 16 9 0 
CALL[ ]	/* CallFunction */
PUSHW[ ]	/* 1 value pushed */
22 
PUSHB[ ]	/* 1 value pushed */
1 
MIAP[1]	/* MoveIndirectAbsPt */
NPUSHB[ ]	/* 2 values pushed */
3 1 
PUSHB[ ]	/* 1 value pushed */
1 
LOOPCALL[ ]	/* LoopAndCallFunction */
PUSHW[ ]	/* 1 value pushed */
16 
PUSHB[ ]	/* 1 value pushed */
4 
MIAP[1]	/* MoveIndirectAbsPt */
NPUSHB[ ]	/* 2 values pushed */
9 1 
PUSHB[ ]	/* 1 value pushed */
1 
LOOPCALL[ ]	/* LoopAndCallFunction */
IUP[0]	/* InterpolateUntPts */";
};
width = 729;
},
{
associatedMasterId = m01;
layerId = "6E19029B-F1CD-4739-885D-74B97E02C9BD";
shapes = (
{
closed = 1;
nodes = (
(67,364,o),
(60,358,o),
(61,356,q),
(183,200,l),
(61,46,l),
(60,44,o),
(64,39,o),
(66,39,qs),
(68,39,o),
(68,40,q),
(245,189,ls),
(250,194,o),
(250,201,qs),
(250,207,o),
(245,212,qs),
(68,361,l)
);
}
);
userData = {
assembly = "PUSHB[ ]	/* 4 values pushed */
14 6 1 48 
CALL[ ]	/* CallFunction */";
};
width = 304;
},
{
associatedMasterId = m01;
layerId = "F59EFC0D-028D-444C-B684-518986A67D44";
shapes = (
{
closed = 1;
nodes = (
(20,780,l),
(20,740,l),
(729,300,l),
(20,-139,l),
(20,-181,l),
(806,300,l)
);
}
);
vertWidth = 1000;
width = 1000;
},
{
associatedMasterId = m01;
layerId = "1666553D-30DE-498A-8A6F-7B6737E9604C";
shapes = (
{
closed = 1;
nodes = (
(227,339,o),
(158,400,o),
(96,466,o),
(77,490,q),
(45,465,l),
(49,455,o),
(77,416,o),
(117,367,o),
(159,320,o),
(176,302,q),
(159,285,o),
(117,238,o),
(77,189,o),
(49,150,o),
(45,140,q),
(77,115,l),
(96,140,o),
(158,205,o),
(227,266,o),
(255,285,q),
(255,320,l)
);
}
);
vertWidth = 1000;
width = 300;
},
{
associatedMasterId = m01;
layerId = "038F3674-5A64-45D4-B382-1E4A9A399717";
shapes = (
{
closed = 1;
nodes = (
(227,339,o),
(158,400,o),
(96,466,o),
(77,490,q),
(45,465,l),
(49,455,o),
(77,416,o),
(117,367,o),
(159,320,o),
(176,302,q),
(159,285,o),
(117,238,o),
(77,189,o),
(49,150,o),
(45,140,q),
(77,115,l),
(96,140,o),
(158,205,o),
(227,266,o),
(255,285,q),
(255,320,l)
);
}
);
vertWidth = 1000;
width = 300;
}
);
unicode = 8250;
}
{
glyphname = radical;
layers = (
{
layerId = m01;
shapes = (
{
closed = 1;
nodes = (
(390.757,-128.584,l),
(643.332,828.584,l),
(588.416,849.188,o),
(571.576,802.037,o),
(562.775,768.624,cs),
(348.816,-43.746,l),
(191.849,343.636,l),
(72.668,343.636,ls),
(51.815,343.636,o),
(42.668,307.037,o),
(42.668,288.738,c),
(149.193,288.738,l),
(323.196,-127.921,l)
);
}
);
width = 666.33;
},
{
associatedMasterId = m01;
layerId = "B95609A4-E58B-4ADE-9779-E0FAA25E41BF";
width = 600;
},
{
associatedMasterId = m01;
layerId = "653FFB37-5C59-4C66-B2B8-3358A1461268";
width = 600;
},
{
associatedMasterId = m01;
layerId = "5494C454-2D9E-4789-B866-396A871BBCCD";
shapes = (
{
closed = 1;
nodes = (
(102,142,l),
(188,219,l),
(279,40,l),
(420,589,l),
(888,589,l),
(888,546,l),
(446,546,l),
(288,-67,l),
(175,156,l),
(124,112,l)
);
}
);
vertWidth = 1000;
width = 1000;
},
{
associatedMasterId = m01;
layerId = "FA6D07F3-67AB-4197-AE0F-C6DA16090780";
shapes = (
{
closed = 1;
nodes = (
(398,-10,o),
(399,-5,qs),
(674,880,l),
(800,880,l),
(800,930,l),
(630,930,l),
(372,75,l),
(204,487,l),
(50,411,l),
(69,374,ls),
(72,369,o),
(77,372,qs),
(170,416,l),
(345,-6,l),
(346,-10,o),
(352,-10,qs),
(392,-10,ls)
);
}
);
vertWidth = 1000;
width = 800;
},
{
associatedMasterId = m01;
layerId = "F016DAA5-6277-48DB-85B7-A16E4FBC1837";
shapes = (
{
closed = 1;
nodes = (
(398,-10,o),
(399,-5,qs),
(674,880,l),
(800,880,l),
(800,930,l),
(630,930,l),
(372,75,l),
(204,487,l),
(50,411,l),
(69,374,ls),
(72,369,o),
(77,372,qs),
(170,416,l),
(345,-6,l),
(346,-10,o),
(352,-10,qs),
(392,-10,ls)
);
}
);
vertWidth = 1000;
width = 800;
},
{
associatedMasterId = m01;
layerId = m004;
width = 600;
},
{
associatedMasterId = m01;
layerId = "B8A988FF-9F85-4F1D-B10A-3B3FDA6959C2";
width = 600;
},
{
associatedMasterId = m01;
layerId = "4FF0133E-7511-4EEA-A5F5-E38924CE11FA";
width = 600;
},
{
associatedMasterId = m01;
layerId = "B0DAC394-E259-4FCC-8C4A-333D5B742F92";
shapes = (
{
closed = 1;
nodes = (
(102,142,l),
(188,219,l),
(279,40,l),
(420,589,l),
(888,589,l),
(888,546,l),
(446,546,l),
(288,-67,l),
(175,156,l),
(124,112,l)
);
}
);
vertWidth = 1000;
width = 1000;
},
{
associatedMasterId = m01;
layerId = "B0B54A4E-B4AD-4D12-817F-519DA167CA96";
shapes = (
{
closed = 1;
nodes = (
(398,-10,o),
(399,-5,qs),
(674,880,l),
(800,880,l),
(800,930,l),
(630,930,l),
(372,75,l),
(204,487,l),
(50,411,l),
(69,374,ls),
(72,369,o),
(77,372,qs),
(170,416,l),
(345,-6,l),
(346,-10,o),
(352,-10,qs),
(392,-10,ls)
);
}
);
vertWidth = 1000;
width = 800;
},
{
associatedMasterId = m01;
layerId = "096C11D8-6A17-49BE-ADC0-4F5D11E8AE03";
shapes = (
{
closed = 1;
nodes = (
(398,-10,o),
(399,-5,qs),
(674,880,l),
(800,880,l),
(800,930,l),
(630,930,l),
(372,75,l),
(204,487,l),
(50,411,l),
(69,374,ls),
(72,369,o),
(77,372,qs),
(170,416,l),
(345,-6,l),
(346,-10,o),
(352,-10,qs),
(392,-10,ls)
);
}
);
vertWidth = 1000;
width = 800;
}
);
unicode = 8730;
}
{
glyphname = lozenge;
layers = (
{
layerId = m01;
shapes = (
{
closed = 1;
nodes = (
(345,-88,o),
(355,-88,o),
(363,-72,cs),
(425,44,o),
(527,162,o),
(627,256,cs),
(640,268,o),
(639,283,o),
(627,294,cs),
(525,391,o),
(430,513,o),
(365,621,cs),
(355,638,o),
(345,638,o),
(335,621,cs),
(270,513,o),
(172,391,o),
(73,295,cs),
(60,282,o),
(61,266,o),
(73,255,cs),
(175,162,o),
(275,44,o),
(337,-72,cs)
);
},
{
closed = 1;
nodes = (
(76.345,266.188,o),
(75.931,282.067,o),
(88,287,cs),
(203,334,o),
(319,463,o),
(344,593,cs),
(345.194,599.211,o),
(354.96,599.239,o),
(356,593,cs),
(377,467,o),
(489,336,o),
(611,288,cs),
(623.928,282.914,o),
(621.983,267.046,o),
(611,263,cs),
(497,221,o),
(380,94,o),
(355,-40,cs),
(353.655,-47.155,o),
(345.311,-47.161,o),
(344,-40,cs),
(318,102,o),
(205,231,o),
(88,263,cs)
);
}
);
width = 700;
},
{
associatedMasterId = m01;
layerId = "B95609A4-E58B-4ADE-9779-E0FAA25E41BF";
width = 600;
},
{
associatedMasterId = m01;
layerId = "653FFB37-5C59-4C66-B2B8-3358A1461268";
width = 600;
},
{
associatedMasterId = m01;
layerId = "5494C454-2D9E-4789-B866-396A871BBCCD";
shapes = (
{
closed = 1;
nodes = (
(493,-167,l),
(892,298,l),
(492,769,l),
(93,298,l)
);
},
{
closed = 1;
nodes = (
(197,298,l),
(490,644,l),
(786,298,l),
(491,-43,l)
);
}
);
vertWidth = 1000;
width = 1000;
},
{
associatedMasterId = m01;
layerId = "FA6D07F3-67AB-4197-AE0F-C6DA16090780";
shapes = (
{
closed = 1;
nodes = (
(600,400,l),
(381,750,l),
(319,750,l),
(100,400,l),
(319,50,l),
(381,50,l)
);
},
{
closed = 1;
nodes = (
(350,705,l),
(538,400,l),
(350,95,l),
(162,400,l)
);
}
);
vertWidth = 1000;
width = 700;
},
{
associatedMasterId = m01;
layerId = "F016DAA5-6277-48DB-85B7-A16E4FBC1837";
shapes = (
{
closed = 1;
nodes = (
(600,400,l),
(381,750,l),
(319,750,l),
(100,400,l),
(319,50,l),
(381,50,l)
);
},
{
closed = 1;
nodes = (
(350,705,l),
(538,400,l),
(350,95,l),
(162,400,l)
);
}
);
vertWidth = 1000;
width = 700;
},
{
associatedMasterId = m01;
layerId = m004;
width = 600;
},
{
associatedMasterId = m01;
layerId = "AACBD697-9CC1-4769-A9D1-D60F6D5F0A24";
width = 600;
},
{
associatedMasterId = m01;
layerId = "B1CFA5E6-9E3B-4E7F-819F-73BC26A8CF7E";
width = 600;
},
{
associatedMasterId = m01;
layerId = "5C8E8A3A-3028-46C2-9B15-210BEB465141";
shapes = (
{
closed = 1;
nodes = (
(493,-167,l),
(892,298,l),
(492,769,l),
(93,298,l)
);
},
{
closed = 1;
nodes = (
(197,298,l),
(490,644,l),
(786,298,l),
(491,-43,l)
);
}
);
vertWidth = 1000;
width = 1000;
},
{
associatedMasterId = m01;
layerId = "F964BACC-D132-4E09-A204-E20AE393B5F2";
shapes = (
{
closed = 1;
nodes = (
(600,400,l),
(381,750,l),
(319,750,l),
(100,400,l),
(319,50,l),
(381,50,l)
);
},
{
closed = 1;
nodes = (
(350,705,l),
(538,400,l),
(350,95,l),
(162,400,l)
);
}
);
vertWidth = 1000;
width = 700;
},
{
associatedMasterId = m01;
layerId = "73B7E708-0D9C-46A1-94D0-7D7EFC918173";
shapes = (
{
closed = 1;
nodes = (
(600,400,l),
(381,750,l),
(319,750,l),
(100,400,l),
(319,50,l),
(381,50,l)
);
},
{
closed = 1;
nodes = (
(350,705,l),
(538,400,l),
(350,95,l),
(162,400,l)
);
}
);
vertWidth = 1000;
width = 700;
}
);
unicode = 9674;
}
{
glyphname = heartWhiteSuit;
layers = (
{
layerId = m01;
shapes = (
{
closed = 1;
nodes = (
(531,-28,o),
(785,273,o),
(785,467,cs),
(785,557,o),
(743,623,o),
(673,643,cs),
(578,670,o),
(494,611,o),
(467,495,cs),
(459,461,o),
(457,426,o),
(455,392,cs),
(455,388,o),
(445,388,o),
(445,392,cs),
(443,426,o),
(441,461,o),
(433,495,cs),
(406,611,o),
(322,670,o),
(227,643,cs),
(155,622,o),
(113,553,o),
(115,458,cs),
(121,239,o),
(374,-28,o),
(450,-28,cs)
);
},
{
closed = 1;
nodes = (
(190,516,o),
(223,569,o),
(278,577,cs),
(389,593,o),
(410,431,o),
(431,345,cs),
(433,334,o),
(467,334,o),
(469,345,cs),
(490,431,o),
(511,593,o),
(622,577,cs),
(679,569,o),
(713,512,o),
(710,444,cs),
(705,342,o),
(631,139,o),
(477,15,cs),
(456,-2,o),
(443,-2,o),
(422,15,cs),
(264,143,o),
(191,350,o),
(190,453,cs)
);
}
);
width = 900;
}
);
unicode = 9825;
}
{
glyphname = blackFourPointedStar;
layers = (
{
layerId = m01;
shapes = (
{
closed = 1;
nodes = (
(498,554,o),
(539,468,o),
(557,434,c),
(566,423,l),
(600,407,o),
(656,384,o),
(656,345,cs),
(656,305,o),
(600,283,o),
(566,265,c),
(557,256,l),
(539,222,o),
(498,136,o),
(448,136,cs),
(399,136,o),
(356,222,o),
(340,256,c),
(329,264,l),
(295,282,o),
(239,304,o),
(239,344,cs),
(239,383,o),
(295,406,o),
(329,422,c),
(340,434,l),
(356,468,o),
(399,554,o),
(448,554,cs)
);
},
{
closed = 1;
nodes = (
(162.749,304.071,o),
(219.522,283.176,o),
(327.633,251.402,c),
(366.274,141.78,o),
(411.167,-42.532,o),
(423,-151,cs),
(426,-175,o),
(470,-175,o),
(473,-151,cs),
(484.886,-42.048,o),
(532.089,143.426,o),
(568.94,252.864,c),
(676.03,284.379,o),
(732.542,305.153,o),
(792,322,cs),
(814,328,o),
(814,362,o),
(792,368,cs),
(732.611,384.827,o),
(676.161,404.593,o),
(569.314,436.026,c),
(532.409,545.316,o),
(484.926,731.679,o),
(473,841,cs),
(470,865,o),
(426,865,o),
(423,841,cs),
(411.045,731.417,o),
(363.363,544.423,o),
(326.421,435.242,c),
(219.097,403.684,o),
(162.525,383.865,o),
(103,367,cs),
(81,361,o),
(81,327,o),
(103,321,cs)
);
}
);
width = 900;
}
);
unicode = 10022;
}
{
glyphname = whiteFourPointedStar;
layers = (
{
layerId = m01;
shapes = (
{
closed = 1;
nodes = (
(511.934,842.439,o),
(523.237,833.275,o),
(527.453,817.381,cs),
(554.698,714.668,o),
(562.091,631.308,o),
(628.558,534.749,cs),
(688.617,447.499,o),
(740.615,381.496,o),
(849.023,354.624,cs),
(891.432,344.112,o),
(889.09,300.446,o),
(848.375,290.764,cs),
(742.134,265.502,o),
(701.937,222.436,o),
(643.199,137.104,cs),
(575.213,38.339,o),
(552.184,-44.039,o),
(528.61,-161.85,cs),
(524.908,-180.347,o),
(512.327,-189.753,o),
(499.881,-190.069,cs),
(487.435,-189.753,o),
(475.136,-180.347,o),
(471.434,-161.85,cs),
(447.86,-44.039,o),
(424.831,38.339,o),
(356.845,137.104,cs),
(298.107,222.436,o),
(257.91,265.502,o),
(151.669,290.764,cs),
(110.954,300.446,o),
(108.612,344.112,o),
(151.021,354.624,cs),
(259.429,381.496,o),
(311.427,447.499,o),
(371.486,534.749,cs),
(437.953,631.308,o),
(445.346,714.668,o),
(472.591,817.381,cs),
(476.807,833.275,o),
(488.392,842.439,o),
(500.163,842.439,cs)
);
},
{
closed = 1;
nodes = (
(440.677,286.889,o),
(471.985,112.412,o),
(480.053,-148.925,cs),
(480.426,-161,o),
(490.066,-167.136,o),
(499.881,-167.336,cs),
(509.696,-167.136,o),
(519.618,-160.999,o),
(519.991,-148.925,cs),
(528.059,112.412,o),
(559.367,286.889,o),
(847.222,300.924,cs),
(876.745,302.364,o),
(878.928,342.155,o),
(847.228,343.833,cs),
(574.303,358.274,o),
(527.516,532.942,o),
(518.02,813.288,cs),
(517.648,824.258,o),
(509.212,830.873,o),
(500.163,830.873,cs),
(491.115,830.873,o),
(482.396,824.258,o),
(482.024,813.288,cs),
(472.528,532.942,o),
(425.741,358.274,o),
(152.816,343.833,cs),
(121.116,342.155,o),
(123.299,302.364,o),
(152.822,300.924,cs)
);
}
);
width = 1000;
}
);
unicode = 10023;
}
{
glyphname = whitecornerbracketright;
layers = (
{
layerId = m01;
shapes = (
{
closed = 1;
nodes = (
(193.753,-40.58,l),
(178.91,-28.705,o),
(164.593,-23.472,o),
(147.652,-23.472,cs),
(85.393,-23.472,ls),
(12.393,-23.472,o),
(9.393,-99.472,o),
(11.393,-145.472,c),
(302.393,-145.472,l),
(302.393,495.528,l),
(278.393,495.528,o),
(176.393,507.528,o),
(176.393,410.528,cs),
(176.393,6.971,ls),
(176.393,-10.265,o),
(182.243,-24.619,o),
(194.662,-39.563,c)
);
},
{
closed = 1;
nodes = (
(262.393,-106.472,l),
(44.393,-106.472,l),
(44.393,-91.472,o),
(46.393,-63.472,o),
(84.393,-63.472,cs),
(217.393,-63.472,l),
(217.393,420.528,ls),
(217.393,460.528,o),
(247.393,460.528,o),
(262.393,460.528,c)
);
}
);
width = 450;
},
{
associatedMasterId = m01;
layerId = "B95609A4-E58B-4ADE-9779-E0FAA25E41BF";
width = 600;
},
{
associatedMasterId = m01;
layerId = "653FFB37-5C59-4C66-B2B8-3358A1461268";
width = 600;
},
{
associatedMasterId = m01;
layerId = "5494C454-2D9E-4789-B866-396A871BBCCD";
shapes = (
{
closed = 1;
nodes = (
(302,-180,l),
(0,-180,l),
(0,-55,l),
(170,-55,l),
(170,279,l),
(302,279,l)
);
},
{
closed = 1;
nodes = (
(264,237,l),
(208,237,l),
(208,-90,l),
(37,-90,l),
(37,-141,l),
(264,-141,l)
);
}
);
vertWidth = 1000;
width = 500;
},
{
associatedMasterId = m01;
layerId = "FA6D07F3-67AB-4197-AE0F-C6DA16090780";
width = 600;
},
{
associatedMasterId = m01;
layerId = m004;
shapes = (
{
closed = 1;
nodes = (
(265,-90,o),
(253,-104,o),
(233,-104,c),
(67,-104,l),
(67,-89,o),
(69,-61,o),
(97,-61,c),
(192,-61,l),
(214,-61,o),
(220,-43,o),
(220,-35,c),
(220,403,l),
(220,443,o),
(250,443,o),
(265,443,c),
(265,-77,l)
);
},
{
closed = 1;
nodes = (
(305,-96,c),
(305,498,l),
(281,498,o),
(179,510,o),
(179,401,c),
(179,-21,l),
(97,-21,l),
(15,-21,o),
(14,-97,o),
(14,-143,c),
(255,-143,l),
(284,-143,o),
(305,-123,o)
);
}
);
width = 450;
},
{
associatedMasterId = m01;
layerId = "13D8BC98-06F3-42CE-BAE8-6192BC63A114";
width = 600;
},
{
associatedMasterId = m01;
layerId = "4DC86FA6-F482-4A18-BE84-2DECB0797B73";
width = 600;
},
{
associatedMasterId = m01;
layerId = "1119BF14-EB86-45D7-BDF8-45968C0FD7A2";
shapes = (
{
closed = 1;
nodes = (
(302,-180,l),
(0,-180,l),
(0,-55,l),
(170,-55,l),
(170,279,l),
(302,279,l)
);
},
{
closed = 1;
nodes = (
(264,237,l),
(208,237,l),
(208,-90,l),
(37,-90,l),
(37,-141,l),
(264,-141,l)
);
}
);
vertWidth = 1000;
width = 500;
},
{
associatedMasterId = m01;
layerId = "852B57E3-BA3B-425B-BA53-04AECC07718D";
width = 600;
}
);
unicode = 12303;
}
{
glyphname = "pieupCompa-ko";
layers = (
{
layerId = m01;
shapes = (
{
closed = 1;
nodes = (
(257,52,o),
(275,52,o),
(288,59,cs),
(297,64,o),
(306,75,o),
(306,87,cs),
(306,125,l),
(437,37,o),
(631,45,o),
(715,61,cs),
(742,66,o),
(762,76,o),
(762,97,cs),
(762,533,ls),
(762,554,o),
(739,560,o),
(721,549,cs),
(636,499,l),
(647,487,o),
(656,483,o),
(666,483,cs),
(684,483,o),
(698,499,o),
(701,488,c),
(701,360,l),
(306,360,l),
(306,509,ls),
(306,529,o),
(285,538,o),
(265,526,cs),
(180,475,l),
(191,463,o),
(200,459,o),
(210,459,cs),
(228,459,o),
(242,476,o),
(245,465,c),
(245,56,l)
);
},
{
closed = 1;
nodes = (
(306,316,l),
(701,316,l),
(701,113,l),
(635,89,o),
(434,85,o),
(306,160,c)
);
}
);
width = 970;
}
);
unicode = 12610;
}
{
glyphname = "ssangpieupCompa-ko";
layers = (
{
layerId = m01;
shapes = (
{
closed = 1;
nodes = (
(113,473,o),
(122,469,o),
(133,469,cs),
(149,469,o),
(165,491,o),
(169,480,c),
(169,48,l),
(181,44,o),
(199,44,o),
(212,51,cs),
(220,55,o),
(230,67,o),
(230,78,cs),
(230,110,l),
(294,51,o),
(342,39,o),
(397,44,cs),
(445,48,o),
(459,65,o),
(459,85,cs),
(459,535,ls),
(459,555,o),
(437.946,564.091,o),
(421,554,cs),
(332,501,l),
(339,492,o),
(348,484,o),
(361,484,cs),
(380,484,o),
(394,506,o),
(398,495,c),
(398,364,l),
(230,364,l),
(230,520,ls),
(230,540,o),
(208.81,549.315,o),
(192,539,cs),
(104,485,l)
);
},
{
closed = 1;
nodes = (
(230,319,l),
(398,319,l),
(398,98,l),
(348,80,o),
(279,98,o),
(230,144,c)
);
},
{
closed = 1;
nodes = (
(485,474,o),
(494,470,o),
(505,470,cs),
(521,470,o),
(537,492,o),
(541,481,c),
(541,48,l),
(553,44,o),
(571,44,o),
(584,51,cs),
(592,55,o),
(602,67,o),
(602,78,cs),
(602,110,l),
(666,51,o),
(714,39,o),
(769,44,cs),
(817,48,o),
(831,65,o),
(831,85,cs),
(831,535,ls),
(831,555,o),
(809.946,564.091,o),
(793,554,cs),
(704,501,l),
(711,492,o),
(720,484,o),
(733,484,cs),
(752,484,o),
(766,506,o),
(770,495,c),
(770,364,l),
(602,364,l),
(602,521,ls),
(602,541,o),
(580.81,550.315,o),
(564,540,cs),
(476,486,l)
);
},
{
closed = 1;
nodes = (
(602,319,l),
(770,319,l),
(770,98,l),
(720,80,o),
(651,98,o),
(602,144,c)
);
}
);
width = 970;
}
);
unicode = 12611;
}
{
glyphname = "pieupSiosCompa-ko";
layers = (
{
layerId = m01;
shapes = (
{
closed = 1;
nodes = (
(108,473,o),
(117,469,o),
(128,469,cs),
(144,469,o),
(160,491,o),
(164,480,c),
(164,42,l),
(176,38,o),
(194,38,o),
(207,45,cs),
(215,49,o),
(225,61,o),
(225,72,cs),
(225,104,l),
(279,51,o),
(342,37,o),
(397,38,cs),
(445,39,o),
(459,59,o),
(459,79,cs),
(459,535,ls),
(459,555,o),
(438,564,o),
(421,554,cs),
(332,501,l),
(339,492,o),
(348,484,o),
(361,484,cs),
(380,484,o),
(394,506,o),
(398,495,c),
(398,364,l),
(225,364,l),
(225,520,ls),
(225,540,o),
(204,549,o),
(187,539,cs),
(99,485,l)
);
},
{
closed = 1;
nodes = (
(225,319,l),
(398,319,l),
(398,92,l),
(348,78,o),
(264,98,o),
(225,138,c)
);
},
{
closed = 1;
nodes = (
(614,171,o),
(656,371,o),
(660,482,cs),
(661,515,o),
(642,507,o),
(636,526,cs),
(627,555,o),
(700,589,o),
(729,580,cs),
(739,577,o),
(743,571,o),
(742,557,cs),
(735,373,o),
(674,151,o),
(507,16,cs),
(486,-1,o),
(459,28,o),
(478,46,cs)
);
},
{
closed = 1;
nodes = (
(743,260,o),
(772,230,o),
(791,196,cs),
(814,155,o),
(828,118,o),
(831,92,cs),
(833,80,o),
(827,73,o),
(825,57,cs),
(824,43,o),
(826,31,o),
(836,27,cs),
(866,14,o),
(905,71,o),
(901,98,cs),
(884,179,o),
(808,271,o),
(751,314,cs),
(733,328,o),
(708,300,o),
(723,284,cs)
);
}
);
width = 970;
}
);
unicode = 12612;
}
{
glyphname = "phieuphCompa-ko";
layers = (
{
layerId = m01;
shapes = (
{
closed = 1;
nodes = (
(131,75,o),
(131,67,o),
(139,64,cs),
(146,62,o),
(151,66,o),
(153,70,cs),
(155,73,o),
(158,77,o),
(164,81,cs),
(183,94,o),
(219,94,o),
(249,94,cs),
(698,94,ls),
(822,94,o),
(822,95,o),
(829,100,cs),
(835,105,o),
(834,111,o),
(834,119,cs),
(834,155,ls),
(834,159,o),
(834,167,o),
(826,170,cs),
(819,172,o),
(814,168,o),
(812,164,cs),
(810,161,o),
(807,157,o),
(801,153,cs),
(782,140,o),
(746,139,o),
(716,139,cs),
(606.576,139,l),
(651,424,ls),
(655.381,452.104,o),
(636,457,o),
(621,452,cs),
(603,445,o),
(554,425,o),
(523,411,c),
(533,390,o),
(551,386,o),
(566,390,cs),
(575,392,o),
(582,400,o),
(584,394,c),
(549.895,139,l),
(267,139,ls),
(143,139,o),
(143,139,o),
(136,134,cs),
(130,129,o),
(131,123,o),
(131,115,cs),
(131,79,ls)
);
},
{
closed = 1;
nodes = (
(145,468,o),
(145,460,o),
(153,457,cs),
(160,455,o),
(165,459,o),
(167,463,cs),
(169,466,o),
(172,470,o),
(178,474,cs),
(197,487,o),
(233,487,o),
(263,487,cs),
(657,487,ls),
(781,487,o),
(781,488,o),
(788,493,cs),
(794,498,o),
(793,504,o),
(793,512,cs),
(793,548,ls),
(793,552,o),
(793,560,o),
(785,563,cs),
(778,565,o),
(773,561,o),
(771,557,cs),
(769,554,o),
(766,550,o),
(760,546,cs),
(741,533,o),
(705,532,o),
(675,532,cs),
(281,532,ls),
(157,532,o),
(157,532,o),
(150,527,cs),
(144,522,o),
(145,516,o),
(145,508,cs),
(145,472,ls)
);
},
{
closed = 1;
nodes = (
(285.796,355.898,o),
(303.078,243.069,o),
(338.64,183.124,cs),
(346.584,169.732,o),
(355.858,165.296,o),
(372.304,168.843,cs),
(386.585,171.923,o),
(402.188,182.938,o),
(409.027,194.345,cs),
(415.168,204.587,o),
(410.512,214.341,o),
(401.907,226.009,cs),
(362.243,279.793,o),
(341.922,349.496,o),
(337.58,425.803,cs),
(336.497,444.829,o),
(314.078,447.245,o),
(306.937,442.144,c)
);
}
);
width = 970;
}
);
unicode = 12621;
}
{
glyphname = "aeCompa-ko";
layers = (
{
layerId = m01;
shapes = (
{
closed = 1;
nodes = (
(657,758,o),
(641,766,o),
(623,760,cs),
(608,755,o),
(543,711,o),
(511,688,c),
(530,668,o),
(554,665,o),
(578,680,cs),
(589,687,o),
(594,686,o),
(596,683,c),
(595.605,353,l),
(447,353,l),
(447,690,ls),
(447,707,o),
(431,715,o),
(413,709,cs),
(398,704,o),
(343,668,o),
(311,644,c),
(330,624,o),
(351,623,o),
(371,635,cs),
(381,641,o),
(384,638,o),
(386,634,c),
(386,-93,l),
(398,-97,o),
(416,-97,o),
(429,-90,cs),
(438,-85,o),
(447,-73,o),
(447,-62,cs),
(447,309,l),
(595.553,309,l),
(595,-153,l),
(607,-157,o),
(625,-157,o),
(638,-150,cs),
(647,-145,o),
(656,-133,o),
(656,-122,cs),
(657,741,ls)
);
}
);
width = 970;
}
);
unicode = 12624;
}
{
glyphname = "eCompa-ko";
layers = (
{
layerId = m01;
shapes = (
{
closed = 1;
nodes = (
(638,760,o),
(622,768,o),
(604,762,cs),
(589,757,o),
(524,710,o),
(492,688,c),
(511,668,o),
(533,666,o),
(559,680,cs),
(571,687,o),
(575,686,o),
(577,685,c),
(577,-159,l),
(589,-163,o),
(607,-163,o),
(620,-156,cs),
(629,-151,o),
(638,-139,o),
(638,-128,cs),
(638,743,ls)
);
},
{
closed = 1;
nodes = (
(218,284,o),
(233,285,o),
(237,291,cs),
(252,313,o),
(275,316,o),
(303,316,cs),
(397,316,l),
(397,-106,l),
(409,-110,o),
(427,-110,o),
(440,-103,cs),
(449,-98,o),
(458,-86,o),
(458,-75,cs),
(458,686,ls),
(458,703,o),
(442,711,o),
(424,705,cs),
(409,700,o),
(344,653,o),
(312,631,c),
(331,611,o),
(353,609,o),
(379,623,cs),
(391,630,o),
(395,629,o),
(397,628,c),
(397,360,l),
(249,360,ls),
(232,360,o),
(228,359,o),
(224,356,cs),
(220,353,o),
(218,347,o),
(218,342,cs),
(218,300,ls)
);
}
);
width = 970;
}
);
unicode = 12628;
}
{
glyphname = "ga-ko";
layers = (
{
layerId = m01;
shapes = (
{
closed = 1;
nodes = (
(264,116,o),
(501,362,o),
(539,563,cs),
(542,577,o),
(539,590,o),
(522,590,cs),
(125,590,ls),
(104,590,o),
(102,577,o),
(102,562,cs),
(102,525,ls),
(102,521,o),
(102,511,o),
(110,508,cs),
(118,505,o),
(124,511,o),
(126,514,cs),
(141,544,o),
(198,545,o),
(233,545,cs),
(462,545,l),
(427,371,o),
(204,138,o),
(58,62,cs),
(31,48,o),
(49,12,o),
(76,25,cs)
);
},
{
closed = 1;
nodes = (
(620,668,o),
(642,666,o),
(668,680,cs),
(680,687,o),
(684,686,o),
(686,685,c),
(686,-156,l),
(698,-160,o),
(716,-160,o),
(729,-153,cs),
(738,-148,o),
(747,-136,o),
(747,-125,cs),
(747,295,l),
(926,295,ls),
(940,295,o),
(945,301,o),
(945,320,cs),
(945,358,ls),
(945,361,o),
(945,369,o),
(938,372,cs),
(931,375,o),
(926,370,o),
(923,367,cs),
(902,346,o),
(849,340,o),
(793,340,cs),
(747,340,l),
(747,743,ls),
(747,760,o),
(731,768,o),
(713,762,cs),
(698,757,o),
(633,710,o),
(601,688,c)
);
}
);
width = 970;
},
{
associatedMasterId = m01;
layerId = "B95609A4-E58B-4ADE-9779-E0FAA25E41BF";
width = 600;
},
{
associatedMasterId = m01;
layerId = "653FFB37-5C59-4C66-B2B8-3358A1461268";
width = 600;
},
{
associatedMasterId = m01;
layerId = "5494C454-2D9E-4789-B866-396A871BBCCD";
shapes = (
{
closed = 1;
nodes = (
(782,-187,o),
(787,-46,o),
(789,54,cs),
(792,231,l),
(826,232,o),
(869,233,o),
(921,238,cs),
(991,244,o),
(994,348,o),
(926,347,cs),
(897,347,o),
(870,350,o),
(849,337,cs),
(833,327,o),
(810,321,o),
(793,317,c),
(796,645,ls),
(797,704,o),
(827,721,o),
(762,742,cs),
(717,756,o),
(605,776,o),
(592,772,cs),
(550,759,o),
(566,749,o),
(589,733,cs),
(625,708,o),
(669,681,o),
(669,628,cs),
(671,-19,ls),
(671,-86,o),
(672,-188,o),
(704,-188,cs)
);
},
{
closed = 1;
nodes = (
(131,10,o),
(247,83,o),
(352,191,cs),
(460,302,o),
(514,436,o),
(525,454,cs),
(539,477,o),
(583,540,o),
(523,546,cs),
(495,549,o),
(441,553,o),
(409,543,cs),
(381,534,o),
(159,517,o),
(113,528,cs),
(36,546,o),
(63,511,o),
(96,484,cs),
(186,411,o),
(174,438,o),
(226,447,cs),
(247,451,o),
(270,458,o),
(307,461,cs),
(337,463,o),
(365,466,o),
(382,467,c),
(378,455,o),
(329,312,o),
(230,185,cs),
(167,104,o),
(61,13,o),
(42,3,cs),
(13,-12,o),
(17,-36,o),
(61,-18,cs)
);
}
);
vertWidth = 1000;
width = 1000;
},
{
associatedMasterId = m01;
layerId = "FA6D07F3-67AB-4197-AE0F-C6DA16090780";
width = 600;
},
{
associatedMasterId = m01;
guides = (
{
pos = (842,525);
}
);
layerId = m004;
shapes = (
{
closed = 1;
nodes = (
(264,121,o),
(501,366,o),
(539,567,cs),
(542,581,o),
(539,594,o),
(522,594,cs),
(125,594,ls),
(104,594,o),
(102,581,o),
(102,566,cs),
(102,529,ls),
(102,525,o),
(102,515,o),
(110,512,cs),
(118,509,o),
(124,515,o),
(126,518,cs),
(141,548,o),
(198,549,o),
(233,549,cs),
(462,549,l),
(427,375,o),
(204,143,o),
(58,67,cs),
(31,53,o),
(49,17,o),
(76,30,cs)
);
},
{
closed = 1;
nodes = (
(698,-160,o),
(716,-160,o),
(729,-153,cs),
(738,-148,o),
(747,-136,o),
(747,-125,cs),
(747,743,ls),
(747,760,o),
(731,768,o),
(713,762,cs),
(698,757,o),
(633,710,o),
(601,688,c),
(620,668,o),
(642,666,o),
(668,680,cs),
(680,687,o),
(684,686,o),
(686,685,c),
(686,-156,l)
);
},
{
closed = 1;
nodes = (
(924,295,ls),
(938,295,o),
(943,301,o),
(943,320,cs),
(943,358,ls),
(943,361,o),
(943,369,o),
(936,372,cs),
(929,375,o),
(924,370,o),
(921,367,cs),
(900,346,o),
(847,340,o),
(791,340,cs),
(735,340,l),
(726,340,l),
(726,295,l)
);
}
);
width = 970;
},
{
associatedMasterId = m01;
layerId = "341E9580-EE50-4E3C-BA45-0386D3812308";
width = 600;
},
{
associatedMasterId = m01;
layerId = "878B4F6E-24B9-4CB7-B66D-6007F62AF4A2";
width = 600;
},
{
associatedMasterId = m01;
layerId = "D4BEDC85-1498-4891-AB14-EC086BCA8421";
shapes = (
{
closed = 1;
nodes = (
(782,-187,o),
(787,-46,o),
(789,54,cs),
(792,231,l),
(826,232,o),
(869,233,o),
(921,238,cs),
(991,244,o),
(994,348,o),
(926,347,cs),
(897,347,o),
(870,350,o),
(849,337,cs),
(833,327,o),
(810,321,o),
(793,317,c),
(796,645,ls),
(797,704,o),
(827,721,o),
(762,742,cs),
(717,756,o),
(605,776,o),
(592,772,cs),
(550,759,o),
(566,749,o),
(589,733,cs),
(625,708,o),
(669,681,o),
(669,628,cs),
(671,-19,ls),
(671,-86,o),
(672,-188,o),
(704,-188,cs)
);
},
{
closed = 1;
nodes = (
(131,10,o),
(247,83,o),
(352,191,cs),
(460,302,o),
(514,436,o),
(525,454,cs),
(539,477,o),
(583,540,o),
(523,546,cs),
(495,549,o),
(441,553,o),
(409,543,cs),
(381,534,o),
(159,517,o),
(113,528,cs),
(36,546,o),
(63,511,o),
(96,484,cs),
(186,411,o),
(174,438,o),
(226,447,cs),
(247,451,o),
(270,458,o),
(307,461,cs),
(337,463,o),
(365,466,o),
(382,467,c),
(378,455,o),
(329,312,o),
(230,185,cs),
(167,104,o),
(61,13,o),
(42,3,cs),
(13,-12,o),
(17,-36,o),
(61,-18,cs)
);
}
);
vertWidth = 1000;
width = 1000;
},
{
associatedMasterId = m01;
layerId = "95121647-2F79-48AC-B65F-E194FE38CB21";
width = 600;
}
);
unicode = 44032;
}
{
glyphname = "geoj-ko";
layers = (
{
layerId = m01;
shapes = (
{
closed = 1;
nodes = (
(739,207,o),
(757,207,o),
(770,214,cs),
(779,219,o),
(788,231,o),
(788,242,cs),
(788,739,ls),
(788,756,o),
(772,764,o),
(754,758,cs),
(739,753,o),
(674,706,o),
(642,684,c),
(661,664,o),
(683,662,o),
(709,676,cs),
(721,683,o),
(725,682,o),
(727,681,c),
(727,454,l),
(520,454,ls),
(503,454,o),
(499,453,o),
(495,450,cs),
(491,447,o),
(489,441,o),
(489,436,cs),
(489,393,ls),
(489,377,o),
(504,378,o),
(508,384,cs),
(523,406,o),
(546,409,o),
(574,409,cs),
(727,409,l),
(727,211,l)
);
},
{
closed = 1;
nodes = (
(44,196,o),
(55,162,o),
(77,169,cs),
(262,224,o),
(465,413,o),
(511,585,cs),
(517,608,o),
(508,619,o),
(496,619,cs),
(138,619,ls),
(117,619,o),
(115,606,o),
(115,591,cs),
(115,554,ls),
(115,550,o),
(115,540,o),
(123,537,cs),
(131,534,o),
(137,540,o),
(139,543,cs),
(154,573,o),
(211,574,o),
(246,574,cs),
(434,574,l),
(400,410,o),
(179,242,o),
(63,203,cs)
);
},
{
closed = 1;
nodes = (
(224,-139,o),
(234,-170,o),
(257,-165,cs),
(327,-149,o),
(399,-119,o),
(462,-73,cs),
(525,-27,o),
(577,30,o),
(609,116,c),
(692,116,ls),
(825,116,o),
(828,118,o),
(833,121,cs),
(840,125,o),
(840,133,o),
(840,138,cs),
(840,177,ls),
(840,181,o),
(840,190,o),
(832,193,cs),
(825,195,o),
(820,192,o),
(817,187,cs),
(815,184,o),
(812,180,o),
(807,178,cs),
(769,160,o),
(716,160,o),
(676,160,cs),
(411,160,ls),
(282,160,o),
(278,159,o),
(273,156,cs),
(266,152,o),
(266,144,o),
(266,136,cs),
(266,100,ls),
(266,96,o),
(266,87,o),
(274,84,cs),
(281,82,o),
(286,87,o),
(288,90,cs),
(290,93,o),
(294,97,o),
(299,99,cs),
(336,116,o),
(388,116,o),
(429,116,cs),
(542,116,l),
(519,49,o),
(477,1,o),
(425,-40,cs),
(371,-83,o),
(305,-115,o),
(248,-132,cs)
);
},
{
closed = 1;
nodes = (
(639,-15,o),
(676,-29,o),
(707,-47,cs),
(748,-70,o),
(788,-107,o),
(790,-122,cs),
(792,-142,o),
(798,-160,o),
(810,-162,cs),
(827,-163,o),
(841,-138,o),
(845,-115,cs),
(847,-104,o),
(847,-90,o),
(838,-78,cs),
(822,-57,o),
(781,-26,o),
(732,-6,cs),
(691,11,o),
(646,25,o),
(605,30,cs),
(585,32,o),
(578,2,o),
(599,-4,cs)
);
}
);
width = 970;
},
{
associatedMasterId = m01;
layerId = "B95609A4-E58B-4ADE-9779-E0FAA25E41BF";
width = 600;
},
{
associatedMasterId = m01;
layerId = "653FFB37-5C59-4C66-B2B8-3358A1461268";
width = 600;
},
{
associatedMasterId = m01;
layerId = "5494C454-2D9E-4789-B866-396A871BBCCD";
shapes = (
{
closed = 1;
nodes = (
(837,649,ls),
(837,688,o),
(868,722,o),
(802,743,cs),
(758,757,o),
(665,777,o),
(651,773,cs),
(599,759,o),
(618,750,o),
(636,739,cs),
(704,697,o),
(711,660,o),
(711,626,cs),
(713,483,l),
(679,480,o),
(650,475,o),
(610,473,cs),
(583,472,o),
(561,473,o),
(521,474,c),
(537,496,o),
(551,518,o),
(560,536,cs),
(567,547,o),
(608,606,o),
(554,610,cs),
(525,612,o),
(456,621,o),
(438,611,cs),
(413,597,o),
(174,592,o),
(144,600,cs),
(73,620,o),
(100,582,o),
(134,554,cs),
(224,481,o),
(215,514,o),
(250,519,cs),
(275,523,o),
(305,529,o),
(340,532,cs),
(367,535,o),
(389,536,o),
(409,536,c),
(401,517,o),
(370,435,o),
(279,335,cs),
(212,262,o),
(123,200,o),
(83,176,cs),
(61,163,o),
(64,143,o),
(114,161,cs),
(176,183,o),
(276,228,o),
(361,298,cs),
(420,347,o),
(489,428,o),
(503,443,c),
(587,369,o),
(580,402,o),
(630,410,cs),
(654,414,o),
(658,414,o),
(676,417,cs),
(691,419,o),
(706,419,o),
(715,419,c),
(715,369,ls),
(715,317,o),
(715,239,o),
(757,242,cs),
(821,246,o),
(834,352,o),
(834,383,cs)
);
},
{
closed = 1;
nodes = (
(844,-47,o),
(798,-18,o),
(756,-6,cs),
(710,7,o),
(655,40,o),
(638,51,c),
(646,63,o),
(660,80,o),
(636,97,cs),
(621,107,o),
(613,109,o),
(593,116,c),
(645,118,o),
(717,119,o),
(803,118,cs),
(864,117,o),
(863,192,o),
(822,201,cs),
(782,210,o),
(735,207,o),
(708,196,cs),
(674,183,o),
(623,175,o),
(549,171,cs),
(456,166,o),
(354,164,o),
(311,174,cs),
(244,190,o),
(272,152,o),
(296,133,cs),
(387,62,o),
(365,98,o),
(412,101,cs),
(426,102,o),
(440,106,o),
(458,107,cs),
(477,108,o),
(487,108,o),
(506,109,c),
(513,96,o),
(520,88,o),
(512,74,cs),
(501,55,o),
(479,17,o),
(406,-56,cs),
(350,-112,o),
(279,-150,o),
(243,-167,cs),
(233,-172,o),
(214,-193,o),
(253,-189,cs),
(321,-182,o),
(383,-155,o),
(457,-112,cs),
(531,-69,o),
(587,-5,o),
(607,14,c),
(631,-6,o),
(714,-85,o),
(786,-147,cs),
(895,-241,o),
(910,-122,o),
(874,-81,cs)
);
}
);
vertWidth = 1000;
width = 1000;
},
{
associatedMasterId = m01;
layerId = "FA6D07F3-67AB-4197-AE0F-C6DA16090780";
width = 600;
},
{
associatedMasterId = m01;
layerId = m004;
shapes = (
{
closed = 1;
nodes = (
(504,391,o),
(507,396,o),
(512,399,cs),
(526,408,o),
(531,413,o),
(594,413,c),
(732,413,l),
(728,457,l),
(514,457,ls),
(497,457,o),
(493,456,o),
(489,453,cs),
(485,450,o),
(483,444,o),
(483,439,cs),
(483,397,ls),
(483,381,o),
(498,382,o),
(502,388,cs)
);
},
{
closed = 1;
nodes = (
(739,207,o),
(757,207,o),
(770,214,cs),
(779,219,o),
(788,231,o),
(788,242,cs),
(788,739,ls),
(788,756,o),
(772,764,o),
(754,758,cs),
(739,753,o),
(674,706,o),
(642,684,c),
(661,664,o),
(683,662,o),
(709,676,cs),
(721,683,o),
(725,682,o),
(727,681,c),
(727,211,l)
);
},
{
closed = 1;
nodes = (
(531,618,o),
(522,629,o),
(510,629,cs),
(138,629,ls),
(117,629,o),
(115,616,o),
(115,601,cs),
(115,564,ls),
(115,560,o),
(115,550,o),
(123,547,cs),
(131,544,o),
(137,550,o),
(139,553,cs),
(154,583,o),
(211,584,o),
(246,584,cs),
(448,584,l),
(414,420,o),
(179,232,o),
(63,193,cs),
(44,186,o),
(55,152,o),
(77,159,cs),
(262,214,o),
(479,423,o),
(525,595,cs)
);
},
{
closed = 1;
nodes = (
(305,-151,o),
(388,-116,o),
(456,-69,cs),
(525,-22,o),
(581,43,o),
(607,116,c),
(688,116,ls),
(821,116,o),
(824,118,o),
(829,121,cs),
(836,125,o),
(836,133,o),
(836,138,cs),
(836,177,ls),
(836,181,o),
(836,190,o),
(828,193,cs),
(821,195,o),
(816,192,o),
(813,187,cs),
(811,184,o),
(808,180,o),
(803,178,cs),
(765,160,o),
(712,160,o),
(672,160,cs),
(404,160,ls),
(272,160,o),
(271,159,o),
(266,156,cs),
(259,152,o),
(259,144,o),
(259,136,cs),
(259,100,ls),
(259,96,o),
(259,87,o),
(267,84,cs),
(274,82,o),
(279,87,o),
(281,90,cs),
(283,93,o),
(287,97,o),
(292,99,cs),
(329,116,o),
(381,116,o),
(422,116,cs),
(537,116,l),
(522,67,o),
(480,12,o),
(422,-31,cs),
(359,-78,o),
(287,-115,o),
(234,-132,cs),
(209,-140,o),
(219,-171,o),
(243,-165,cs)
);
},
{
closed = 1;
nodes = (
(832,-172,o),
(859,-138,o),
(861,-116,cs),
(862,-107,o),
(861,-97,o),
(847,-86,cs),
(825,-64,o),
(772,-33,o),
(719,-11,cs),
(678,6,o),
(638,19,o),
(593,27,cs),
(570,31,o),
(565,5,o),
(585,-2,cs),
(621,-15,o),
(664,-34,o),
(706,-58,cs),
(748,-82,o),
(789,-116,o),
(792,-130,cs),
(794,-150,o),
(801,-169,o),
(813,-170,cs)
);
}
);
width = 970;
},
{
associatedMasterId = m01;
layerId = "DEB293DE-5E02-4473-9FDA-31E8B3DE32E9";
width = 600;
},
{
associatedMasterId = m01;
layerId = "DA435DE7-FB16-425A-9279-0386EC35DBE7";
width = 600;
},
{
associatedMasterId = m01;
layerId = "63261345-D1F3-4BB7-B306-4E438122D262";
shapes = (
{
closed = 1;
nodes = (
(837,649,ls),
(837,688,o),
(868,722,o),
(802,743,cs),
(758,757,o),
(665,777,o),
(651,773,cs),
(599,759,o),
(618,750,o),
(636,739,cs),
(704,697,o),
(711,660,o),
(711,626,cs),
(713,483,l),
(679,480,o),
(650,475,o),
(610,473,cs),
(583,472,o),
(561,473,o),
(521,474,c),
(537,496,o),
(551,518,o),
(560,536,cs),
(567,547,o),
(608,606,o),
(554,610,cs),
(525,612,o),
(456,621,o),
(438,611,cs),
(413,597,o),
(174,592,o),
(144,600,cs),
(73,620,o),
(100,582,o),
(134,554,cs),
(224,481,o),
(215,514,o),
(250,519,cs),
(275,523,o),
(305,529,o),
(340,532,cs),
(367,535,o),
(389,536,o),
(409,536,c),
(401,517,o),
(370,435,o),
(279,335,cs),
(212,262,o),
(123,200,o),
(83,176,cs),
(61,163,o),
(64,143,o),
(114,161,cs),
(176,183,o),
(276,228,o),
(361,298,cs),
(420,347,o),
(489,428,o),
(503,443,c),
(587,369,o),
(580,402,o),
(630,410,cs),
(654,414,o),
(658,414,o),
(676,417,cs),
(691,419,o),
(706,419,o),
(715,419,c),
(715,369,ls),
(715,317,o),
(715,239,o),
(757,242,cs),
(821,246,o),
(834,352,o),
(834,383,cs)
);
},
{
closed = 1;
nodes = (
(844,-47,o),
(798,-18,o),
(756,-6,cs),
(710,7,o),
(655,40,o),
(638,51,c),
(646,63,o),
(660,80,o),
(636,97,cs),
(621,107,o),
(613,109,o),
(593,116,c),
(645,118,o),
(717,119,o),
(803,118,cs),
(864,117,o),
(863,192,o),
(822,201,cs),
(782,210,o),
(735,207,o),
(708,196,cs),
(674,183,o),
(623,175,o),
(549,171,cs),
(456,166,o),
(354,164,o),
(311,174,cs),
(244,190,o),
(272,152,o),
(296,133,cs),
(387,62,o),
(365,98,o),
(412,101,cs),
(426,102,o),
(440,106,o),
(458,107,cs),
(477,108,o),
(487,108,o),
(506,109,c),
(513,96,o),
(520,88,o),
(512,74,cs),
(501,55,o),
(479,17,o),
(406,-56,cs),
(350,-112,o),
(279,-150,o),
(243,-167,cs),
(233,-172,o),
(214,-193,o),
(253,-189,cs),
(321,-182,o),
(383,-155,o),
(457,-112,cs),
(531,-69,o),
(587,-5,o),
(607,14,c),
(631,-6,o),
(714,-85,o),
(786,-147,cs),
(895,-241,o),
(910,-122,o),
(874,-81,cs)
);
}
);
vertWidth = 1000;
width = 1000;
},
{
associatedMasterId = m01;
layerId = "F1ED15A7-6F9D-445C-8F6B-70380B191EF9";
width = 600;
}
);
unicode = 44166;
}
{
glyphname = "gyeog-ko";
layers = (
{
layerId = m01;
shapes = (
{
closed = 1;
nodes = (
(742,213,o),
(760,213,o),
(773,220,cs),
(782,225,o),
(791,237,o),
(791,248,cs),
(792,738,ls),
(792,755,o),
(776,763,o),
(758,757,cs),
(743,752,o),
(678,705,o),
(646,683,c),
(665,663,o),
(687,661,o),
(713,675,cs),
(725,682,o),
(729,681,o),
(731,680,c),
(731,531,l),
(547,531,ls),
(530,531,o),
(526,530,o),
(522,527,cs),
(518,524,o),
(516,518,o),
(516,513,cs),
(516,476,ls),
(516,460,o),
(531,461,o),
(535,467,cs),
(550,489,o),
(573,488,o),
(601,488,cs),
(731,488,l),
(730,372,l),
(505,372,ls),
(488,372,o),
(484,371,o),
(480,368,cs),
(476,365,o),
(474,359,o),
(474,354,cs),
(474,317,ls),
(474,301,o),
(489,302,o),
(493,308,cs),
(508,330,o),
(531,329,o),
(559,329,cs),
(730,329,l),
(730,217,l)
);
},
{
closed = 1;
nodes = (
(45,204,o),
(56,170,o),
(79,177,cs),
(264,236,o),
(459,407,o),
(514,592,cs),
(521,615,o),
(511,626,o),
(499,626,cs),
(146,626,ls),
(125,626,o),
(123,613,o),
(123,598,cs),
(123,561,ls),
(123,557,o),
(123,547,o),
(131,544,cs),
(139,541,o),
(145,547,o),
(147,550,cs),
(162,580,o),
(219,581,o),
(254,581,cs),
(437,581,l),
(394,404,o),
(183,256,o),
(67,212,cs)
);
},
{
closed = 1;
nodes = (
(255,97,o),
(255,87,o),
(263,84,cs),
(271,81,o),
(277,87,o),
(279,90,cs),
(294,120,o),
(351,121,o),
(386,121,cs),
(732,121,l),
(744,33,o),
(701,-106,o),
(679,-147,cs),
(669,-166,o),
(698,-181,o),
(711,-161,cs),
(783,-51,o),
(808,98,o),
(801,150,cs),
(799,161,o),
(794,166,o),
(779,166,cs),
(278,166,ls),
(257,166,o),
(255,153,o),
(255,138,cs),
(255,101,ls)
);
}
);
width = 970;
},
{
associatedMasterId = m01;
layerId = "B95609A4-E58B-4ADE-9779-E0FAA25E41BF";
width = 600;
},
{
associatedMasterId = m01;
layerId = "653FFB37-5C59-4C66-B2B8-3358A1461268";
width = 600;
},
{
associatedMasterId = m01;
layerId = "5494C454-2D9E-4789-B866-396A871BBCCD";
shapes = (
{
closed = 1;
nodes = (
(836,649,ls),
(837,695,o),
(865,724,o),
(803,742,cs),
(760,754,o),
(670,779,o),
(641,773,cs),
(600,765,o),
(622,748,o),
(638,737,cs),
(721,681,o),
(709,651,o),
(709,633,cs),
(711,530,l),
(690,527,o),
(658,522,o),
(624,521,cs),
(569,519,o),
(555,523,o),
(532,524,c),
(544,539,o),
(562,565,o),
(569,580,c),
(577,592,o),
(611,629,o),
(549,637,cs),
(520,641,o),
(450,645,o),
(428,633,cs),
(403,619,o),
(192,612,o),
(142,622,cs),
(86,633,o),
(104,603,o),
(138,580,cs),
(237,512,o),
(218,541,o),
(251,546,cs),
(267,549,o),
(303,557,o),
(337,560,cs),
(365,562,o),
(391,562,o),
(410,562,c),
(402,547,o),
(379,483,o),
(280,369,cs),
(199,276,o),
(101,206,o),
(81,194,cs),
(56,180,o),
(73,167,o),
(97,176,cs),
(172,203,o),
(275,253,o),
(364,333,cs),
(462,422,o),
(481,447,o),
(505,479,c),
(579,432,o),
(572,447,o),
(616,455,cs),
(634,458,o),
(645,460,o),
(663,462,cs),
(682,464,o),
(694,464,o),
(711,463,c),
(712,355,l),
(667,351,o),
(578,338,o),
(520,345,cs),
(462,352,o),
(484,324,o),
(511,300,cs),
(568,250,o),
(569,276,o),
(608,280,cs),
(626,282,o),
(640,285,o),
(660,287,cs),
(680,289,o),
(700,290,o),
(712,291,c),
(712,282,ls),
(712,247,o),
(720,200,o),
(754,201,cs),
(829,203,o),
(831,320,o),
(832,386,cs)
);
},
{
closed = 1;
nodes = (
(825,111,ls),
(826,139,o),
(853,180,o),
(804,181,cs),
(761,182,o),
(727,186,o),
(693,173,cs),
(675,166,o),
(376,146,o),
(298,160,cs),
(232,172,o),
(270,134,o),
(282,123,cs),
(398,21,o),
(377,66,o),
(440,75,cs),
(464,79,o),
(513,87,o),
(560,92,cs),
(617,98,o),
(687,100,o),
(706,100,c),
(707,-97,ls),
(707,-135,o),
(714,-190,o),
(743,-189,cs),
(801,-188,o),
(816,-99,o),
(818,-44,cs)
);
}
);
vertWidth = 1000;
width = 1000;
},
{
associatedMasterId = m01;
layerId = "FA6D07F3-67AB-4197-AE0F-C6DA16090780";
width = 600;
},
{
associatedMasterId = m01;
layerId = m004;
shapes = (
{
closed = 1;
nodes = (
(742,223,o),
(760,223,o),
(773,230,cs),
(782,235,o),
(791,247,o),
(791,258,cs),
(792,738,ls),
(792,755,o),
(776,763,o),
(758,757,cs),
(743,752,o),
(678,705,o),
(646,683,c),
(665,663,o),
(687,661,o),
(713,675,cs),
(725,682,o),
(729,681,o),
(731,680,c),
(730,227,l)
);
},
{
closed = 1;
nodes = (
(521,615,o),
(511,626,o),
(499,626,cs),
(146,626,ls),
(125,626,o),
(123,613,o),
(123,598,cs),
(123,561,ls),
(123,557,o),
(123,547,o),
(131,544,cs),
(139,541,o),
(145,547,o),
(147,550,cs),
(162,580,o),
(219,581,o),
(254,581,cs),
(437,581,l),
(394,404,o),
(183,256,o),
(67,212,cs),
(45,204,o),
(56,170,o),
(79,177,cs),
(264,236,o),
(459,407,o),
(514,592,cs)
);
},
{
closed = 1;
nodes = (
(548,485,o),
(571,488,o),
(599,488,cs),
(773,488,l),
(769,533,l),
(545,533,ls),
(528,533,o),
(524,532,o),
(520,529,cs),
(516,526,o),
(514,520,o),
(514,515,cs),
(514,472,ls),
(514,456,o),
(529,457,o),
(533,463,cs)
);
},
{
closed = 1;
nodes = (
(783,-51,o),
(808,98,o),
(801,150,cs),
(799,161,o),
(794,166,o),
(789,166,c),
(278,166,ls),
(257,166,o),
(255,153,o),
(255,138,cs),
(255,101,ls),
(255,97,o),
(255,87,o),
(263,84,cs),
(271,81,o),
(277,87,o),
(279,90,cs),
(294,120,o),
(351,121,o),
(386,121,cs),
(732,121,l),
(744,33,o),
(701,-106,o),
(679,-147,cs),
(669,-166,o),
(698,-181,o),
(711,-161,cs)
);
},
{
closed = 1;
nodes = (
(537,334,o),
(560,337,o),
(588,337,cs),
(762,337,l),
(758,382,l),
(534,382,ls),
(517,382,o),
(513,381,o),
(509,378,cs),
(505,375,o),
(503,369,o),
(503,364,cs),
(503,321,ls),
(503,305,o),
(518,306,o),
(522,312,cs)
);
}
);
width = 970;
},
{
associatedMasterId = m01;
layerId = "9B7A700E-AC87-423D-A8A6-171296923A50";
width = 600;
},
{
associatedMasterId = m01;
layerId = "0B61D760-0DB2-4E80-BEC1-BC70B31ABDF2";
width = 600;
},
{
associatedMasterId = m01;
layerId = "3DFA7AB9-0000-439F-8C60-072A30B9F307";
shapes = (
{
closed = 1;
nodes = (
(836,649,ls),
(837,695,o),
(865,724,o),
(803,742,cs),
(760,754,o),
(670,779,o),
(641,773,cs),
(600,765,o),
(622,748,o),
(638,737,cs),
(721,681,o),
(709,651,o),
(709,633,cs),
(711,530,l),
(690,527,o),
(658,522,o),
(624,521,cs),
(569,519,o),
(555,523,o),
(532,524,c),
(544,539,o),
(562,565,o),
(569,580,c),
(577,592,o),
(611,629,o),
(549,637,cs),
(520,641,o),
(450,645,o),
(428,633,cs),
(403,619,o),
(192,612,o),
(142,622,cs),
(86,633,o),
(104,603,o),
(138,580,cs),
(237,512,o),
(218,541,o),
(251,546,cs),
(267,549,o),
(303,557,o),
(337,560,cs),
(365,562,o),
(391,562,o),
(410,562,c),
(402,547,o),
(379,483,o),
(280,369,cs),
(199,276,o),
(101,206,o),
(81,194,cs),
(56,180,o),
(73,167,o),
(97,176,cs),
(172,203,o),
(275,253,o),
(364,333,cs),
(462,422,o),
(481,447,o),
(505,479,c),
(579,432,o),
(572,447,o),
(616,455,cs),
(634,458,o),
(645,460,o),
(663,462,cs),
(682,464,o),
(694,464,o),
(711,463,c),
(712,355,l),
(667,351,o),
(578,338,o),
(520,345,cs),
(462,352,o),
(484,324,o),
(511,300,cs),
(568,250,o),
(569,276,o),
(608,280,cs),
(626,282,o),
(640,285,o),
(660,287,cs),
(680,289,o),
(700,290,o),
(712,291,c),
(712,282,ls),
(712,247,o),
(720,200,o),
(754,201,cs),
(829,203,o),
(831,320,o),
(832,386,cs)
);
},
{
closed = 1;
nodes = (
(825,111,ls),
(826,139,o),
(853,180,o),
(804,181,cs),
(761,182,o),
(727,186,o),
(693,173,cs),
(675,166,o),
(376,146,o),
(298,160,cs),
(232,172,o),
(270,134,o),
(282,123,cs),
(398,21,o),
(377,66,o),
(440,75,cs),
(464,79,o),
(513,87,o),
(560,92,cs),
(617,98,o),
(687,100,o),
(706,100,c),
(707,-97,ls),
(707,-135,o),
(714,-190,o),
(743,-189,cs),
(801,-188,o),
(816,-99,o),
(818,-44,cs)
);
}
);
vertWidth = 1000;
width = 1000;
},
{
associatedMasterId = m01;
layerId = "7F8294BA-8360-437F-B09C-AC92AEF5F451";
width = 600;
}
);
unicode = 44201;
}
{
glyphname = "gyeol-ko";
layers = (
{
layerId = m01;
shapes = (
{
closed = 1;
nodes = (
(744,236,o),
(762,236,o),
(775,243,cs),
(784,248,o),
(793,260,o),
(793,271,cs),
(794,738,ls),
(794,755,o),
(778,763,o),
(760,757,cs),
(745,752,o),
(680,705,o),
(648,683,c),
(667,663,o),
(689,661,o),
(715,675,cs),
(727,682,o),
(731,681,o),
(733,680,c),
(733,546,l),
(557,546,ls),
(540,546,o),
(536,545,o),
(532,542,cs),
(528,539,o),
(526,533,o),
(526,528,cs),
(526,491,ls),
(526,475,o),
(541,476,o),
(545,482,cs),
(560,504,o),
(583,503,o),
(611,503,cs),
(733,503,l),
(732,387,l),
(532,387,ls),
(515,387,o),
(511,386,o),
(507,383,cs),
(503,380,o),
(501,374,o),
(501,369,cs),
(501,332,ls),
(501,316,o),
(516,317,o),
(520,323,cs),
(535,345,o),
(558,344,o),
(586,344,cs),
(732,344,l),
(732,240,l)
);
},
{
closed = 1;
nodes = (
(69,218,o),
(80,184,o),
(102,191,cs),
(289,248,o),
(469,435,o),
(526,607,cs),
(534,630,o),
(523,641,o),
(511,641,cs),
(158,641,ls),
(137,641,o),
(135,628,o),
(135,613,cs),
(135,576,ls),
(135,572,o),
(135,562,o),
(143,559,cs),
(151,556,o),
(157,562,o),
(159,565,cs),
(174,595,o),
(231,596,o),
(266,596,cs),
(449,596,l),
(404,437,o),
(206,267,o),
(88,225,cs)
);
},
{
closed = 1;
nodes = (
(301,48,ls),
(301,63,o),
(309,71,o),
(322,71,cs),
(704,71,l),
(723,90,o),
(735,131,o),
(732,156,c),
(410,156,ls),
(374,156,o),
(357,153,o),
(343,143,cs),
(337,139,o),
(334,134,o),
(332,131,cs),
(330,128,o),
(324,125,o),
(319,127,cs),
(313,129,o),
(312,135,o),
(312,138,cs),
(312,179,ls),
(312,186,o),
(312,193,o),
(318,197,cs),
(322,200,o),
(325,201,o),
(419,201,cs),
(782,201,ls),
(831,201,o),
(783,98,o),
(761,71,c),
(773,71,ls),
(793,71,o),
(802,57,o),
(802,38,cs),
(802,26,l),
(409,26,l),
(425,-26,o),
(495,-75,o),
(593,-91,cs),
(685,-106,o),
(770,-98,o),
(837,-82,cs),
(859,-77,o),
(866,-107,o),
(847,-113,cs),
(776,-137,o),
(651,-148,o),
(562,-130,cs),
(462,-110,o),
(373,-61,o),
(337,25,c),
(333,25,o),
(330,24,o),
(326,14,cs),
(324,8,o),
(320,3,o),
(313,3,cs),
(307,3,o),
(301,8,o),
(301,17,cs)
);
}
);
width = 970;
},
{
associatedMasterId = m01;
layerId = "B95609A4-E58B-4ADE-9779-E0FAA25E41BF";
width = 600;
},
{
associatedMasterId = m01;
layerId = "653FFB37-5C59-4C66-B2B8-3358A1461268";
width = 600;
},
{
associatedMasterId = m01;
layerId = "5494C454-2D9E-4789-B866-396A871BBCCD";
shapes = (
{
closed = 1;
nodes = (
(836,648,ls),
(837,693,o),
(865,723,o),
(803,741,cs),
(760,753,o),
(670,778,o),
(641,772,cs),
(601,764,o),
(621,746,o),
(638,735,cs),
(721,679,o),
(710,649,o),
(710,632,cs),
(711,539,l),
(690,535,o),
(652,530,o),
(615,529,cs),
(560,527,o),
(549,529,o),
(533,529,c),
(544,544,o),
(555,560,o),
(562,574,cs),
(570,586,o),
(602,625,o),
(540,633,cs),
(511,637,o),
(441,641,o),
(419,629,cs),
(394,615,o),
(192,608,o),
(143,618,cs),
(86,630,o),
(103,599,o),
(138,575,cs),
(237,507,o),
(220,536,o),
(252,542,c),
(280,550,o),
(298,553,o),
(328,556,cs),
(356,558,o),
(386,558,o),
(401,558,c),
(393,537,o),
(371,464,o),
(273,342,cs),
(192,242,o),
(105,172,o),
(85,160,cs),
(59,145,o),
(77,133,o),
(101,142,cs),
(176,169,o),
(260,217,o),
(358,307,cs),
(445,387,o),
(489,454,o),
(506,482,c),
(580,435,o),
(567,458,o),
(607,464,cs),
(626,467,o),
(642,469,o),
(664,471,cs),
(682,473,o),
(694,472,o),
(711,472,c),
(712,393,l),
(691,391,o),
(581,376,o),
(524,383,cs),
(466,390,o),
(488,362,o),
(515,338,cs),
(572,288,o),
(573,313,o),
(611,318,cs),
(631,320,o),
(641,323,o),
(661,325,cs),
(681,327,o),
(689,327,o),
(712,328,c),
(713,320,ls),
(717,287,o),
(724,247,o),
(758,248,cs),
(831,250,o),
(832,358,o),
(833,424,cs)
);
},
{
closed = 1;
nodes = (
(816,-46,o),
(774,-48,o),
(755,-66,cs),
(740,-80,o),
(560,-83,o),
(521,-83,cs),
(513,-83,o),
(511,-83,o),
(500,-77,cs),
(495,-74,o),
(494,-65,o),
(494,-58,cs),
(494,5,l),
(551,9,o),
(722,18,o),
(778,19,cs),
(834,20,o),
(834,62,o),
(814,75,cs),
(805,81,o),
(804,82,o),
(794,84,c),
(823,161,ls),
(833,187,o),
(865,228,o),
(807,232,cs),
(762,235,o),
(715,240,o),
(701,229,cs),
(688,219,o),
(401,203,o),
(326,215,cs),
(275,223,o),
(289,199,o),
(312,180,cs),
(420,92,o),
(405,135,o),
(458,142,cs),
(494,146,o),
(489,148,o),
(587,156,cs),
(634,160,o),
(669,162,o),
(708,164,c),
(702,83,l),
(678,80,o),
(493,62,o),
(485,69,cs),
(471,81,o),
(350,91,o),
(326,81,cs),
(283,63,o),
(303,54,o),
(326,46,cs),
(358,34,o),
(370,25,o),
(370,7,cs),
(371,-70,ls),
(371,-92,o),
(377,-109,o),
(395,-122,cs),
(414,-136,o),
(439,-142,o),
(469,-142,cs),
(507,-142,o),
(789,-137,o),
(847,-138,cs),
(925,-139,o),
(923,-58,o),
(868,-52,cs)
);
}
);
vertWidth = 1000;
width = 1000;
},
{
associatedMasterId = m01;
layerId = "FA6D07F3-67AB-4197-AE0F-C6DA16090780";
width = 600;
},
{
associatedMasterId = m01;
layerId = m004;
shapes = (
{
closed = 1;
nodes = (
(744,256,o),
(762,256,o),
(775,263,cs),
(784,268,o),
(793,280,o),
(793,291,cs),
(794,738,ls),
(794,755,o),
(778,763,o),
(760,757,cs),
(745,752,o),
(680,705,o),
(648,683,c),
(667,663,o),
(689,661,o),
(715,675,cs),
(727,682,o),
(731,681,o),
(733,680,c),
(732,260,l)
);
},
{
closed = 1;
nodes = (
(534,630,o),
(523,641,o),
(511,641,cs),
(158,641,ls),
(137,641,o),
(135,628,o),
(135,613,cs),
(135,576,ls),
(135,572,o),
(135,562,o),
(143,559,cs),
(151,556,o),
(157,562,o),
(159,565,cs),
(174,595,o),
(231,596,o),
(266,596,cs),
(449,596,l),
(404,437,o),
(206,267,o),
(88,225,cs),
(69,218,o),
(80,184,o),
(102,191,cs),
(289,248,o),
(469,435,o),
(526,607,cs)
);
},
{
closed = 1;
nodes = (
(547,484,o),
(550,489,o),
(555,492,cs),
(569,501,o),
(574,506,o),
(637,506,c),
(775,506,l),
(771,550,l),
(557,550,ls),
(540,550,o),
(536,549,o),
(532,546,cs),
(528,543,o),
(526,537,o),
(526,532,cs),
(526,490,ls),
(526,474,o),
(541,475,o),
(545,481,cs)
);
},
{
closed = 1;
nodes = (
(547,335,o),
(550,340,o),
(555,343,cs),
(569,352,o),
(574,357,o),
(637,357,cs),
(775,357,l),
(771,401,l),
(557,401,ls),
(540,401,o),
(536,400,o),
(532,397,cs),
(528,394,o),
(526,388,o),
(526,383,cs),
(526,341,ls),
(526,325,o),
(541,326,o),
(545,332,cs)
);
},
{
closed = 1;
nodes = (
(863,-108,o),
(853,-76,o),
(831,-82,cs),
(764,-101,o),
(672,-110,o),
(580,-93,cs),
(486,-76,o),
(418,-30,o),
(406,21,c),
(810,21,l),
(810,33,ls),
(810,52,o),
(801,66,o),
(781,66,cs),
(768,66,l),
(790,93,o),
(839,206,o),
(790,206,cs),
(404,206,ls),
(310,206,o),
(307,205,o),
(303,202,cs),
(297,198,o),
(297,191,o),
(297,184,cs),
(297,143,ls),
(297,140,o),
(298,134,o),
(304,132,cs),
(309,130,o),
(315,133,o),
(317,136,cs),
(319,139,o),
(322,144,o),
(328,148,cs),
(342,158,o),
(359,161,o),
(395,161,cs),
(787,161,l),
(748,175,l),
(751,173,o),
(738,168,o),
(738,161,cs),
(738,136,o),
(726,85,o),
(707,66,c),
(316,66,ls),
(303,66,o),
(295,58,o),
(295,43,cs),
(295,14,ls),
(295,0,o),
(313,-2,o),
(320,11,cs),
(324,18,o),
(327,20,o),
(331,20,c),
(359,-57,o),
(430,-102,o),
(513,-125,cs),
(627,-156,o),
(765,-144,o),
(844,-115,cs)
);
}
);
width = 970;
},
{
associatedMasterId = m01;
layerId = "F937E3B3-5ABE-4AB8-B82B-F44628CC8FBB";
width = 600;
},
{
associatedMasterId = m01;
layerId = "BC8C51F9-0B88-4E9C-92A0-E253F6C53B2C";
width = 600;
},
{
associatedMasterId = m01;
layerId = "8F85C08C-30F8-4E54-B570-B9EC5EE2E2E1";
shapes = (
{
closed = 1;
nodes = (
(836,648,ls),
(837,693,o),
(865,723,o),
(803,741,cs),
(760,753,o),
(670,778,o),
(641,772,cs),
(601,764,o),
(621,746,o),
(638,735,cs),
(721,679,o),
(710,649,o),
(710,632,cs),
(711,539,l),
(690,535,o),
(652,530,o),
(615,529,cs),
(560,527,o),
(549,529,o),
(533,529,c),
(544,544,o),
(555,560,o),
(562,574,cs),
(570,586,o),
(602,625,o),
(540,633,cs),
(511,637,o),
(441,641,o),
(419,629,cs),
(394,615,o),
(192,608,o),
(143,618,cs),
(86,630,o),
(103,599,o),
(138,575,cs),
(237,507,o),
(220,536,o),
(252,542,c),
(280,550,o),
(298,553,o),
(328,556,cs),
(356,558,o),
(386,558,o),
(401,558,c),
(393,537,o),
(371,464,o),
(273,342,cs),
(192,242,o),
(105,172,o),
(85,160,cs),
(59,145,o),
(77,133,o),
(101,142,cs),
(176,169,o),
(260,217,o),
(358,307,cs),
(445,387,o),
(489,454,o),
(506,482,c),
(580,435,o),
(567,458,o),
(607,464,cs),
(626,467,o),
(642,469,o),
(664,471,cs),
(682,473,o),
(694,472,o),
(711,472,c),
(712,393,l),
(691,391,o),
(581,376,o),
(524,383,cs),
(466,390,o),
(488,362,o),
(515,338,cs),
(572,288,o),
(573,313,o),
(611,318,cs),
(631,320,o),
(641,323,o),
(661,325,cs),
(681,327,o),
(689,327,o),
(712,328,c),
(713,320,ls),
(717,287,o),
(724,247,o),
(758,248,cs),
(831,250,o),
(832,358,o),
(833,424,cs)
);
},
{
closed = 1;
nodes = (
(816,-46,o),
(774,-48,o),
(755,-66,cs),
(740,-80,o),
(560,-83,o),
(521,-83,cs),
(513,-83,o),
(511,-83,o),
(500,-77,cs),
(495,-74,o),
(494,-65,o),
(494,-58,cs),
(494,5,l),
(551,9,o),
(722,18,o),
(778,19,cs),
(834,20,o),
(834,62,o),
(814,75,cs),
(805,81,o),
(804,82,o),
(794,84,c),
(823,161,ls),
(833,187,o),
(865,228,o),
(807,232,cs),
(762,235,o),
(715,240,o),
(701,229,cs),
(688,219,o),
(401,203,o),
(326,215,cs),
(275,223,o),
(289,199,o),
(312,180,cs),
(420,92,o),
(405,135,o),
(458,142,cs),
(494,146,o),
(489,148,o),
(587,156,cs),
(634,160,o),
(669,162,o),
(708,164,c),
(702,83,l),
(678,80,o),
(493,62,o),
(485,69,cs),
(471,81,o),
(350,91,o),
(326,81,cs),
(283,63,o),
(303,54,o),
(326,46,cs),
(358,34,o),
(370,25,o),
(370,7,cs),
(371,-70,ls),
(371,-92,o),
(377,-109,o),
(395,-122,cs),
(414,-136,o),
(439,-142,o),
(469,-142,cs),
(507,-142,o),
(789,-137,o),
(847,-138,cs),
(925,-139,o),
(923,-58,o),
(868,-52,cs)
);
}
);
vertWidth = 1000;
width = 1000;
},
{
associatedMasterId = m01;
layerId = "4F66B18C-07DA-4B71-80A3-B7AC213D2CC3";
width = 600;
}
);
unicode = 44208;
}
